<svg width="18" height="18" viewBox="0 0 18 18" fill="none" xmlns="http://www.w3.org/2000/svg">
<path d="M2.15002 16.0002H3.40002L12.65 6.7502L11.425 5.5002L2.15002 14.7752V16.0002ZM15.85 5.6502L12.475 2.3002L13.8 1.0002C14.0834 0.716862 14.4377 0.575195 14.863 0.575195C15.2877 0.575195 15.6417 0.716862 15.925 1.0002L17.15 2.2252C17.4334 2.5252 17.5834 2.8792 17.6 3.2872C17.6167 3.69586 17.475 4.04186 17.175 4.3252L15.85 5.6502ZM1.55002 17.5002C1.30002 17.5002 1.08769 17.4129 0.913024 17.2382C0.737691 17.0629 0.650024 16.8502 0.650024 16.6002V14.5002C0.650024 14.3835 0.671024 14.2712 0.713024 14.1632C0.754358 14.0545 0.825024 13.9502 0.925024 13.8502L11.4 3.3752L14.775 6.7502L4.30002 17.2252C4.20002 17.3252 4.09602 17.3962 3.98802 17.4382C3.87936 17.4795 3.76669 17.5002 3.65002 17.5002H1.55002ZM12.025 6.1252L11.425 5.5002L12.65 6.7502L12.025 6.1252Z" fill="#404040"/>
</svg>
