<svg xmlns="http://www.w3.org/2000/svg" viewBox="0 0 132.54 125.06"><defs><style>.cls-1{isolation:isolate;}.cls-2{fill:#39aa7c;}.cls-2,.cls-3,.cls-4,.cls-5{fill-rule:evenodd;}.cls-3{fill:#a03ac1;}.cls-4{fill:#ca69de;mix-blend-mode:multiply;}.cls-5{fill:#46bc8c;}</style></defs><g class="cls-1"><g id="Layer_1" data-name="Layer 1"><path class="cls-2" d="M154.26,82.2c22.59,9.5,38.55,32.68,38.55,59.77,0,28.45-17.59,52.57-42,61.09-1.35.47-1,1.47.5,1.33C182,201.52,206,174.52,206,141.65c0-31.6-22.18-57.76-51.1-62.3C153,79.12,152.27,81.44,154.26,82.2Z" transform="translate(-73.43 -79.34)"/><path class="cls-3" d="M170.86,104.77a.51.51,0,0,0-.67-.14c-2.52,1.48-15.61,9.77-23,32.94-7.55,23.82,5.58,52.42,7.44,56.29-1.94-3.19-13.42-20.91-28.56-21.16S99.58,185.56,91.2,184.53a.36.36,0,0,0-.26.63,53.4,53.4,0,0,0,65.16,8.32,58,58,0,0,0,26.27-35.27A59,59,0,0,0,170.86,104.77Z" transform="translate(-73.43 -79.34)"/><path class="cls-4" d="M140.8,106.21a.51.51,0,0,0-.7.66c6,13.25-2.45,31-1.72,45.88.88,17.86,8.72,28.31,12,33.93-.05-.08-7.94-14.1-19.78-19.89-15.13-7.39-27.54-5.6-30.45-5.07a.54.54,0,0,0-.39.73c1,2.69,4.79,13,17.93,23.49,14.64,11.69,27.68,13.34,37,7.92,0,0,22-15.9,23.17-41.22C179.35,121.36,146.26,109.08,140.8,106.21Z" transform="translate(-73.43 -79.34)"/><path class="cls-5" d="M109.38,197.24a53.1,53.1,0,0,0,13.86,3.42,49.22,49.22,0,0,1-13.9-3.65A2.23,2.23,0,0,0,109.38,197.24Z" transform="translate(-73.43 -79.34)"/><path class="cls-5" d="M162.77,103.42a4.16,4.16,0,0,0,.14-6.54,53.38,53.38,0,0,0-36.08-12.26C98.66,85.7,75.4,109.34,73.56,138.85a59.69,59.69,0,0,0,15.19,44h0a.21.21,0,0,0,.29,0,.23.23,0,0,0,0-.3h0c-8.56-10.24-12.46-23.92-11.58-38.82C79,117.4,99.1,95.8,124.19,93.58a49.33,49.33,0,0,1,34.22,9.84A3.66,3.66,0,0,0,162.77,103.42Z" transform="translate(-73.43 -79.34)"/></g></g></svg>