<svg width="18" height="20" viewBox="0 0 18 20" fill="none" xmlns="http://www.w3.org/2000/svg">
<path d="M13 15C13.4167 15 13.7707 14.854 14.062 14.562C14.354 14.2707 14.5 13.9167 14.5 13.5C14.5 13.0834 14.354 12.7294 14.062 12.438C13.7707 12.146 13.4167 12 13 12C12.5833 12 12.2293 12.146 11.938 12.438C11.646 12.7294 11.5 13.0834 11.5 13.5C11.5 13.9167 11.646 14.2707 11.938 14.562C12.2293 14.854 12.5833 15 13 15ZM13 18C13.5167 18 13.9917 17.879 14.425 17.637C14.8583 17.3957 15.2083 17.075 15.475 16.675C15.1083 16.4584 14.7167 16.2917 14.3 16.175C13.8833 16.0584 13.45 16 13 16C12.55 16 12.1167 16.0584 11.7 16.175C11.2833 16.2917 10.8917 16.4584 10.525 16.675C10.7917 17.075 11.1417 17.3957 11.575 17.637C12.0083 17.879 12.4833 18 13 18ZM13 19.5C11.75 19.5 10.6873 19.0627 9.812 18.188C8.93733 17.3127 8.5 16.25 8.5 15C8.5 13.75 8.93733 12.6874 9.812 11.812C10.6873 10.9374 11.75 10.5 13 10.5C14.25 10.5 15.3127 10.9374 16.188 11.812C17.0627 12.6874 17.5 13.75 17.5 15C17.5 16.25 17.0627 17.3127 16.188 18.188C15.3127 19.0627 14.25 19.5 13 19.5ZM8 19.4C7.91667 19.4 7.84167 19.4 7.775 19.4C7.70833 19.4 7.64167 19.3834 7.575 19.35C5.525 18.6834 3.83333 17.3917 2.5 15.475C1.16667 13.5584 0.5 11.4334 0.5 9.10005V4.60005C0.5 4.21672 0.608333 3.87505 0.825 3.57505C1.04167 3.27505 1.325 3.05005 1.675 2.90005L7.375 0.775049C7.59167 0.708382 7.8 0.675049 8 0.675049C8.2 0.675049 8.40833 0.708382 8.625 0.775049L14.325 2.90005C14.675 3.05005 14.9583 3.27505 15.175 3.57505C15.3917 3.87505 15.5 4.21672 15.5 4.60005V9.00005C15.2667 8.91672 15.021 8.83738 14.763 8.76205C14.5043 8.68738 14.25 8.62505 14 8.57505V4.60005C14 4.53338 13.9833 4.47505 13.95 4.42505C13.9167 4.37505 13.8667 4.34172 13.8 4.32505L8.1 2.20005C8.06667 2.18338 8.03333 2.17505 8 2.17505C7.96667 2.17505 7.93333 2.18338 7.9 2.20005L2.2 4.32505C2.13333 4.34172 2.08333 4.37505 2.05 4.42505C2.01667 4.47505 2 4.53338 2 4.60005V9.10005C2 9.98338 2.125 10.846 2.375 11.688C2.625 12.5294 2.971 13.3207 3.413 14.062C3.85433 14.804 4.37933 15.4667 4.988 16.05C5.596 16.6334 6.25833 17.1 6.975 17.4501L7 17.425C7.13333 17.7917 7.3 18.1374 7.5 18.462C7.7 18.7874 7.93333 19.0917 8.2 19.375C8.16667 19.375 8.13333 19.379 8.1 19.387C8.06667 19.3957 8.03333 19.4 8 19.4Z" fill="#404040"/>
</svg>
