<svg width="18" height="20" viewBox="0 0 18 20" fill="none" xmlns="http://www.w3.org/2000/svg">
<path d="M2.3 19.5C1.8 19.5 1.375 19.325 1.025 18.975C0.675 18.625 0.5 18.2 0.5 17.7V4.3C0.5 3.8 0.675 3.375 1.025 3.025C1.375 2.675 1.8 2.5 2.3 2.5H6.75C6.83333 1.93333 7.08333 1.45833 7.5 1.075C7.91667 0.691667 8.41667 0.5 9 0.5C9.58333 0.5 10.0833 0.691667 10.5 1.075C10.9167 1.45833 11.1667 1.93333 11.25 2.5H15.7C16.2 2.5 16.625 2.675 16.975 3.025C17.325 3.375 17.5 3.8 17.5 4.3V17.7C17.5 18.2 17.325 18.625 16.975 18.975C16.625 19.325 16.2 19.5 15.7 19.5H2.3ZM9 3.35C9.21667 3.35 9.396 3.279 9.538 3.137C9.67933 2.99567 9.75 2.81667 9.75 2.6C9.75 2.38333 9.67933 2.204 9.538 2.062C9.396 1.92067 9.21667 1.85 9 1.85C8.78333 1.85 8.60433 1.92067 8.463 2.062C8.321 2.204 8.25 2.38333 8.25 2.6C8.25 2.81667 8.321 2.99567 8.463 3.137C8.60433 3.279 8.78333 3.35 9 3.35ZM2 17.05C2.9 16.1667 3.946 15.471 5.138 14.963C6.32933 14.4543 7.61667 14.2 9 14.2C10.3833 14.2 11.671 14.4543 12.863 14.963C14.0543 15.471 15.1 16.1667 16 17.05V4.3C16 4.23333 15.9667 4.16667 15.9 4.1C15.8333 4.03333 15.7667 4 15.7 4H2.3C2.23333 4 2.16667 4.03333 2.1 4.1C2.03333 4.16667 2 4.23333 2 4.3V17.05ZM9 12.05C9.9 12.05 10.6667 11.7333 11.3 11.1C11.9333 10.4667 12.25 9.7 12.25 8.8C12.25 7.88333 11.9333 7.11233 11.3 6.487C10.6667 5.86233 9.9 5.55 9 5.55C8.1 5.55 7.33333 5.86233 6.7 6.487C6.06667 7.11233 5.75 7.88333 5.75 8.8C5.75 9.7 6.06667 10.4667 6.7 11.1C7.33333 11.7333 8.1 12.05 9 12.05ZM3.45 18H14.55C14.55 17.95 14.55 17.9127 14.55 17.888C14.55 17.8627 14.55 17.8333 14.55 17.8C13.7667 17.0833 12.9043 16.554 11.963 16.212C11.021 15.8707 10.0333 15.7 9 15.7C7.98333 15.7 7 15.8707 6.05 16.212C5.1 16.554 4.23333 17.075 3.45 17.775C3.45 17.825 3.45 17.8627 3.45 17.888C3.45 17.9127 3.45 17.95 3.45 18ZM9 10.55C8.51667 10.55 8.104 10.375 7.762 10.025C7.42067 9.675 7.25 9.26667 7.25 8.8C7.25 8.31667 7.42067 7.904 7.762 7.562C8.104 7.22067 8.51667 7.05 9 7.05C9.48333 7.05 9.896 7.22067 10.238 7.562C10.5793 7.904 10.75 8.31667 10.75 8.8C10.75 9.26667 10.5793 9.675 10.238 10.025C9.896 10.375 9.48333 10.55 9 10.55Z" fill="#404040"/>
</svg>
