<svg width="34" height="35" viewBox="0 0 34 35" fill="none" xmlns="http://www.w3.org/2000/svg">
<path d="M14.1667 4.75H5.66667C4.88325 4.75 4.25 5.38325 4.25 6.16667V14.6667C4.25 15.4501 4.88325 16.0833 5.66667 16.0833H14.1667C14.9501 16.0833 15.5833 15.4501 15.5833 14.6667V6.16667C15.5833 5.38325 14.9501 4.75 14.1667 4.75ZM12.75 13.25H7.08333V7.58333H12.75V13.25ZM28.3333 4.75H19.8333C19.0499 4.75 18.4167 5.38325 18.4167 6.16667V14.6667C18.4167 15.4501 19.0499 16.0833 19.8333 16.0833H28.3333C29.1167 16.0833 29.75 15.4501 29.75 14.6667V6.16667C29.75 5.38325 29.1167 4.75 28.3333 4.75ZM26.9167 13.25H21.25V7.58333H26.9167V13.25ZM14.1667 18.9167H5.66667C4.88325 18.9167 4.25 19.5499 4.25 20.3333V28.8333C4.25 29.6167 4.88325 30.25 5.66667 30.25H14.1667C14.9501 30.25 15.5833 29.6167 15.5833 28.8333V20.3333C15.5833 19.5499 14.9501 18.9167 14.1667 18.9167ZM12.75 27.4167H7.08333V21.75H12.75V27.4167ZM24.0833 18.9167C20.9582 18.9167 18.4167 21.4582 18.4167 24.5833C18.4167 27.7085 20.9582 30.25 24.0833 30.25C27.2085 30.25 29.75 27.7085 29.75 24.5833C29.75 21.4582 27.2085 18.9167 24.0833 18.9167ZM24.0833 27.4167C22.5208 27.4167 21.25 26.1459 21.25 24.5833C21.25 23.0208 22.5208 21.75 24.0833 21.75C25.6459 21.75 26.9167 23.0208 26.9167 24.5833C26.9167 26.1459 25.6459 27.4167 24.0833 27.4167Z" fill="#333333"/>
</svg>
