<svg width="20" height="18" viewBox="0 0 20 18" fill="none" xmlns="http://www.w3.org/2000/svg">
<path d="M5 11.75H15C15.2167 11.75 15.396 11.679 15.538 11.537C15.6793 11.3957 15.75 11.2167 15.75 11C15.75 10.7833 15.6793 10.604 15.538 10.462C15.396 10.3207 15.2167 10.25 15 10.25H5C4.78333 10.25 4.60433 10.3207 4.463 10.462C4.321 10.604 4.25 10.7833 4.25 11C4.25 11.2167 4.321 11.3957 4.463 11.537C4.60433 11.679 4.78333 11.75 5 11.75ZM5 8.75H15C15.2167 8.75 15.396 8.679 15.538 8.537C15.6793 8.39567 15.75 8.21667 15.75 8C15.75 7.78333 15.6793 7.604 15.538 7.462C15.396 7.32067 15.2167 7.25 15 7.25H5C4.78333 7.25 4.60433 7.32067 4.463 7.462C4.321 7.604 4.25 7.78333 4.25 8C4.25 8.21667 4.321 8.39567 4.463 8.537C4.60433 8.679 4.78333 8.75 5 8.75ZM5 5.75H15C15.2167 5.75 15.396 5.679 15.538 5.537C15.6793 5.39567 15.75 5.21667 15.75 5C15.75 4.78333 15.6793 4.60433 15.538 4.463C15.396 4.321 15.2167 4.25 15 4.25H5C4.78333 4.25 4.60433 4.321 4.463 4.463C4.321 4.60433 4.25 4.78333 4.25 5C4.25 5.21667 4.321 5.39567 4.463 5.537C4.60433 5.679 4.78333 5.75 5 5.75ZM17.975 17.5L15.95 15.5H2.3C1.8 15.5 1.375 15.325 1.025 14.975C0.675 14.625 0.5 14.2 0.5 13.7V2.3C0.5 1.8 0.675 1.375 1.025 1.025C1.375 0.675 1.8 0.5 2.3 0.5H17.7C18.2 0.5 18.625 0.675 18.975 1.025C19.325 1.375 19.5 1.8 19.5 2.3V16.85C19.5 17.25 19.3167 17.5293 18.95 17.688C18.5833 17.846 18.2583 17.7833 17.975 17.5ZM2 2.3V13.7C2 13.7833 2 13.854 2 13.912C2 13.9707 2 14 2 14H16.575L18 15.425V2.3C18 2.21667 17.971 2.14567 17.913 2.087C17.8543 2.029 17.7833 2 17.7 2H2.3C2.21667 2 2.146 2.029 2.088 2.087C2.02933 2.14567 2 2.21667 2 2.3ZM2 2.3V15.425V14C2 14 2 13.9707 2 13.912C2 13.854 2 13.7833 2 13.7V2.3C2 2.21667 2 2.14567 2 2.087C2 2.029 2 2 2 2C2 2 2 2.029 2 2.087C2 2.14567 2 2.21667 2 2.3Z" fill="#404040"/>
</svg>
