<svg width="19" height="20" viewBox="0 0 19 20" fill="none" xmlns="http://www.w3.org/2000/svg">
<path d="M5 20C4.78333 20 4.60433 19.9293 4.463 19.788C4.321 19.646 4.25 19.4667 4.25 19.25V14.75H2.75C2.31667 14.75 1.95833 14.6083 1.675 14.325C1.39167 14.0417 1.25 13.6833 1.25 13.25V5.25H1C0.783333 5.25 0.604333 5.179 0.463 5.037C0.321 4.89567 0.25 4.71667 0.25 4.5C0.25 4.28333 0.321 4.10433 0.463 3.963C0.604333 3.821 0.783333 3.75 1 3.75H4.25V1.75H3.5C3.28333 1.75 3.10433 1.679 2.963 1.537C2.821 1.39567 2.75 1.21667 2.75 1C2.75 0.783333 2.821 0.604 2.963 0.462C3.10433 0.320667 3.28333 0.25 3.5 0.25H6.5C6.71667 0.25 6.896 0.320667 7.038 0.462C7.17933 0.604 7.25 0.783333 7.25 1C7.25 1.21667 7.17933 1.39567 7.038 1.537C6.896 1.679 6.71667 1.75 6.5 1.75H5.75V3.75H9C9.21667 3.75 9.396 3.821 9.538 3.963C9.67933 4.10433 9.75 4.28333 9.75 4.5C9.75 4.71667 9.67933 4.89567 9.538 5.037C9.396 5.179 9.21667 5.25 9 5.25H8.75V13.25C8.75 13.6833 8.60833 14.0417 8.325 14.325C8.04167 14.6083 7.68333 14.75 7.25 14.75H5.75V19.25C5.75 19.4667 5.679 19.646 5.537 19.788C5.39567 19.9293 5.21667 20 5 20ZM2.75 13.25H7.25V11.35H5.25C5.08333 11.35 4.94167 11.2917 4.825 11.175C4.70833 11.0583 4.65 10.9167 4.65 10.75C4.65 10.5833 4.70833 10.4417 4.825 10.325C4.94167 10.2083 5.08333 10.15 5.25 10.15H7.25V8.35H5.25C5.08333 8.35 4.94167 8.29167 4.825 8.175C4.70833 8.05833 4.65 7.91667 4.65 7.75C4.65 7.58333 4.70833 7.44167 4.825 7.325C4.94167 7.20833 5.08333 7.15 5.25 7.15H7.25V5.25H2.75V13.25ZM12.75 19.75C12.3167 19.75 11.9583 19.6083 11.675 19.325C11.3917 19.0417 11.25 18.6833 11.25 18.25V11.5C11.25 11.0167 11.3417 10.6167 11.525 10.3C11.7083 9.98333 11.8917 9.71667 12.075 9.5C12.2583 9.28333 12.4167 9.104 12.55 8.962C12.6833 8.82067 12.75 8.66667 12.75 8.5V7.75H12.5C12.2833 7.75 12.1043 7.679 11.963 7.537C11.821 7.39567 11.75 7.21667 11.75 7C11.75 6.78333 11.821 6.604 11.963 6.462C12.1043 6.32067 12.2833 6.25 12.5 6.25H17.5C17.7167 6.25 17.896 6.32067 18.038 6.462C18.1793 6.604 18.25 6.78333 18.25 7C18.25 7.21667 18.1793 7.39567 18.038 7.537C17.896 7.679 17.7167 7.75 17.5 7.75H17.25V8.5C17.25 8.66667 17.3207 8.82933 17.462 8.988C17.604 9.146 17.775 9.33333 17.975 9.55C18.1583 9.76667 18.3333 10.0333 18.5 10.35C18.6667 10.6667 18.75 11.05 18.75 11.5V18.25C18.75 18.6833 18.6083 19.0417 18.325 19.325C18.0417 19.6083 17.6833 19.75 17.25 19.75H12.75ZM12.75 12.15H17.25V11.5C17.25 11.2167 17.175 10.9707 17.025 10.762C16.875 10.554 16.7 10.3417 16.5 10.125C16.3333 9.925 16.1667 9.7 16 9.45C15.8333 9.2 15.75 8.88333 15.75 8.5V7.75H14.25V8.5C14.25 8.86667 14.1707 9.175 14.012 9.425C13.854 9.675 13.6833 9.9 13.5 10.1C13.3167 10.3333 13.146 10.554 12.988 10.762C12.8293 10.9707 12.75 11.2167 12.75 11.5V12.15ZM12.75 15.15H17.25V13.35H12.75V15.15ZM12.75 18.25H17.25V16.35H12.75V18.25ZM12.75 15.15H17.25H12.75Z" fill="#404040"/>
</svg>
