<svg width="14" height="18" viewBox="0 0 14 18" fill="none" xmlns="http://www.w3.org/2000/svg">
<path d="M7 14C7.3 14 7.55 13.896 7.75 13.688C7.95 13.4794 8.05 13.2334 8.05 12.95V11.5H9.5C9.8 11.5 10.05 11.396 10.25 11.188C10.45 10.9794 10.55 10.7334 10.55 10.45C10.55 10.15 10.45 9.89605 10.25 9.68805C10.05 9.47938 9.8 9.37505 9.5 9.37505H8.05V7.95005C8.05 7.65005 7.95 7.39605 7.75 7.18805C7.55 6.97938 7.3 6.87505 7 6.87505C6.7 6.87505 6.45 6.97938 6.25 7.18805C6.05 7.39605 5.95 7.65005 5.95 7.95005V9.37505H4.5C4.2 9.37505 3.95 9.47938 3.75 9.68805C3.55 9.89605 3.45 10.15 3.45 10.45C3.45 10.7334 3.55 10.9794 3.75 11.188C3.95 11.396 4.2 11.5 4.5 11.5H5.95V12.95C5.95 13.2334 6.05 13.4794 6.25 13.688C6.45 13.896 6.7 14 7 14ZM2.3 17.4501C1.8 17.4501 1.375 17.271 1.025 16.913C0.675 16.5544 0.5 16.125 0.5 15.625V5.25005C0.5 4.75005 0.675 4.32505 1.025 3.97505C1.375 3.62505 1.8 3.45005 2.3 3.45005H11.7C12.2 3.45005 12.625 3.62505 12.975 3.97505C13.325 4.32505 13.5 4.75005 13.5 5.25005V15.625C13.5 16.125 13.325 16.5544 12.975 16.913C12.625 17.271 12.2 17.4501 11.7 17.4501H2.3ZM2.3 15.95H11.7C11.7667 15.95 11.8333 15.9167 11.9 15.85C11.9667 15.7834 12 15.7084 12 15.625V5.25005C12 5.16672 11.9667 5.09572 11.9 5.03705C11.8333 4.97905 11.7667 4.95005 11.7 4.95005H2.3C2.23333 4.95005 2.16667 4.97905 2.1 5.03705C2.03333 5.09572 2 5.16672 2 5.25005V15.625C2 15.7084 2.03333 15.7834 2.1 15.85C2.16667 15.9167 2.23333 15.95 2.3 15.95ZM1.975 2.05005C1.75833 2.05005 1.57933 1.97938 1.438 1.83805C1.296 1.69605 1.225 1.51672 1.225 1.30005C1.225 1.10005 1.296 0.925049 1.438 0.775049C1.57933 0.625049 1.75833 0.550049 1.975 0.550049H12.025C12.2417 0.550049 12.4207 0.625049 12.562 0.775049C12.704 0.925049 12.775 1.10005 12.775 1.30005C12.775 1.51672 12.704 1.69605 12.562 1.83805C12.4207 1.97938 12.2417 2.05005 12.025 2.05005H1.975ZM2 4.95005C2 4.95005 2 4.97905 2 5.03705C2 5.09572 2 5.16672 2 5.25005V15.625C2 15.7084 2 15.7834 2 15.85C2 15.9167 2 15.95 2 15.95C2 15.95 2 15.9167 2 15.85C2 15.7834 2 15.7084 2 15.625V5.25005C2 5.16672 2 5.09572 2 5.03705C2 4.97905 2 4.95005 2 4.95005Z" fill="#404040"/>
</svg>
