<svg width="18" height="20" viewBox="0 0 18 20" fill="none" xmlns="http://www.w3.org/2000/svg">
<path d="M3 19.5C2.3 19.5 1.70833 19.2583 1.225 18.775C0.741667 18.2917 0.5 17.7 0.5 17V15.4C0.5 15.15 0.587667 14.9373 0.763 14.762C0.937667 14.5873 1.15 14.5 1.4 14.5H3.5V1.4C3.5 1.23333 3.571 1.125 3.713 1.075C3.85433 1.025 3.99167 1.06667 4.125 1.2L4.875 1.95L5.975 0.9C6.05833 0.8 6.16233 0.75 6.287 0.75C6.41233 0.75 6.51667 0.8 6.6 0.9L7.7 1.95L8.775 0.9C8.875 0.8 8.98333 0.75 9.1 0.75C9.21667 0.75 9.325 0.8 9.425 0.9L10.5 1.95L11.575 0.9C11.675 0.8 11.7877 0.75 11.913 0.75C12.0377 0.75 12.1417 0.8 12.225 0.9L13.3 1.95L14.4 0.9C14.4833 0.8 14.5877 0.75 14.713 0.75C14.8377 0.75 14.9417 0.8 15.025 0.9L16.125 1.95L16.875 1.2C17.0083 1.06667 17.146 1.025 17.288 1.075C17.4293 1.125 17.5 1.23333 17.5 1.4V17C17.5 17.7 17.2583 18.2917 16.775 18.775C16.2917 19.2583 15.7 19.5 15 19.5H3ZM15 18C15.2833 18 15.5207 17.904 15.712 17.712C15.904 17.5207 16 17.2833 16 17V3H5V14.5H13.1C13.35 14.5 13.5627 14.5873 13.738 14.762C13.9127 14.9373 14 15.15 14 15.4V17C14 17.2833 14.096 17.5207 14.288 17.712C14.4793 17.904 14.7167 18 15 18ZM6.925 6.75C6.70833 6.75 6.53333 6.679 6.4 6.537C6.26667 6.39567 6.2 6.21667 6.2 6C6.2 5.78333 6.271 5.60433 6.413 5.463C6.55433 5.321 6.73333 5.25 6.95 5.25H11.125C11.325 5.25 11.5 5.321 11.65 5.463C11.8 5.60433 11.875 5.78333 11.875 6C11.875 6.21667 11.8 6.39567 11.65 6.537C11.5 6.679 11.325 6.75 11.125 6.75H6.925ZM6.925 9.75C6.70833 9.75 6.53333 9.679 6.4 9.537C6.26667 9.39567 6.2 9.21667 6.2 9C6.2 8.78333 6.271 8.604 6.413 8.462C6.55433 8.32067 6.73333 8.25 6.95 8.25H11.125C11.325 8.25 11.5 8.32067 11.65 8.462C11.8 8.604 11.875 8.78333 11.875 9C11.875 9.21667 11.8 9.39567 11.65 9.537C11.5 9.679 11.325 9.75 11.125 9.75H6.925ZM13.95 6.875C13.7 6.875 13.4873 6.79167 13.312 6.625C13.1373 6.45833 13.05 6.25 13.05 6C13.05 5.75 13.1373 5.54167 13.312 5.375C13.4873 5.20833 13.7 5.125 13.95 5.125C14.1833 5.125 14.3873 5.20833 14.562 5.375C14.7373 5.54167 14.825 5.75 14.825 6C14.825 6.25 14.7373 6.45833 14.562 6.625C14.3873 6.79167 14.1833 6.875 13.95 6.875ZM13.95 9.875C13.7 9.875 13.4873 9.79167 13.312 9.625C13.1373 9.45833 13.05 9.25 13.05 9C13.05 8.75 13.1373 8.54167 13.312 8.375C13.4873 8.20833 13.7 8.125 13.95 8.125C14.1833 8.125 14.3873 8.20833 14.562 8.375C14.7373 8.54167 14.825 8.75 14.825 9C14.825 9.25 14.7373 9.45833 14.562 9.625C14.3873 9.79167 14.1833 9.875 13.95 9.875ZM3 18H12.5V16H2V17C2 17.2833 2.09567 17.5207 2.287 17.712C2.479 17.904 2.71667 18 3 18ZM2 18C2 18 2 17.904 2 17.712C2 17.5207 2 17.2833 2 17V16V18Z" fill="#404040"/>
</svg>
