<svg xmlns="http://www.w3.org/2000/svg" xmlns:xlink="http://www.w3.org/1999/xlink" viewBox="0 0 181.43 55.97"><defs><style>.cls-1{isolation:isolate;}.cls-2{fill:#39aa7c;}.cls-2,.cls-3,.cls-4,.cls-5{fill-rule:evenodd;}.cls-3{fill:#a03ac1;}.cls-4{fill:#ca69de;}.cls-13,.cls-16,.cls-18,.cls-4,.cls-8{mix-blend-mode:multiply;}.cls-5{fill:#46bc8c;}.cls-6{fill:#2daf80;}.cls-7{fill:url(#linear-gradient);}.cls-16,.cls-8{opacity:0.6;}.cls-8{fill:url(#linear-gradient-2);}.cls-9{fill:#f0047f;opacity:0.4;}.cls-10{fill:#59b993;}.cls-11,.cls-13,.cls-17,.cls-18{opacity:0.3;}.cls-11{fill:url(#linear-gradient-3);}.cls-12{fill:#10a477;}.cls-13{fill:url(#linear-gradient-4);}.cls-14,.cls-19{opacity:0.5;}.cls-14{fill:url(#linear-gradient-5);}.cls-15{fill:url(#linear-gradient-6);}.cls-16{fill:url(#linear-gradient-7);}.cls-17{fill:url(#linear-gradient-8);}.cls-18{fill:url(#linear-gradient-9);}.cls-19{fill:url(#linear-gradient-10);}</style><linearGradient id="linear-gradient" x1="86.63" y1="157.11" x2="73.01" y2="119.69" gradientUnits="userSpaceOnUse"><stop offset="0" stop-color="#fff" stop-opacity="0"/><stop offset="0.99" stop-opacity="0.4"/></linearGradient><linearGradient id="linear-gradient-2" x1="105.58" y1="114.58" x2="91.28" y2="153.87" gradientUnits="userSpaceOnUse"><stop offset="0" stop-color="#fff" stop-opacity="0"/><stop offset="0.41" stop-color="#e8e8e7" stop-opacity="0"/><stop offset="1" stop-color="#525252"/></linearGradient><linearGradient id="linear-gradient-3" x1="-2493.83" y1="170.22" x2="-2484.02" y2="114.62" gradientTransform="translate(2550.57)" gradientUnits="userSpaceOnUse"><stop offset="0.79" stop-color="#fff" stop-opacity="0"/><stop offset="1" stop-color="#fff"/></linearGradient><linearGradient id="linear-gradient-4" x1="-2488.67" y1="170.27" x2="-2488.67" y2="120.64" gradientTransform="translate(2598.52)" gradientUnits="userSpaceOnUse"><stop offset="0" stop-color="#fff"/><stop offset="0.68" stop-color="#e8e8e7"/><stop offset="1" stop-opacity="0.7"/></linearGradient><linearGradient id="linear-gradient-5" x1="102.53" y1="114.22" x2="95.45" y2="154.39" gradientUnits="userSpaceOnUse"><stop offset="0" stop-color="#fff"/><stop offset="0.37" stop-color="#fff" stop-opacity="0"/></linearGradient><linearGradient id="linear-gradient-6" x1="-1085.71" y1="157.11" x2="-1099.33" y2="119.69" gradientTransform="matrix(-1, 0, 0, 1, -889.68, 0)" xlink:href="#linear-gradient"/><linearGradient id="linear-gradient-7" x1="-1066.76" y1="114.58" x2="-1081.06" y2="153.87" gradientTransform="matrix(-1, 0, 0, 1, -889.68, 0)" xlink:href="#linear-gradient-2"/><linearGradient id="linear-gradient-8" x1="-3666.17" y1="170.22" x2="-3656.37" y2="114.62" gradientTransform="matrix(-1, 0, 0, 1, -3440.25, 0)" xlink:href="#linear-gradient-3"/><linearGradient id="linear-gradient-9" x1="-3661.01" y1="170.27" x2="-3661.01" y2="120.64" gradientTransform="matrix(-1, 0, 0, 1, -3488.2, 0)" xlink:href="#linear-gradient-4"/><linearGradient id="linear-gradient-10" x1="-1069.81" y1="114.22" x2="-1076.89" y2="154.39" gradientTransform="matrix(-1, 0, 0, 1, -889.68, 0)" xlink:href="#linear-gradient-5"/></defs><g class="cls-1"><g id="Layer_1" data-name="Layer 1"><path class="cls-2" d="M147.87,115.75a28.76,28.76,0,0,1,17.21,26.68c0,12.7-7.85,23.47-18.74,27.28-.6.21-.45.65.23.59C160.24,169,171,157,171,142.29c0-14.11-9.9-25.79-22.81-27.82A.66.66,0,1,0,147.87,115.75Z" transform="translate(-50.61 -114.38)"/><path class="cls-3" d="M155.28,125.82a.22.22,0,0,0-.29-.06c-1.13.66-7,4.36-10.25,14.71-3.38,10.63,2.48,23.4,3.32,25.13-.87-1.43-6-9.34-12.76-9.45s-11.84,5.74-15.58,5.28a.17.17,0,0,0-.12.29,23.87,23.87,0,0,0,29.09,3.71,25.92,25.92,0,0,0,11.73-15.75A26.32,26.32,0,0,0,155.28,125.82Z" transform="translate(-50.61 -114.38)"/><path class="cls-4" d="M141.86,126.46a.23.23,0,0,0-.31.3c2.68,5.92-1.1,13.85-.77,20.48.4,8,3.9,12.64,5.34,15.16,0,0-3.54-6.3-8.83-8.89a22.39,22.39,0,0,0-13.59-2.26.24.24,0,0,0-.18.32c.43,1.2,2.14,5.8,8,10.49,6.53,5.22,12.36,6,16.53,3.54,0,0,9.79-7.1,10.34-18.4C159.08,133.23,144.3,127.75,141.86,126.46Z" transform="translate(-50.61 -114.38)"/><path class="cls-5" d="M127.83,167.11a23.78,23.78,0,0,0,6.19,1.52,21.65,21.65,0,0,1-6.2-1.63S127.83,167.07,127.83,167.11Z" transform="translate(-50.61 -114.38)"/><path class="cls-5" d="M151.67,125.22a1.86,1.86,0,0,0,.07-2.92,23.87,23.87,0,0,0-16.12-5.47c-12.57.48-23,11-23.78,24.21a26.67,26.67,0,0,0,6.78,19.66h0a.11.11,0,0,0,.14,0,.11.11,0,0,0,0-.13h0c-3.82-4.58-5.56-10.68-5.17-17.34.69-11.77,9.66-21.41,20.86-22.4a22,22,0,0,1,15.27,4.39A1.65,1.65,0,0,0,151.67,125.22Z" transform="translate(-50.61 -114.38)"/><path class="cls-6" d="M108.26,142.57a32.9,32.9,0,0,1,7-20.39.08.08,0,0,0,0-.08,13.95,13.95,0,0,0-25.09.52c-.06.12-.43,1-.43,1l-6,16.64-6-16.63s-.38-.93-.44-1a13.94,13.94,0,0,0-13.53-8.09c-7.45.45-13.08,7-13.08,14.45V163.3a6.93,6.93,0,1,0,13.86,0V127.92l7.53,20.79a12.2,12.2,0,0,0,23.19.5l.49-1.25,7.17-19.86c0-.13,0-.17.06-.18V163.3a6.92,6.92,0,0,0,13.72,1.33A32.92,32.92,0,0,1,108.26,142.57Z" transform="translate(-50.61 -114.38)"/><path class="cls-7" d="M83.77,140.3,78.3,125.23h0a7.11,7.11,0,0,0-13.75,2.51v.18h0l7.53,20.79a12.21,12.21,0,0,0,23.19.5,12.12,12.12,0,0,1-1.75,3.2A3.4,3.4,0,0,1,91,153.56a3.58,3.58,0,0,1-3.25-2.33h0l-4-10.92" transform="translate(-50.61 -114.38)"/><path class="cls-8" d="M102.9,114.5a14,14,0,0,0-12.67,8.12c-.06.12-.43,1-.43,1l-6,16.63,4,10.92h0A3.58,3.58,0,0,0,91,153.56a3.37,3.37,0,0,0,2.52-1.15,11.87,11.87,0,0,0,1.76-3.2l.49-1.25,6.93-19.2L104,125a6.5,6.5,0,0,1,6.19-4.34c3.66,0,5.09,1.45,5.09,1.45A14,14,0,0,0,102.9,114.5Z" transform="translate(-50.61 -114.38)"/><path class="cls-6" d="M71.65,120.64a7.12,7.12,0,0,1,6.64,4.59s0,0,0,0L78,124.3c-.14-.41-.3-.81-.46-1.21a3.9,3.9,0,0,0-.2-.47,13.94,13.94,0,0,0-26.61,5.82V163.3a6.93,6.93,0,1,0,13.86,0V127.74A7.1,7.1,0,0,1,71.65,120.64Z" transform="translate(-50.61 -114.38)"/><path class="cls-9" d="M92.22,153.93" transform="translate(-50.61 -114.38)"/><path class="cls-10" d="M57.62,170.35a7,7,0,0,1-7-7V128.44c0-.08-.25-8.86,8.14-12.72a13.52,13.52,0,0,1,11.06-.31,14.1,14.1,0,0,1,7.76,7.65l.69,1.9a2.44,2.44,0,0,1,.1.24l5.48,15.07h0l-.15.06L78.12,125a7,7,0,0,0-13.49,2.73V163.3A7,7,0,0,1,57.62,170.35Zm7-55.81a13.77,13.77,0,0,0-5.82,1.32c-8.3,3.82-8,12.49-8,12.58V163.3a6.85,6.85,0,1,0,13.7,0V127.74a7.18,7.18,0,0,1,13.24-3.84l-.28-.78a14,14,0,0,0-7.68-7.56A13.42,13.42,0,0,0,64.64,114.54Z" transform="translate(-50.61 -114.38)"/><path class="cls-11" d="M71.65,120.64a7.12,7.12,0,0,1,6.65,4.59h0l-.56-1.56s-.38-.93-.44-1a13.94,13.94,0,0,0-26.61,5.82V163.3a6.93,6.93,0,1,0,13.86,0V127.74A7.1,7.1,0,0,1,71.65,120.64Z" transform="translate(-50.61 -114.38)"/><path class="cls-12" d="M108.26,142.57a32.91,32.91,0,0,1,7-20.38.07.07,0,0,0,0-.1,7.78,7.78,0,0,0-5.07-1.45A6.5,6.5,0,0,0,104,125l-.51,1.44-.53,1.52V163.3a6.92,6.92,0,0,0,13.72,1.33A32.92,32.92,0,0,1,108.26,142.57Z" transform="translate(-50.61 -114.38)"/><path class="cls-13" d="M108.26,142.57a32.9,32.9,0,0,1,7-20.39.07.07,0,0,0,0-.1,8,8,0,0,0-5.07-1.44A6.5,6.5,0,0,0,104,125s-.89,2.52-1,3V163.3a6.92,6.92,0,0,0,13.72,1.33A32.92,32.92,0,0,1,108.26,142.57Z" transform="translate(-50.61 -114.38)"/><path class="cls-10" d="M91,153.63a3.66,3.66,0,0,1-3.32-2.35h0v0l-4-10.93.15,0s2.9,8,4,10.91h0v0A3.51,3.51,0,0,0,91,153.48h0a3.24,3.24,0,0,0,2.47-1.12,12.06,12.06,0,0,0,1.74-3.17l.15.05a12.46,12.46,0,0,1-1.77,3.22A3.47,3.47,0,0,1,91,153.63Z" transform="translate(-50.61 -114.38)"/><path class="cls-14" d="M102.9,114.5a14,14,0,0,0-12.67,8.12c-.06.12-.43,1-.43,1l-6,16.63,4,10.92h0A3.58,3.58,0,0,0,91,153.56a3.37,3.37,0,0,0,2.52-1.15,11.87,11.87,0,0,0,1.76-3.2l.49-1.25,6.93-19.2L104,125a6.5,6.5,0,0,1,6.19-4.34c3.66,0,5.09,1.45,5.09,1.45A14,14,0,0,0,102.9,114.5Z" transform="translate(-50.61 -114.38)"/><path class="cls-10" d="M95.27,149.29h0a.09.09,0,0,1,0-.1L104,125a6.61,6.61,0,0,1,6.26-4.4s3.16-.1,5,1.43l0,.1c0,.06,0,.08,0,.13l0,0c-1.83-1.56-5-1.46-5-1.46a6.45,6.45,0,0,0-6.11,4.29l-8.76,24.23A.08.08,0,0,1,95.27,149.29Z" transform="translate(-50.61 -114.38)"/><path class="cls-6" d="M174.4,142.57a32.9,32.9,0,0,0-7.05-20.39.08.08,0,0,1,0-.08,13.94,13.94,0,0,1,25.08.52c.06.12.44,1,.44,1l6,16.64,6-16.63s.38-.93.44-1a13.93,13.93,0,0,1,13.53-8.09c7.45.45,13.07,7,13.07,14.45V163.3a6.93,6.93,0,1,1-13.85,0V127.92l-7.53,20.79a12.21,12.21,0,0,1-23.2.5s-.43-1.1-.48-1.25l-7.17-19.86a.94.94,0,0,1-.06-.18V163.3a6.93,6.93,0,0,1-13.73,1.33A32.88,32.88,0,0,0,174.4,142.57Z" transform="translate(-50.61 -114.38)"/><path class="cls-15" d="M198.89,140.3l5.46-15.07h0a7.11,7.11,0,0,1,13.76,2.51v.18h0l-7.53,20.79a12.21,12.21,0,0,1-23.2.5,12.15,12.15,0,0,0,1.76,3.2,3.4,3.4,0,0,0,2.52,1.15,3.59,3.59,0,0,0,3.26-2.33h0l4-10.92" transform="translate(-50.61 -114.38)"/><path class="cls-16" d="M179.76,114.5a13.93,13.93,0,0,1,12.66,8.12c.06.12.44,1,.44,1l6,16.63-4,10.92h0a3.59,3.59,0,0,1-3.26,2.33,3.39,3.39,0,0,1-2.52-1.15,12.15,12.15,0,0,1-1.76-3.2s-.43-1.1-.48-1.25L180,128.76,178.63,125a6.51,6.51,0,0,0-6.19-4.34c-3.66,0-5.09,1.45-5.09,1.45A14,14,0,0,1,179.76,114.5Z" transform="translate(-50.61 -114.38)"/><path class="cls-6" d="M211,120.64a7.1,7.1,0,0,0-6.64,4.59s0,0,0,0l.34-.93c.15-.41.3-.81.47-1.21a3.9,3.9,0,0,1,.2-.47,13.94,13.94,0,0,1,26.6,5.82V163.3a6.93,6.93,0,1,1-13.85,0V127.74A7.1,7.1,0,0,0,211,120.64Z" transform="translate(-50.61 -114.38)"/><path class="cls-9" d="M190.44,153.93" transform="translate(-50.61 -114.38)"/><path class="cls-10" d="M218,163.3V127.74A7,7,0,0,0,204.54,125L199,140.33l-.14-.06h0l5.49-15.07.09-.24.69-1.9a14.15,14.15,0,0,1,7.77-7.65,13.52,13.52,0,0,1,11.06.31c8.39,3.86,8.14,12.64,8.13,12.72V163.3a7,7,0,1,1-14,0Zm-5.12-47.74a14,14,0,0,0-7.68,7.56l-.29.78a7.18,7.18,0,0,1,13.25,3.84V163.3a6.85,6.85,0,1,0,13.69,0V128.44c0-.09.26-8.76-8-12.58a13.77,13.77,0,0,0-5.82-1.32A13.38,13.38,0,0,0,212.91,115.56Z" transform="translate(-50.61 -114.38)"/><path class="cls-17" d="M211,120.64a7.13,7.13,0,0,0-6.66,4.59h0l.57-1.56s.38-.93.44-1a13.94,13.94,0,0,1,26.6,5.82V163.3a6.93,6.93,0,1,1-13.85,0V127.74A7.1,7.1,0,0,0,211,120.64Z" transform="translate(-50.61 -114.38)"/><path class="cls-12" d="M174.4,142.57a32.85,32.85,0,0,0-7.05-20.38.08.08,0,0,1,0-.1,7.81,7.81,0,0,1,5.08-1.45,6.51,6.51,0,0,1,6.19,4.34l.5,1.44c.19.52.39,1.08.54,1.52V163.3a6.93,6.93,0,0,1-13.73,1.33A32.88,32.88,0,0,0,174.4,142.57Z" transform="translate(-50.61 -114.38)"/><path class="cls-18" d="M174.4,142.57a32.9,32.9,0,0,0-7.05-20.39.08.08,0,0,1,0-.1,8,8,0,0,1,5.08-1.44,6.51,6.51,0,0,1,6.19,4.34s.89,2.52,1,3V163.3a6.93,6.93,0,0,1-13.73,1.33A32.88,32.88,0,0,0,174.4,142.57Z" transform="translate(-50.61 -114.38)"/><path class="cls-10" d="M191.67,153.63a3.63,3.63,0,0,0,3.31-2.35h0v0l4-10.93-.15,0-3.95,10.91h0v0a3.48,3.48,0,0,1-3.17,2.27h0a3.23,3.23,0,0,1-2.46-1.12,12.06,12.06,0,0,1-1.74-3.17l-.15.05a11.89,11.89,0,0,0,1.77,3.22,3.46,3.46,0,0,0,2.58,1.17Z" transform="translate(-50.61 -114.38)"/><path class="cls-19" d="M179.76,114.5a13.93,13.93,0,0,1,12.66,8.12c.06.12.44,1,.44,1l6,16.63-4,10.92h0a3.59,3.59,0,0,1-3.26,2.33,3.39,3.39,0,0,1-2.52-1.15,12.15,12.15,0,0,1-1.76-3.2s-.43-1.1-.48-1.25L180,128.76,178.63,125a6.51,6.51,0,0,0-6.19-4.34c-3.66,0-5.09,1.45-5.09,1.45A14,14,0,0,1,179.76,114.5Z" transform="translate(-50.61 -114.38)"/><path class="cls-10" d="M187.38,149.29h0a.09.09,0,0,0,.05-.1L178.7,125a6.62,6.62,0,0,0-6.26-4.4s-3.16-.1-5,1.43l-.05.1c0,.06,0,.08,0,.13l0,0c1.82-1.56,5-1.46,5-1.46a6.45,6.45,0,0,1,6.11,4.29l8.76,24.23A.08.08,0,0,0,187.38,149.29Z" transform="translate(-50.61 -114.38)"/></g></g></svg>