<svg width="328" height="102" viewBox="0 0 328 102" fill="none" xmlns="http://www.w3.org/2000/svg">
<g clip-path="url(#clip0_148_658)">
<path fill-rule="evenodd" clip-rule="evenodd" d="M175.832 2.47667C185.18 6.575 193.115 13.334 198.648 21.9112C204.181 30.4884 207.066 40.5043 206.946 50.7104C206.946 73.6702 192.754 93.1408 173.066 100.029C171.982 100.408 172.253 101.204 173.482 101.095C198.196 98.7452 217.648 77.0509 217.648 50.4573C217.648 24.9484 199.75 3.83256 176.411 0.162609C176.257 0.119189 176.096 0.107069 175.938 0.126982C175.779 0.146895 175.626 0.19844 175.488 0.278538C175.35 0.358636 175.229 0.465658 175.133 0.593278C175.037 0.720897 174.968 0.866512 174.929 1.02148C174.89 1.17644 174.883 1.33762 174.908 1.49543C174.932 1.65324 174.989 1.80448 175.073 1.94019C175.157 2.0759 175.268 2.19332 175.398 2.28547C175.529 2.37762 175.676 2.44264 175.832 2.47667Z" fill="#39AA7C"/>
<path fill-rule="evenodd" clip-rule="evenodd" d="M189.229 20.682C189.171 20.6019 189.085 20.5464 188.988 20.5263C188.891 20.5063 188.79 20.5231 188.704 20.5735C186.662 21.7667 176.049 28.4558 170.174 47.1671C164.063 66.3847 174.657 89.471 176.176 92.5986C174.603 90.0134 165.329 75.7132 153.108 75.5143C140.887 75.3155 131.703 85.8915 124.941 85.0598C124.881 85.06 124.821 85.0781 124.771 85.1119C124.72 85.1457 124.681 85.1936 124.658 85.2497C124.635 85.3058 124.629 85.3674 124.641 85.427C124.652 85.4865 124.681 85.5412 124.724 85.5841C131.495 92.3941 140.343 96.7513 149.868 97.9661C159.394 99.181 169.052 97.184 177.315 92.2913C187.845 85.9488 195.461 75.7228 198.521 63.8175C200.57 56.4115 200.795 48.6194 199.177 41.1075C197.559 33.5956 194.146 26.5873 189.229 20.682Z" fill="#A03AC1"/>
<g style="mix-blend-mode:multiply">
<path fill-rule="evenodd" clip-rule="evenodd" d="M164.967 21.839C164.891 21.8023 164.805 21.7899 164.721 21.8035C164.637 21.8171 164.559 21.856 164.498 21.9151C164.437 21.9742 164.396 22.0505 164.379 22.1339C164.363 22.2172 164.373 22.3036 164.407 22.3814C169.252 33.0839 162.418 47.4202 163.015 59.4063C163.738 73.8692 170.065 82.2577 172.669 86.8135C172.669 86.8135 166.269 75.424 156.705 70.7416C149.149 66.8314 140.552 65.4018 132.136 66.6558C132.074 66.6676 132.016 66.6929 131.964 66.7297C131.913 66.7666 131.87 66.8143 131.839 66.8694C131.808 66.9245 131.79 66.9857 131.785 67.0488C131.78 67.1118 131.789 67.1752 131.811 67.2344C132.588 69.4038 135.68 77.7199 146.274 86.1988C158.079 95.6358 168.619 97.046 176.158 92.5987C176.158 92.5987 193.857 79.7628 194.851 59.334C196.099 34.0782 169.378 24.1711 164.967 21.839Z" fill="#CA69DE"/>
</g>
<path fill-rule="evenodd" clip-rule="evenodd" d="M139.603 95.3285C143.193 96.7425 146.957 97.6668 150.794 98.0765C146.932 97.6559 143.154 96.6627 139.585 95.1296C139.585 95.1296 139.603 95.2562 139.603 95.3285Z" fill="#46BC8C"/>
<path fill-rule="evenodd" clip-rule="evenodd" d="M182.702 19.5972C183.109 19.2921 183.441 18.8988 183.673 18.447C183.906 17.9951 184.033 17.4964 184.045 16.9884C184.058 16.4803 183.954 15.9761 183.744 15.5136C183.533 15.0511 183.22 14.6424 182.829 14.3182C174.66 7.55236 164.286 4.03199 153.686 4.42922C130.961 5.297 112.105 24.3157 110.695 48.1975C110.254 54.6408 111.111 61.1072 113.217 67.2127C115.322 73.3183 118.633 78.9386 122.953 83.74C122.988 83.7694 123.033 83.7855 123.079 83.7855C123.125 83.7855 123.17 83.7694 123.206 83.74C123.231 83.7059 123.244 83.6648 123.244 83.6225C123.244 83.5803 123.231 83.5391 123.206 83.505C116.3 75.225 113.154 64.1971 113.859 52.1567C115.106 30.8782 131.323 13.4504 151.571 11.6607C161.44 10.7749 171.285 13.6051 179.177 19.5972C179.688 19.9717 180.306 20.1737 180.94 20.1737C181.574 20.1737 182.191 19.9717 182.702 19.5972Z" fill="#46BC8C"/>
<path d="M104.223 50.9635C104.182 37.6035 108.64 24.6186 116.878 14.1012C116.891 14.0792 116.898 14.0543 116.898 14.0289C116.898 14.0035 116.891 13.9786 116.878 13.9566C114.722 9.74356 111.425 6.22209 107.362 3.79476C103.3 1.36743 98.6359 0.132207 93.9043 0.23027C89.1728 0.328332 84.5644 1.75573 80.6058 4.34931C76.6472 6.94288 73.4983 10.598 71.519 14.8967C71.4105 15.1136 70.7416 16.7045 70.7416 16.7045L59.8944 46.7873L49.0473 16.7226C49.0473 16.7226 48.3603 15.0413 48.2518 14.9148C46.127 10.2932 42.6533 6.42276 38.2876 3.81235C33.9218 1.20193 28.8683 -0.0262816 23.7915 0.289179C10.3229 1.10272 0.144653 12.9442 0.144653 26.4128V88.4404C0.144653 91.7632 1.46461 94.9499 3.81416 97.2994C6.1637 99.6489 9.35037 100.969 12.6731 100.969C15.9959 100.969 19.1825 99.6489 21.5321 97.2994C23.8816 94.9499 25.2016 91.7632 25.2016 88.4404V24.4783L38.8148 62.0638C40.1629 66.5167 42.8847 70.4293 46.5908 73.242C50.2969 76.0546 54.7975 77.6233 59.449 77.7236C64.1005 77.8239 68.6646 76.4507 72.4885 73.8004C76.3124 71.1501 79.2002 67.3584 80.739 62.9677L81.6249 60.7079L94.5873 24.8038C94.5873 24.5687 94.5872 24.4964 94.6957 24.4783V88.4404C94.6742 91.5642 95.8221 94.5831 97.9137 96.9033C100.005 99.2236 102.889 100.677 105.999 100.979C109.108 101.28 112.218 100.407 114.716 98.5321C117.214 96.6568 118.921 93.9147 119.5 90.8449C109.649 79.8988 104.206 65.6894 104.223 50.9635Z" fill="#2DAF80"/>
<path d="M59.9487 46.8598L50.0597 19.6153C48.9876 16.8148 46.97 14.4772 44.3563 13.0072C41.7425 11.5373 38.6971 11.0274 35.7471 11.5659C32.7971 12.1044 30.1282 13.6574 28.2024 15.956C26.2766 18.2547 25.2151 21.1543 25.2016 24.1531V24.4785L38.8148 62.0639C40.1724 66.5081 42.8979 70.4105 46.6031 73.2152C50.3082 76.0198 54.804 77.5836 59.4499 77.6838C64.0957 77.7839 68.6547 76.4154 72.4773 73.773C76.2999 71.1307 79.1911 67.3494 80.739 62.9678C79.9823 65.0448 78.9156 66.9952 77.5753 68.753C77.0044 69.3998 76.3036 69.9193 75.5187 70.2775C74.7338 70.6357 73.8822 70.8246 73.0195 70.832C71.7322 70.7941 70.4854 70.3731 69.4387 69.6227C68.3921 68.8723 67.5931 67.8267 67.1439 66.6197L59.9125 46.8779" fill="url(#paint0_linear_148_658)"/>
<path style="mix-blend-mode:multiply" opacity="0.6" d="M94.533 0.216797C89.7135 0.228969 84.9977 1.6169 80.9401 4.21739C76.8824 6.81789 73.6516 10.5228 71.6274 14.8966C71.5189 15.1136 70.85 16.7045 70.85 16.7045L60.0029 46.7692L67.2343 66.511C67.6602 67.7245 68.4379 68.7836 69.4683 69.5531C70.4987 70.3227 71.735 70.7679 73.0195 70.8318C73.8828 70.8278 74.7354 70.6404 75.5208 70.282C76.3063 69.9236 77.0065 69.4023 77.5753 68.7528C78.9279 67.0001 80.0013 65.0486 80.7571 62.9676L81.6429 60.7078L94.1714 25.9969L96.5216 19.1993C97.3359 16.8879 98.8524 14.8889 100.859 13.4821C102.866 12.0752 105.262 11.3309 107.712 11.3532C114.329 11.3532 116.914 13.9746 116.914 13.9746C114.8 9.85279 111.595 6.39029 107.648 3.96438C103.702 1.53847 99.1654 0.242192 94.533 0.216797Z" fill="url(#paint1_linear_148_658)"/>
<path d="M38.0374 11.3172C40.6431 11.3228 43.1857 12.1191 45.3291 13.6008C47.4725 15.0824 49.1157 17.1797 50.0416 19.6153L49.5173 17.934C49.2642 17.1928 48.975 16.4696 48.6857 15.7465C48.5839 15.4556 48.4631 15.1718 48.3241 14.8968C45.926 9.67015 41.8126 5.42084 36.6666 2.85425C31.5206 0.287663 25.6516 -0.441842 20.0339 0.786838C14.4161 2.01552 9.38757 5.12848 5.78288 9.60897C2.1782 14.0895 0.214226 19.668 0.216983 25.4185V88.4405C0.216983 91.7633 1.53694 94.9499 3.88649 97.2995C6.23603 99.649 9.4227 100.969 12.7455 100.969C16.0682 100.969 19.2549 99.649 21.6044 97.2995C23.954 94.9499 25.2739 91.7633 25.2739 88.4405V24.153C25.2739 20.7612 26.6163 17.5073 29.0078 15.1022C31.3994 12.6971 34.6457 11.3363 38.0374 11.3172Z" fill="#2DAF80"/>
<path d="M12.6731 101.186C9.31679 101.186 6.09794 99.8526 3.72467 97.4793C1.35139 95.106 0.0180923 91.8872 0.0180923 88.5309V25.4185C0.0180923 25.2739 -0.433875 9.40084 14.7341 2.42251C17.8389 0.924304 21.2255 0.0998376 24.6716 0.00324857C28.1176 -0.0933404 31.5451 0.540138 34.729 1.86207C37.868 3.12136 40.725 4.99272 43.1335 7.36713C45.5421 9.74154 47.454 12.5715 48.758 15.6922L50.0054 19.1271C50.0733 19.2684 50.1337 19.4133 50.1862 19.561L60.0933 46.8055L59.8221 46.9139L49.7342 19.1994C48.6281 16.4599 46.5982 14.1937 43.9965 12.7936C41.3949 11.3936 38.3853 10.948 35.4896 11.534C32.5938 12.12 29.9943 13.7008 28.1417 16.0022C26.2891 18.3037 25.3001 21.1808 25.3462 24.1349V88.4405C25.3581 90.1115 25.039 91.7683 24.4073 93.3153C23.7755 94.8623 22.8436 96.2689 21.6654 97.4538C20.4871 98.6388 19.0859 99.5787 17.5425 100.219C15.9991 100.86 14.3441 101.188 12.6731 101.186ZM25.3281 0.28923C21.6886 0.305979 18.097 1.12057 14.8064 2.6756C-0.198851 9.58163 0.343508 25.2558 0.343508 25.4185V88.4405C0.343508 90.0667 0.663829 91.6771 1.28617 93.1796C1.90852 94.6821 2.82071 96.0472 3.97065 97.1972C5.1206 98.3471 6.48578 99.2593 7.98826 99.8816C9.49073 100.504 11.1011 100.824 12.7274 100.824C14.3536 100.824 15.964 100.504 17.4664 99.8816C18.9689 99.2593 20.3341 98.3471 21.484 97.1972C22.634 96.0472 23.5462 94.6821 24.1685 93.1796C24.7909 91.6771 25.1112 90.0667 25.1112 88.4405V24.153C25.1154 21.3444 26.0305 18.6129 27.719 16.3686C29.4075 14.1243 31.7785 12.4882 34.4759 11.7058C37.1733 10.9235 40.0517 11.0371 42.6791 12.0297C45.3064 13.0223 47.5409 14.8403 49.0473 17.2108L48.5411 15.8007C47.2444 12.7183 45.3498 9.92338 42.9666 7.57748C40.5835 5.23159 37.7591 3.3812 34.6567 2.13324C31.7105 0.913917 28.5528 0.287307 25.3643 0.28923H25.3281Z" fill="#59B993"/>
<path opacity="0.3" d="M38.0374 11.3171C40.6461 11.3191 43.1927 12.1137 45.3397 13.5956C47.4867 15.0775 49.1327 17.1767 50.0597 19.6152L49.0473 16.795C49.0473 16.795 48.3603 15.1136 48.2518 14.9871C45.8537 9.76047 41.7402 5.51116 36.5943 2.94457C31.4483 0.377985 25.5793 -0.351506 19.9616 0.877174C14.3438 2.10585 9.31524 5.21881 5.71056 9.6993C2.10587 14.1798 0.1419 19.7583 0.144656 25.5089V88.4404C0.144656 91.7632 1.46462 94.9499 3.81416 97.2994C6.1637 99.649 9.35037 100.969 12.6731 100.969C15.9959 100.969 19.1825 99.649 21.5321 97.2994C23.8816 94.9499 25.2016 91.7632 25.2016 88.4404V24.1529C25.2016 20.7487 26.5539 17.4838 28.9611 15.0767C31.3683 12.6695 34.6331 11.3171 38.0374 11.3171Z" fill="url(#paint2_linear_148_658)"/>
<path d="M104.223 50.9635C104.187 37.61 108.645 24.6326 116.878 14.1193C116.89 14.1076 116.9 14.0935 116.906 14.078C116.913 14.0624 116.916 14.0458 116.916 14.0289C116.916 14.0121 116.913 13.9954 116.906 13.9799C116.9 13.9644 116.89 13.9503 116.878 13.9385C114.221 12.0244 110.98 11.0973 107.712 11.3171C105.257 11.2974 102.858 12.047 100.851 13.4607C98.8437 14.8744 97.3298 16.8813 96.5216 19.1994L95.5996 21.8027L94.6415 24.5507V88.4405C94.6199 91.5643 95.7678 94.5831 97.8595 96.9034C99.9511 99.2236 102.835 100.677 105.944 100.979C109.054 101.28 112.163 100.407 114.662 98.5322C117.16 96.6568 118.866 93.9147 119.445 90.8449C109.614 79.8908 104.191 65.6823 104.223 50.9635Z" fill="#10A477"/>
<path style="mix-blend-mode:multiply" opacity="0.3" d="M104.223 50.9635C104.182 37.6035 108.64 24.6186 116.878 14.1012C116.89 14.0894 116.9 14.0754 116.906 14.0599C116.913 14.0443 116.916 14.0277 116.916 14.0108C116.916 13.994 116.913 13.9773 116.906 13.9618C116.9 13.9463 116.89 13.9322 116.878 13.9204C114.205 12.0423 110.974 11.1247 107.712 11.3171C105.257 11.2974 102.858 12.047 100.851 13.4607C98.8438 14.8744 97.3298 16.8812 96.5217 19.1994C96.5217 19.1994 94.9127 23.7552 94.7138 24.623V88.4404C94.6922 91.5642 95.8402 94.5831 97.9318 96.9033C100.023 99.2236 102.908 100.677 106.017 100.979C109.126 101.28 112.236 100.407 114.734 98.5321C117.232 96.6568 118.939 93.9147 119.518 90.8449C109.66 79.9015 104.211 65.6918 104.223 50.9635Z" fill="url(#paint3_linear_148_658)"/>
<path d="M73.0195 70.9586C71.711 70.9235 70.4423 70.5011 69.3739 69.7449C68.3055 68.9886 67.4854 67.9325 67.0174 66.7101L59.7859 46.9502H60.0571C60.0571 46.9502 65.2999 61.4131 67.2886 66.6739C67.7453 67.831 68.532 68.8283 69.5509 69.5419C70.5698 70.2554 71.776 70.6538 73.0195 70.6874C73.8659 70.6926 74.7034 70.5142 75.4742 70.1647C76.2451 69.8151 76.9311 69.3027 77.4849 68.6626C78.8155 66.9212 79.876 64.9892 80.6306 62.9317L80.9018 63.0221C80.1287 65.11 79.0503 67.0717 77.7018 68.8434C77.1149 69.5065 76.3942 70.0377 75.5871 70.4023C74.7801 70.7669 73.905 70.9565 73.0195 70.9586Z" fill="#59B993"/>
<path opacity="0.5" d="M94.533 0.216797C89.7135 0.228969 84.9977 1.6169 80.9401 4.21739C76.8824 6.81789 73.6516 10.5228 71.6274 14.8966C71.5189 15.1136 70.85 16.7045 70.85 16.7045L60.0029 46.7692L67.2343 66.511C67.6602 67.7245 68.4379 68.7836 69.4683 69.5531C70.4987 70.3227 71.735 70.7679 73.0195 70.8318C73.8828 70.8278 74.7354 70.6404 75.5208 70.282C76.3063 69.9236 77.0065 69.4023 77.5753 68.7528C78.9279 67.0001 80.0013 65.0486 80.7571 62.9676L81.6429 60.7078L94.1714 25.9969L96.5216 19.1993C97.3359 16.8879 98.8524 14.8889 100.859 13.4821C102.866 12.0752 105.262 11.3309 107.712 11.3532C114.329 11.3532 116.914 13.9746 116.914 13.9746C114.8 9.85279 111.595 6.39029 107.648 3.96438C103.702 1.53847 99.1654 0.242192 94.533 0.216797Z" fill="url(#paint4_linear_148_658)"/>
<path d="M80.739 63.1123C80.7212 63.0856 80.7116 63.0541 80.7116 63.022C80.7116 62.9898 80.7212 62.9583 80.739 62.9316L96.5216 19.1994C97.3503 16.8637 98.8846 14.8433 100.912 13.4181C102.94 11.9929 105.36 11.2335 107.839 11.2448C107.839 11.2448 113.552 11.0641 116.878 13.8301V14.0109C116.878 14.1193 116.878 14.1555 116.878 14.2459C113.57 11.4256 107.839 11.6064 107.839 11.6064C105.421 11.5943 103.059 12.3342 101.08 13.7237C99.1007 15.1132 97.6026 17.0836 96.7928 19.3621L80.956 63.1666C80.9388 63.1794 80.919 63.1881 80.898 63.1923C80.8771 63.1965 80.8554 63.196 80.8347 63.1908C80.8139 63.1856 80.7946 63.1759 80.778 63.1623C80.7615 63.1487 80.7482 63.1317 80.739 63.1123Z" fill="#59B993"/>
<path d="M223.795 50.9636C223.811 37.5928 219.321 24.6069 211.05 14.1013C211.037 14.0793 211.03 14.0544 211.03 14.029C211.03 14.0036 211.037 13.9786 211.05 13.9567C213.202 9.74274 216.498 6.22004 220.559 3.79171C224.621 1.36338 229.284 0.127542 234.015 0.225632C238.746 0.323721 243.353 1.75178 247.31 4.34636C251.268 6.94095 254.414 10.5972 256.391 14.8968C256.499 15.1137 257.186 16.7046 257.186 16.7046L268.033 46.7874L278.88 16.7227C278.88 16.7227 279.567 15.0414 279.676 14.9148C281.799 10.2917 285.272 6.41983 289.638 3.80912C294.004 1.19841 299.059 -0.0287514 304.136 0.289244C317.605 1.10278 327.765 12.9443 327.765 26.4128V88.4405C327.829 90.1246 327.553 91.8043 326.952 93.3791C326.352 94.9538 325.44 96.3913 324.271 97.6054C323.102 98.8195 321.701 99.7854 320.15 100.445C318.599 101.105 316.931 101.445 315.246 101.445C313.56 101.445 311.892 101.105 310.341 100.445C308.791 99.7854 307.389 98.8195 306.22 97.6054C305.051 96.3913 304.139 94.9538 303.539 93.3791C302.939 91.8043 302.662 90.1246 302.726 88.4405V24.4784L289.113 62.0638C287.76 66.5145 285.035 70.424 281.328 73.234C277.62 76.044 273.12 77.611 268.469 77.7112C263.818 77.8114 259.255 76.4398 255.43 73.7921C251.605 71.1444 248.714 67.356 247.171 62.9678C247.171 62.9678 246.393 60.9791 246.303 60.7079L233.34 24.8038C233.293 24.6993 233.257 24.5903 233.232 24.4784V88.4405C233.229 91.5523 232.069 94.5516 229.976 96.8547C227.884 99.1578 225.009 100.6 221.912 100.9C218.814 101.2 215.716 100.336 213.22 98.4778C210.725 96.6192 209.01 93.8983 208.41 90.8449C218.306 79.9188 223.789 65.7052 223.795 50.9636Z" fill="#2DAF80"/>
<path d="M268.069 46.8596L277.94 19.6152C279.004 16.8026 281.021 14.4521 283.639 12.9727C286.257 11.4933 289.311 10.9786 292.269 11.5183C295.228 12.0579 297.903 13.6177 299.83 15.9262C301.757 18.2347 302.814 21.1457 302.816 24.1529V24.4783L289.203 62.0637C287.85 66.5144 285.125 70.4238 281.418 73.2339C277.711 76.0439 273.21 77.6109 268.56 77.7111C263.909 77.8113 259.345 76.4397 255.52 73.792C251.695 71.1443 248.805 67.3559 247.261 62.9676C248.024 65.0453 249.097 66.9957 250.443 68.7528C251.014 69.3997 251.714 69.9191 252.499 70.2773C253.284 70.6355 254.136 70.8244 254.999 70.8318C256.288 70.7951 257.538 70.3747 258.588 69.6244C259.638 68.8741 260.44 67.8279 260.892 66.6195L268.124 46.8777" fill="url(#paint5_linear_148_658)"/>
<path style="mix-blend-mode:multiply" opacity="0.6" d="M233.485 0.216797C238.305 0.216977 243.023 1.60024 247.08 4.20234C251.137 6.80445 254.362 10.5161 256.373 14.8966C256.481 15.1136 257.168 16.7045 257.168 16.7045L268.015 46.7692L260.784 66.511C260.331 67.7195 259.529 68.7657 258.479 69.516C257.43 70.2663 256.18 70.6866 254.89 70.7233C254.027 70.7171 253.175 70.5286 252.39 70.1704C251.605 69.8121 250.905 69.2921 250.334 68.6443C248.988 66.8872 247.916 64.9368 247.153 62.8591C247.153 62.8591 246.375 60.8705 246.285 60.5993L233.919 25.9969L231.442 19.1993C230.626 16.8894 229.109 14.8919 227.102 13.4854C225.096 12.0789 222.701 11.3336 220.252 11.3532C213.635 11.3532 211.05 13.9746 211.05 13.9746C213.168 9.84463 216.382 6.37677 220.339 3.95032C224.295 1.52387 228.843 0.232274 233.485 0.216797Z" fill="url(#paint6_linear_148_658)"/>
<path d="M289.963 11.3172C287.356 11.3178 284.811 12.1121 282.667 13.5944C280.522 15.0767 278.88 17.1768 277.958 19.6153C277.958 19.6153 277.958 19.6153 277.958 19.6153L278.573 17.934C278.844 17.1928 279.115 16.4696 279.423 15.7465C279.525 15.4556 279.645 15.1718 279.784 14.8968C282.188 9.68072 286.302 5.44229 291.444 2.88347C296.586 0.324655 302.448 -0.401039 308.058 0.826569C313.669 2.05418 318.692 5.16144 322.296 9.63375C325.899 14.1061 327.867 19.6751 327.873 25.4185V88.4405C327.937 90.1246 327.661 91.8043 327.061 93.3791C326.46 94.9539 325.548 96.3913 324.38 97.6054C323.211 98.8196 321.809 99.7854 320.258 100.445C318.707 101.105 317.039 101.445 315.354 101.445C313.669 101.445 312.001 101.105 310.45 100.445C308.899 99.7854 307.497 98.8196 306.328 97.6054C305.16 96.3913 304.248 94.9539 303.647 93.3791C303.047 91.8043 302.771 90.1246 302.835 88.4405V24.153C302.835 22.4644 302.501 20.7923 301.854 19.2326C301.207 17.6729 300.258 16.2563 299.062 15.0639C297.867 13.8715 296.447 12.9268 294.886 12.2839C293.324 11.641 291.651 11.3125 289.963 11.3172Z" fill="#2DAF80"/>
<path d="M302.618 88.4405V24.153C302.636 21.2212 301.636 18.3739 299.789 16.0975C297.941 13.8212 295.36 12.257 292.487 11.6721C289.614 11.0873 286.627 11.5181 284.037 12.891C281.446 14.2639 279.413 16.4937 278.284 19.1994L268.268 46.9139L268.015 46.8055L277.94 19.561L278.103 19.1271L279.35 15.6922C280.661 12.5725 282.577 9.7437 284.988 7.36972C287.4 4.99574 290.258 3.12373 293.398 1.86207C296.581 0.540138 300.009 -0.0933404 303.455 0.00324857C306.901 0.0998376 310.288 0.924304 313.393 2.42251C328.56 9.40084 328.108 25.2739 328.09 25.4185V88.4405C328.09 91.7968 326.757 95.0156 324.384 97.3889C322.011 99.7622 318.792 101.095 315.435 101.095C312.079 101.095 308.86 99.7622 306.487 97.3889C304.114 95.0156 302.78 91.7968 302.78 88.4405H302.618ZM293.361 2.13324C290.259 3.3812 287.435 5.23159 285.051 7.57748C282.668 9.92338 280.774 12.7183 279.477 15.8007L278.953 17.2108C280.456 14.8319 282.691 13.0058 285.322 12.0077C287.953 11.0095 290.837 10.8933 293.54 11.6766C296.242 12.4599 298.617 14.1002 300.307 16.3505C301.996 18.6007 302.909 21.3391 302.907 24.153V88.4405C302.843 90.1054 303.116 91.7659 303.709 93.3229C304.303 94.8798 305.204 96.301 306.359 97.5014C307.515 98.7018 308.9 99.6567 310.434 100.309C311.967 100.961 313.616 101.297 315.282 101.297C316.948 101.297 318.597 100.961 320.13 100.309C321.663 99.6567 323.049 98.7018 324.204 97.5014C325.359 96.301 326.261 94.8798 326.854 93.3229C327.447 91.7659 327.72 90.1054 327.657 88.4405V25.4185C327.657 25.2558 328.127 9.58163 313.194 2.6756C309.903 1.12057 306.311 0.305979 302.672 0.28923C299.495 0.290167 296.35 0.916758 293.416 2.13324H293.361Z" fill="#59B993"/>
<path opacity="0.3" d="M289.963 11.3172C287.351 11.318 284.802 12.1118 282.652 13.5936C280.502 15.0754 278.852 17.1753 277.922 19.6152L278.953 16.795C278.953 16.795 279.64 15.1137 279.748 14.9871C282.152 9.77104 286.266 5.53262 291.408 2.9738C296.55 0.414987 302.412 -0.310707 308.022 0.916901C313.633 2.14451 318.656 5.25177 322.26 9.72408C325.863 14.1964 327.831 19.7654 327.837 25.5089V88.4405C327.901 90.1246 327.625 91.8043 327.025 93.379C326.424 94.9538 325.512 96.3913 324.343 97.6054C323.175 98.8195 321.773 99.7853 320.222 100.445C318.671 101.105 317.003 101.445 315.318 101.445C313.633 101.445 311.965 101.105 310.414 100.445C308.863 99.7853 307.461 98.8195 306.292 97.6054C305.123 96.3913 304.211 94.9538 303.611 93.379C303.011 91.8043 302.734 90.1246 302.798 88.4405V24.153C302.798 20.7487 301.446 17.4839 299.039 15.0767C296.632 12.6695 293.367 11.3172 289.963 11.3172Z" fill="url(#paint7_linear_148_658)"/>
<path d="M223.795 50.9635C223.814 37.5977 219.323 24.6165 211.05 14.1193C211.029 14.0936 211.018 14.0617 211.018 14.0289C211.018 13.996 211.029 13.9641 211.05 13.9385C213.713 12.0244 216.961 11.0975 220.234 11.3171C222.683 11.2974 225.078 12.0428 227.084 13.4493C229.09 14.8558 230.608 16.8533 231.424 19.1632L232.328 21.7665C232.672 22.7066 233.033 23.719 233.304 24.5145V88.4404C233.302 91.5522 232.141 94.5515 230.048 96.8546C227.956 99.1577 225.081 100.6 221.984 100.9C218.887 101.2 215.788 100.336 213.293 98.4777C210.797 96.6191 209.082 93.8982 208.482 90.8448C218.352 79.9079 223.809 65.6955 223.795 50.9635Z" fill="#10A477"/>
<path style="mix-blend-mode:multiply" opacity="0.3" d="M223.795 50.9635C223.811 37.5928 219.321 24.6068 211.05 14.1012C211.029 14.0756 211.018 14.0437 211.018 14.0108C211.018 13.978 211.029 13.9461 211.05 13.9205C213.728 12.0383 216.966 11.1205 220.233 11.3171C222.683 11.2975 225.078 12.0429 227.084 13.4494C229.09 14.8559 230.608 16.8534 231.424 19.1633C231.424 19.1633 233.033 23.7191 233.232 24.5868V88.4404C233.229 91.5522 232.069 94.5516 229.976 96.8547C227.884 99.1578 225.009 100.6 221.912 100.9C218.814 101.2 215.716 100.336 213.22 98.4778C210.725 96.6191 209.01 93.8983 208.41 90.8449C218.306 79.9187 223.789 65.7051 223.795 50.9635Z" fill="url(#paint8_linear_148_658)"/>
<path d="M255.017 70.9586C256.324 70.9271 257.592 70.506 258.658 69.749C259.724 68.992 260.54 67.9338 261.001 66.7101L268.232 46.9502H267.961L260.82 66.6739C260.384 67.852 259.605 68.8724 258.583 69.6038C257.562 70.3352 256.345 70.7441 255.089 70.7778C254.245 70.7815 253.411 70.6025 252.643 70.253C251.876 69.9034 251.193 69.3917 250.642 68.753C249.311 67.0116 248.251 65.0796 247.496 63.0221L247.225 63.1124C247.983 65.207 249.063 67.1708 250.425 68.9338C251.009 69.5955 251.727 70.126 252.531 70.4906C253.334 70.8552 254.206 71.0454 255.089 71.0489L255.017 70.9586Z" fill="#59B993"/>
<path opacity="0.5" d="M233.485 0.216797C238.305 0.216977 243.023 1.60024 247.08 4.20234C251.137 6.80445 254.362 10.5161 256.373 14.8966C256.481 15.1136 257.168 16.7045 257.168 16.7045L268.015 46.7692L260.784 66.511C260.331 67.7195 259.529 68.7657 258.479 69.516C257.43 70.2663 256.18 70.6866 254.89 70.7233C254.027 70.7171 253.175 70.5286 252.39 70.1704C251.605 69.8121 250.905 69.2921 250.334 68.6443C248.988 66.8872 247.916 64.9368 247.153 62.8591C247.153 62.8591 246.375 60.8705 246.285 60.5993L233.919 25.9969L231.442 19.1993C230.626 16.8894 229.109 14.8919 227.102 13.4854C225.096 12.0789 222.701 11.3336 220.252 11.3532C213.635 11.3532 211.05 13.9746 211.05 13.9746C213.168 9.84463 216.382 6.37677 220.339 3.95032C224.295 1.52387 228.843 0.232274 233.485 0.216797Z" fill="url(#paint9_linear_148_658)"/>
<path d="M247.261 63.1123C247.294 63.0968 247.321 63.0705 247.338 63.0377C247.354 63.0049 247.359 62.9675 247.351 62.9316L231.569 19.1994C230.738 16.8651 229.203 14.8463 227.176 13.4215C225.149 11.9966 222.729 11.2361 220.252 11.2448C220.252 11.2448 214.539 11.0641 211.212 13.8301L211.122 14.0109C211.122 14.1193 211.122 14.1555 211.122 14.2459C214.412 11.4256 220.161 11.6064 220.161 11.6064C222.579 11.5943 224.941 12.3342 226.92 13.7237C228.899 15.1132 230.397 17.0836 231.207 19.3621L247.044 63.1666C247.061 63.1794 247.081 63.1881 247.102 63.1923C247.123 63.1965 247.145 63.196 247.165 63.1908C247.186 63.1856 247.205 63.1759 247.222 63.1623C247.239 63.1487 247.252 63.1317 247.261 63.1123Z" fill="#59B993"/>
</g>
<defs>
<linearGradient id="paint0_linear_148_658" x1="65.1191" y1="77.2499" x2="40.4961" y2="9.5998" gradientUnits="userSpaceOnUse">
<stop stop-color="white" stop-opacity="0"/>
<stop offset="0.99" stop-opacity="0.4"/>
</linearGradient>
<linearGradient id="paint1_linear_148_658" x1="99.3781" y1="0.361426" x2="73.5257" y2="71.3922" gradientUnits="userSpaceOnUse">
<stop stop-color="white" stop-opacity="0"/>
<stop offset="0.41" stop-color="#E8E8E7" stop-opacity="0"/>
<stop offset="1" stop-color="#525252"/>
</linearGradient>
<linearGradient id="paint2_linear_148_658" x1="11.0822" y1="100.951" x2="28.8173" y2="0.433826" gradientUnits="userSpaceOnUse">
<stop offset="0.79" stop-color="white" stop-opacity="0"/>
<stop offset="1" stop-color="white"/>
</linearGradient>
<linearGradient id="paint3_linear_148_658" x1="107.098" y1="101.041" x2="107.098" y2="11.3171" gradientUnits="userSpaceOnUse">
<stop stop-color="white"/>
<stop offset="0.68" stop-color="#E8E8E7"/>
<stop offset="1" stop-opacity="0.7"/>
</linearGradient>
<linearGradient id="paint4_linear_148_658" x1="93.8641" y1="-0.289403" x2="81.0644" y2="72.3323" gradientUnits="userSpaceOnUse">
<stop stop-color="white"/>
<stop offset="0.37" stop-color="white" stop-opacity="0"/>
</linearGradient>
<linearGradient id="paint5_linear_148_658" x1="262.899" y1="77.2497" x2="287.522" y2="9.59961" gradientUnits="userSpaceOnUse">
<stop stop-color="white" stop-opacity="0"/>
<stop offset="0.99" stop-opacity="0.4"/>
</linearGradient>
<linearGradient id="paint6_linear_148_658" x1="228.64" y1="0.361425" x2="254.492" y2="71.3922" gradientUnits="userSpaceOnUse">
<stop stop-color="white" stop-opacity="0"/>
<stop offset="0.41" stop-color="#E8E8E7" stop-opacity="0"/>
<stop offset="1" stop-color="#525252"/>
</linearGradient>
<linearGradient id="paint7_linear_148_658" x1="316.936" y1="100.951" x2="299.219" y2="0.433841" gradientUnits="userSpaceOnUse">
<stop offset="0.79" stop-color="white" stop-opacity="0"/>
<stop offset="1" stop-color="white"/>
</linearGradient>
<linearGradient id="paint8_linear_148_658" x1="220.92" y1="101.041" x2="220.92" y2="11.3171" gradientUnits="userSpaceOnUse">
<stop stop-color="white"/>
<stop offset="0.68" stop-color="#E8E8E7"/>
<stop offset="1" stop-opacity="0.7"/>
</linearGradient>
<linearGradient id="paint9_linear_148_658" x1="234.154" y1="-0.289404" x2="246.954" y2="72.3323" gradientUnits="userSpaceOnUse">
<stop stop-color="white"/>
<stop offset="0.37" stop-color="white" stop-opacity="0"/>
</linearGradient>
<clipPath id="clip0_148_658">
<rect width="328" height="101.186" fill="white"/>
</clipPath>
</defs>
</svg>
