<svg width="20" height="19" viewBox="0 0 20 19" fill="none" xmlns="http://www.w3.org/2000/svg">
<path d="M11.75 9.75C11.9 9.75 12.0377 9.69567 12.163 9.587C12.2877 9.479 12.3583 9.34167 12.375 9.175C12.4083 8.925 12.4917 8.71233 12.625 8.537C12.7583 8.36233 12.9667 8.14167 13.25 7.875C13.7167 7.425 14.0333 7.05 14.2 6.75C14.3667 6.45 14.45 6.09167 14.45 5.675C14.45 4.975 14.2 4.39167 13.7 3.925C13.2 3.45833 12.55 3.225 11.75 3.225C11.2333 3.225 10.7667 3.34567 10.35 3.587C9.93333 3.829 9.6 4.16667 9.35 4.6C9.26667 4.73333 9.254 4.875 9.312 5.025C9.37067 5.175 9.475 5.28333 9.625 5.35C9.75833 5.4 9.904 5.4 10.062 5.35C10.2207 5.3 10.35 5.2 10.45 5.05C10.6 4.81667 10.7877 4.64167 11.013 4.525C11.2377 4.40833 11.4833 4.35 11.75 4.35C12.1833 4.35 12.5417 4.479 12.825 4.737C13.1083 4.99567 13.25 5.33333 13.25 5.75C13.25 6 13.1793 6.23733 13.038 6.462C12.896 6.68733 12.65 6.95833 12.3 7.275C11.9 7.625 11.621 7.925 11.463 8.175C11.3043 8.425 11.2083 8.75833 11.175 9.175C11.1583 9.325 11.2083 9.45833 11.325 9.575C11.4417 9.69167 11.5833 9.75 11.75 9.75ZM11.75 12.775C12 12.775 12.2167 12.6833 12.4 12.5C12.5833 12.3167 12.675 12.1 12.675 11.85C12.675 11.6 12.5833 11.3873 12.4 11.212C12.2167 11.0373 12 10.95 11.75 10.95C11.5 10.95 11.2833 11.0373 11.1 11.212C10.9167 11.3873 10.825 11.6 10.825 11.85C10.825 12.1 10.9167 12.3167 11.1 12.5C11.2833 12.6833 11.5 12.775 11.75 12.775ZM6.05 15.5C5.55 15.5 5.125 15.325 4.775 14.975C4.425 14.625 4.25 14.2 4.25 13.7V2.3C4.25 1.8 4.425 1.375 4.775 1.025C5.125 0.675 5.55 0.5 6.05 0.5H17.45C17.95 0.5 18.375 0.675 18.725 1.025C19.075 1.375 19.25 1.8 19.25 2.3V13.7C19.25 14.2 19.075 14.625 18.725 14.975C18.375 15.325 17.95 15.5 17.45 15.5H6.05ZM6.05 14H17.45C17.5333 14 17.6043 13.9707 17.663 13.912C17.721 13.854 17.75 13.7833 17.75 13.7V2.3C17.75 2.21667 17.721 2.14567 17.663 2.087C17.6043 2.029 17.5333 2 17.45 2H6.05C5.96667 2 5.896 2.029 5.838 2.087C5.77933 2.14567 5.75 2.21667 5.75 2.3V13.7C5.75 13.7833 5.77933 13.854 5.838 13.912C5.896 13.9707 5.96667 14 6.05 14ZM2.55 19C2.05 19 1.625 18.825 1.275 18.475C0.925 18.125 0.75 17.7 0.75 17.2V5.05C0.75 4.85 0.821 4.675 0.963 4.525C1.10433 4.375 1.28333 4.3 1.5 4.3C1.71667 4.3 1.89567 4.375 2.037 4.525C2.179 4.675 2.25 4.85 2.25 5.05V17.2C2.25 17.2833 2.27933 17.3543 2.338 17.413C2.396 17.471 2.46667 17.5 2.55 17.5H14.7C14.9 17.5 15.075 17.5707 15.225 17.712C15.375 17.854 15.45 18.0333 15.45 18.25C15.45 18.4667 15.375 18.646 15.225 18.788C15.075 18.9293 14.9 19 14.7 19H2.55ZM5.75 2C5.75 2 5.75 2.029 5.75 2.087C5.75 2.14567 5.75 2.21667 5.75 2.3V13.7C5.75 13.7833 5.75 13.854 5.75 13.912C5.75 13.9707 5.75 14 5.75 14C5.75 14 5.75 13.9707 5.75 13.912C5.75 13.854 5.75 13.7833 5.75 13.7V2.3C5.75 2.21667 5.75 2.14567 5.75 2.087C5.75 2.029 5.75 2 5.75 2Z" fill="#404040"/>
</svg>
