<svg width="22" height="16" viewBox="0 0 22 16" fill="none" xmlns="http://www.w3.org/2000/svg">
<path d="M1.69999 15.3C1.44999 15.3 1.23732 15.2167 1.06199 15.05C0.887321 14.8833 0.799988 14.6667 0.799988 14.4V13.075C0.799988 12.5583 0.933321 12.1 1.19999 11.7C1.46665 11.3 1.82499 10.9833 2.27499 10.75C3.22499 10.3 4.17932 9.94601 5.13799 9.68801C6.09599 9.42935 7.14999 9.30001 8.29999 9.30001C9.44999 9.30001 10.5043 9.42935 11.463 9.68801C12.421 9.94601 13.375 10.3 14.325 10.75C14.775 10.9833 15.1333 11.3 15.4 11.7C15.6667 12.1 15.8 12.5583 15.8 13.075V14.4C15.8 14.6667 15.7127 14.8833 15.538 15.05C15.3627 15.2167 15.15 15.3 14.9 15.3H1.69999ZM17.4 15.3C17.5333 15.2 17.6333 15.071 17.7 14.913C17.7667 14.7543 17.8 14.5833 17.8 14.4V12.95C17.8 12.3 17.6373 11.679 17.312 11.087C16.9873 10.4957 16.5333 9.98335 15.95 9.55001C16.6167 9.65001 17.25 9.80401 17.85 10.012C18.45 10.2207 19.025 10.4667 19.575 10.75C20.0917 11.0333 20.4917 11.3627 20.775 11.738C21.0583 12.1127 21.2 12.5167 21.2 12.95V14.4C21.2 14.6667 21.1127 14.8833 20.938 15.05C20.7627 15.2167 20.55 15.3 20.3 15.3H17.4ZM8.29999 7.70001C7.33332 7.70001 6.50832 7.35401 5.82499 6.66201C5.14165 5.97068 4.79999 5.15001 4.79999 4.20001C4.79999 3.23335 5.14165 2.40835 5.82499 1.72501C6.50832 1.04168 7.33332 0.700012 8.29999 0.700012C9.26665 0.700012 10.0917 1.04168 10.775 1.72501C11.4583 2.40835 11.8 3.23335 11.8 4.20001C11.8 5.15001 11.4583 5.97068 10.775 6.66201C10.0917 7.35401 9.26665 7.70001 8.29999 7.70001ZM16.925 4.20001C16.925 5.15001 16.5833 5.97068 15.9 6.66201C15.2167 7.35401 14.3917 7.70001 13.425 7.70001C13.325 7.70001 13.1873 7.68735 13.012 7.66201C12.8373 7.63735 12.6917 7.60835 12.575 7.57501C12.975 7.09168 13.2793 6.56268 13.488 5.98801C13.696 5.41268 13.8 4.81668 13.8 4.20001C13.8 3.56668 13.6917 2.96668 13.475 2.40001C13.2583 1.83335 12.9583 1.30835 12.575 0.825012C12.7083 0.775012 12.85 0.741679 13 0.725012C13.15 0.708346 13.2917 0.700012 13.425 0.700012C14.3917 0.700012 15.2167 1.04168 15.9 1.72501C16.5833 2.40835 16.925 3.23335 16.925 4.20001ZM2.29999 13.8H14.3V13.075C14.3 12.875 14.246 12.6917 14.138 12.525C14.0293 12.3583 13.8667 12.2167 13.65 12.1C12.8167 11.6833 11.9667 11.3623 11.1 11.137C10.2333 10.9123 9.29999 10.8 8.29999 10.8C7.29999 10.8 6.36265 10.9123 5.48799 11.137C4.61265 11.3623 3.76665 11.6833 2.94999 12.1C2.71665 12.2167 2.54999 12.3583 2.44999 12.525C2.34999 12.6917 2.29999 12.875 2.29999 13.075V13.8ZM8.29999 6.20001C8.84999 6.20001 9.32099 6.00401 9.71299 5.61201C10.1043 5.22068 10.3 4.75001 10.3 4.20001C10.3 3.65001 10.1043 3.17901 9.71299 2.78701C9.32099 2.39568 8.84999 2.20001 8.29999 2.20001C7.74999 2.20001 7.27932 2.39568 6.88799 2.78701C6.49599 3.17901 6.29999 3.65001 6.29999 4.20001C6.29999 4.75001 6.49599 5.22068 6.88799 5.61201C7.27932 6.00401 7.74999 6.20001 8.29999 6.20001Z" fill="#404040"/>
</svg>
