<svg width="21" height="21" viewBox="0 0 21 21" fill="none" xmlns="http://www.w3.org/2000/svg">
<path d="M2.68961 10.5004C2.68961 11.315 2.81739 12.1094 3.07294 12.8838C3.3285 13.6587 3.69586 14.3816 4.17502 15.0525L15.0521 4.17539C14.3813 3.69622 13.6587 3.32886 12.8844 3.07331C12.1094 2.81775 11.3146 2.68997 10.5 2.68997C8.3278 2.68997 6.48301 3.44865 4.96565 4.96602C3.44829 6.48338 2.68961 8.32817 2.68961 10.5004ZM5.94794 16.8254C6.61877 17.3046 7.34168 17.6719 8.11665 17.9275C8.89098 18.183 9.68544 18.3108 10.5 18.3108C12.6722 18.3108 14.517 17.5521 16.0344 16.0348C17.5518 14.5174 18.3104 12.6726 18.3104 10.5004C18.3104 9.68581 18.1827 8.89103 17.9271 8.11606C17.6716 7.34172 17.3042 6.61914 16.825 5.94831L5.94794 16.8254ZM0.150024 10.5004C0.150024 9.06289 0.421552 7.71707 0.964608 6.46293C1.50766 5.20943 2.24654 4.11534 3.18123 3.18064C4.11529 2.24659 5.20907 1.50803 6.46257 0.964974C7.71671 0.421918 9.06252 0.150391 10.5 0.150391C11.9375 0.150391 13.283 0.421918 14.5365 0.964974C15.7907 1.50803 16.8851 2.24659 17.8198 3.18064C18.7538 4.11534 19.4924 5.20943 20.0354 6.46293C20.5785 7.71707 20.85 9.06289 20.85 10.5004C20.85 11.9379 20.5785 13.2834 20.0354 14.5369C19.4924 15.791 18.7538 16.8854 17.8198 17.8201C16.8851 18.7542 15.7907 19.4928 14.5365 20.0358C13.283 20.5789 11.9375 20.8504 10.5 20.8504C9.06252 20.8504 7.71671 20.5789 6.46257 20.0358C5.20907 19.4928 4.11529 18.7542 3.18123 17.8201C2.24654 16.8854 1.50766 15.791 0.964608 14.5369C0.421552 13.2834 0.150024 11.9379 0.150024 10.5004Z" fill="#DB0049"/>
</svg>
