<svg width="48" height="48" viewBox="0 0 48 48" fill="none" xmlns="http://www.w3.org/2000/svg">
<path d="M5.9 30.7C5.13333 30.7 4.45833 30.4083 3.875 29.825C3.29167 29.2417 3 28.5833 3 27.85V24.5C3 24.2 3.03333 23.85 3.1 23.45C3.16667 23.05 3.26667 22.7 3.4 22.4L9 9.4C9.26667 8.73333 9.73333 8.16667 10.4 7.7C11.0667 7.23333 11.7667 7 12.5 7H31.9C32.6667 7 33.3333 7.28333 33.9 7.85C34.4667 8.41667 34.75 9.1 34.75 9.9V29.55C34.75 29.9167 34.675 30.275 34.525 30.625C34.375 30.975 34.1833 31.2833 33.95 31.55L23.7 42.1C23.3333 42.5 22.9 42.7417 22.4 42.825C21.9 42.9083 21.4333 42.8333 21 42.6C20.5667 42.3333 20.25 41.9667 20.05 41.5C19.85 41.0333 19.8 40.5333 19.9 40L21.8 30.7H5.9ZM40.25 7C40.9833 7 41.625 7.275 42.175 7.825C42.725 8.375 43 9.01667 43 9.75V27.9C43 28.6667 42.725 29.325 42.175 29.875C41.625 30.425 40.9833 30.7 40.25 30.7H39.8C39.0333 30.7 38.3833 30.425 37.85 29.875C37.3167 29.325 37.05 28.6667 37.05 27.9V9.75C37.05 8.98333 37.3167 8.33333 37.85 7.8C38.3833 7.26667 39.0333 7 39.8 7H40.25Z" fill="white"/>
</svg>
