<svg width="48" height="48" viewBox="0 0 48 48" fill="none" xmlns="http://www.w3.org/2000/svg">
<path d="M6.1002 30.7C5.3002 30.7 4.61686 30.4083 4.0502 29.825C3.48353 29.2417 3.2002 28.5833 3.2002 27.85V24.55C3.2002 24.3167 3.18353 24.0833 3.1502 23.85C3.11686 23.6167 3.1502 23.4 3.2502 23.2L9.20019 9.4C9.46686 8.73333 9.93353 8.16667 10.6002 7.7C11.2669 7.23333 11.9669 7 12.7002 7H33.8502V30.7L22.8002 42.25C22.4335 42.6167 22.0085 42.8417 21.5252 42.925C21.0419 43.0083 20.5835 42.9167 20.1502 42.65C19.7169 42.4167 19.4002 42.0667 19.2002 41.6C19.0002 41.1333 18.9502 40.65 19.0502 40.15L20.9502 30.7H6.1002ZM31.6002 29.75V9.25H12.2002C12.0669 9.25 11.9252 9.29167 11.7752 9.375C11.6252 9.45833 11.5169 9.58333 11.4502 9.75L5.4502 23.95V27.85C5.4502 28.0167 5.50853 28.1583 5.6252 28.275C5.74186 28.3917 5.9002 28.45 6.1002 28.45H23.7502L21.2502 40.45L31.6002 29.75ZM40.1502 7C40.9502 7 41.6335 7.28333 42.2002 7.85C42.7669 8.41667 43.0502 9.1 43.0502 9.9V27.85C43.0502 28.6167 42.7669 29.2833 42.2002 29.85C41.6335 30.4167 40.9502 30.7 40.1502 30.7H33.8502V28.45H40.1502C40.3169 28.45 40.4585 28.3917 40.5752 28.275C40.6919 28.1583 40.7502 28.0167 40.7502 27.85V9.9C40.7502 9.7 40.6919 9.54167 40.5752 9.425C40.4585 9.30833 40.3169 9.25 40.1502 9.25H33.8502V7H40.1502ZM31.6002 9.25V29.75V28.45C31.6002 28.45 31.6002 28.3917 31.6002 28.275C31.6002 28.1583 31.6002 28.0167 31.6002 27.85V23.95V9.75C31.6002 9.58333 31.6002 9.45833 31.6002 9.375C31.6002 9.29167 31.6002 9.25 31.6002 9.25Z" fill="#DB0049"/>
</svg>
