<svg width="48" height="48" viewBox="0 0 48 48" fill="none" xmlns="http://www.w3.org/2000/svg">
<path d="M16.1 41.0005C15.3333 41.0005 14.6667 40.7171 14.1 40.1505C13.5333 39.5838 13.25 38.9005 13.25 38.1005V18.4505C13.25 18.0838 13.325 17.7255 13.475 17.3755C13.625 17.0255 13.8167 16.7171 14.05 16.4505L24.3 5.90047C24.6667 5.50047 25.1 5.25881 25.6 5.17547C26.1 5.09214 26.5667 5.16714 27 5.40047C27.4333 5.66714 27.75 6.03381 27.95 6.50047C28.15 6.96714 28.2 7.46714 28.1 8.00047L26.2 17.3005H42.1C42.8667 17.3005 43.5417 17.5921 44.125 18.1755C44.7083 18.7588 45 19.4171 45 20.1505V23.5005C45 23.8005 44.9667 24.1505 44.9 24.5505C44.8333 24.9505 44.7333 25.3005 44.6 25.6005L39 38.6005C38.7333 39.2671 38.2667 39.8338 37.6 40.3005C36.9333 40.7671 36.2333 41.0005 35.5 41.0005H16.1ZM7.75 41.0005C7.01667 41.0005 6.375 40.7255 5.825 40.1755C5.275 39.6255 5 38.9838 5 38.2505V20.0505C5 19.3171 5.275 18.6755 5.825 18.1255C6.375 17.5755 7.01667 17.3005 7.75 17.3005H8.2C8.96667 17.3005 9.61667 17.5755 10.15 18.1255C10.6833 18.6755 10.95 19.3171 10.95 20.0505V38.2505C10.95 39.0171 10.6833 39.6671 10.15 40.2005C9.61667 40.7338 8.96667 41.0005 8.2 41.0005H7.75Z" fill="white"/>
</svg>
