<svg width="48" height="48" viewBox="0 0 48 48" fill="none" xmlns="http://www.w3.org/2000/svg">
<path d="M14.1502 40.9997V17.2997L25.2002 5.74968C25.5669 5.38302 25.9919 5.15802 26.4752 5.07468C26.9585 4.99135 27.4169 5.08302 27.8502 5.34968C28.2835 5.58302 28.6002 5.93302 28.8002 6.39968C29.0002 6.86635 29.0502 7.34968 28.9502 7.84968L27.0502 17.2997H41.9502C42.7169 17.2997 43.3919 17.5914 43.9752 18.1747C44.5585 18.758 44.8502 19.4164 44.8502 20.1497V23.4497C44.8502 23.683 44.8585 23.9163 44.8752 24.1497C44.8919 24.383 44.8502 24.5997 44.7502 24.7997L38.8502 38.5997C38.5502 39.2663 38.0669 39.833 37.4002 40.2997C36.7335 40.7663 36.0335 40.9997 35.3002 40.9997H14.1502ZM16.4002 18.2497V38.7497H35.8002C35.9335 38.7497 36.0752 38.708 36.2252 38.6247C36.3752 38.5414 36.4835 38.4164 36.5502 38.2497L42.5502 24.0497V20.1497C42.5502 19.983 42.4919 19.8414 42.3752 19.7247C42.2585 19.608 42.1169 19.5497 41.9502 19.5497H24.2502L26.7502 7.54968L16.4002 18.2497ZM7.8502 40.9997C7.0502 40.9997 6.36686 40.7164 5.8002 40.1497C5.23353 39.583 4.9502 38.8997 4.9502 38.0997V20.1497C4.9502 19.383 5.23353 18.7164 5.8002 18.1497C6.36686 17.583 7.0502 17.2997 7.8502 17.2997H14.1502V19.5497H7.8502C7.68353 19.5497 7.54186 19.608 7.4252 19.7247C7.30853 19.8414 7.2502 19.983 7.2502 20.1497V38.0997C7.2502 38.2997 7.30853 38.458 7.4252 38.5747C7.54186 38.6914 7.68353 38.7497 7.8502 38.7497H14.1502V40.9997H7.8502ZM16.4002 38.7497V18.2497V19.5497C16.4002 19.5497 16.4002 19.608 16.4002 19.7247C16.4002 19.8414 16.4002 19.983 16.4002 20.1497V24.0497V38.2497C16.4002 38.4164 16.4002 38.5414 16.4002 38.6247C16.4002 38.708 16.4002 38.7497 16.4002 38.7497Z" fill="#00AA7E"/>
</svg>
