<svg width="512" height="512" viewBox="0 0 512 512" fill="none" xmlns="http://www.w3.org/2000/svg">
<path d="M444.057 324.629H416.942V336.087H444.057V324.629Z" fill="#EBEBEB"/>
<path d="M428.933 339.076H401.818V350.535H428.933V339.076Z" fill="#EBEBEB"/>
<path d="M459.182 339.076H432.066V350.535H459.182V339.076Z" fill="#EBEBEB"/>
<path d="M95.0579 324.629H67.9424V336.087H95.0579V324.629Z" fill="#EBEBEB"/>
<path d="M79.9231 339.076H52.8076V350.535H79.9231V339.076Z" fill="#DBDBDB"/>
<path d="M266.987 233.227H239.872V244.685H266.987V233.227Z" fill="#EBEBEB"/>
<path d="M251.853 247.674H224.737V259.132H251.853V247.674Z" fill="#DBDBDB"/>
<path d="M382.853 117.688H355.738V129.146H382.853V117.688Z" fill="#DBDBDB"/>
<path d="M282.112 247.674H254.996V259.132H282.112V247.674Z" fill="#EBEBEB"/>
<path d="M442.491 56.5039H415.375V67.9625H442.491V56.5039Z" fill="#EBEBEB"/>
<path d="M457.615 70.9531H430.5V82.4117H457.615V70.9531Z" fill="#DBDBDB"/>
<path d="M79.9231 56.5137H52.8076V67.9722H79.9231V56.5137Z" fill="#EBEBEB"/>
<path d="M331.397 475.884C397.407 475.884 450.918 469.254 450.918 461.077C450.918 452.899 397.407 446.27 331.397 446.27C265.387 446.27 211.876 452.899 211.876 461.077C211.876 469.254 265.387 475.884 331.397 475.884Z" fill="#EBEBEB"/>
<path d="M70.3386 387.224C65.8535 387.378 60.8564 387.634 57.1495 384.726C53.7191 382.043 50.6574 378.049 51.1182 373.462C51.2513 372.151 51.5482 371.342 52.9511 371.895C55.0913 372.755 56.7297 375.11 58.2145 376.759C60.0946 378.918 62.1759 380.893 64.4302 382.657C66.0276 383.886 67.7377 384.941 69.3658 386.119L69.9802 386.579L70.2055 386.753H70.3386C70.3743 386.754 70.4095 386.762 70.4414 386.778C70.4733 386.794 70.5012 386.817 70.523 386.846C70.523 386.846 70.523 386.897 70.523 386.927C70.5321 386.959 70.5345 386.992 70.5299 387.025C70.5254 387.058 70.5141 387.089 70.4968 387.117C70.4794 387.145 70.4563 387.169 70.4291 387.187C70.4019 387.206 70.371 387.219 70.3386 387.224Z" fill="#37474F"/>
<path d="M70.5536 386.928C66.6215 386.856 62.3616 387.041 59.218 384.368C57.7669 383.084 56.5295 381.577 55.552 379.903C55.1015 379.166 53.7396 376.954 54.3028 376.074C55.3268 374.486 60.0167 380.968 60.672 381.593C63.1294 383.827 66.1253 385.383 69.3658 386.109L69.9802 386.57C67.6965 386.089 65.5046 385.246 63.488 384.071C60.6925 382.402 59.136 379.975 56.9447 377.63C56.4736 377.128 55.0503 375.459 54.5076 376.504C54.1594 377.19 55.5316 379.35 55.7568 379.811C56.6813 381.37 57.8342 382.782 59.177 383.999C62.3207 386.744 66.5498 386.641 70.5229 386.805C70.5332 386.877 70.5536 386.897 70.5536 386.928Z" fill="white"/>
<path d="M72.8064 389.959C72.8064 390.123 72.7348 390.297 72.6938 390.471C72.6906 390.492 72.6811 390.513 72.6666 390.529C72.652 390.545 72.633 390.557 72.6119 390.563C72.5681 390.578 72.5203 390.577 72.4771 390.56C72.4339 390.543 72.3982 390.512 72.3764 390.471C72.3665 390.454 72.3613 390.434 72.3613 390.414C72.3613 390.395 72.3665 390.375 72.3764 390.358C72.3719 390.338 72.3719 390.317 72.3764 390.297V390.143C72.3701 390.127 72.3701 390.108 72.3764 390.092C71.5776 387.132 71.2704 384.05 70.4308 381.081C69.5911 378.111 68.6388 375.469 68.0653 372.581C67.7069 370.759 66.4372 361.614 70.4615 362.761C72.2535 363.263 73.472 365.833 74.1479 367.39C75.0374 369.473 75.5405 371.701 75.6327 373.964C75.9808 379.534 73.9328 384.613 72.8064 389.959Z" fill="#37474F"/>
<path d="M74.0966 378.572C74.1802 376.484 73.963 374.394 73.4515 372.367C73.2672 371.671 72.4275 368.271 71.2602 368.384C70.5229 368.435 70.3898 369.889 70.3283 370.37C70.0723 372.418 70.7379 374.466 71.127 376.463C71.9227 380.489 72.419 384.569 72.6118 388.669C72.6118 388.925 72.5299 389.191 72.5094 389.447C72.489 389.703 72.448 389.877 72.4173 390.092C72.3866 390.307 72.4173 390.236 72.4173 390.318C72.4117 390.376 72.4117 390.434 72.4173 390.492C72.4391 390.533 72.4748 390.564 72.518 390.581C72.5612 390.598 72.609 390.599 72.6528 390.584C72.6528 390.41 72.6528 390.246 72.7245 390.082C72.7245 390.215 72.7245 390.348 72.7245 390.492C72.7245 390.338 72.7245 390.205 72.8064 390.062C72.8016 390.031 72.8016 390 72.8064 389.97C72.8064 389.734 72.8064 389.509 72.8064 389.283C73.4502 385.742 73.881 382.165 74.0966 378.572ZM72.7347 387.788C72.6221 385.392 72.3866 383.006 72.0486 380.62C71.7722 378.706 71.4138 376.811 71.0246 374.917C70.757 373.856 70.5857 372.773 70.5126 371.681C70.5126 370.851 70.5946 367.759 72.1818 369.633C73.3286 371.026 73.6051 373.975 73.7485 375.674C73.88 377.565 73.8423 379.464 73.6358 381.347C73.4106 383.549 73.0522 385.679 72.704 387.799L72.7347 387.788Z" fill="white"/>
<path d="M75.2229 402.246C75.1685 402.253 75.1135 402.253 75.0591 402.246C70.9631 402.041 65.5052 402.431 62.0953 399.717C59.5762 397.669 57.1084 393.757 57.9071 390.399C58.8082 386.62 63.918 391.156 65.2697 392.252C68.7986 395.317 72.1524 398.579 75.3151 402.021C75.3104 402.045 75.3104 402.069 75.3151 402.093C75.397 402.195 75.3151 402.226 75.2229 402.246Z" fill="#37474F"/>
<path d="M75.3561 402.134L74.6495 401.684C71.9871 399.997 69.3725 398.199 66.8057 396.287C66.1708 395.796 61.5628 391.689 60.8665 393.154C60.4466 394.045 61.9724 395.847 62.4537 396.461C63.3195 397.551 64.3571 398.491 65.5257 399.247C68.2597 400.946 71.5673 401.295 74.6597 402.134C74.8096 402.159 74.957 402.196 75.1001 402.247H75.1717C75.3151 402.226 75.397 402.196 75.3561 402.134ZM67.2562 399.8C65.9485 399.206 64.7506 398.396 63.7132 397.403C63.0271 396.758 60.6412 394.331 61.2556 393.307C61.5935 392.775 61.8802 393.051 62.5253 393.379C62.8278 393.524 63.1187 393.692 63.3957 393.881C64.0818 394.331 64.7167 394.854 65.3618 395.366C66.478 396.267 67.6249 397.137 68.7922 397.977C70.6969 399.342 72.6493 400.656 74.6495 401.919C72.1919 401.151 69.6319 400.854 67.2562 399.8Z" fill="white"/>
<path d="M82.7084 393.808C81.6405 398.512 79.1948 402.79 75.6838 406.096C75.6838 406.096 75.6838 406.096 75.6019 406.096C75.5647 406.109 75.5242 406.109 75.487 406.096C75.4498 406.083 75.4181 406.058 75.3971 406.025C75.3813 406.009 75.3687 405.991 75.3602 405.971C75.3516 405.951 75.3472 405.929 75.3472 405.907C75.3472 405.885 75.3516 405.863 75.3602 405.843C75.3687 405.823 75.3813 405.804 75.3971 405.789L75.6019 405.574C76.2777 400.004 77.0253 394.464 77.6499 388.883C77.783 387.562 78.8173 379.186 81.3977 380.548C82.9849 381.398 83.0873 384.828 83.2204 386.374C83.4316 388.864 83.2589 391.371 82.7084 393.808Z" fill="#37474F"/>
<path d="M81.2135 386.345C81.0804 385.874 80.8347 385.402 80.3124 385.73C79.2884 386.355 78.9198 390.287 78.7457 391.383C78.0596 395.878 76.9947 400.199 75.9195 404.592L75.643 405.708L75.3972 406.046C75.4194 406.078 75.4512 406.103 75.488 406.115C75.5248 406.128 75.5647 406.129 75.602 406.118C75.602 406.118 75.602 406.046 75.602 406.005C75.602 405.964 75.8273 405.708 75.9297 405.555C77.6969 403.148 79.0788 400.481 80.0257 397.65C80.6147 395.877 81.0163 394.048 81.2238 392.192C81.4183 390.41 81.7358 388.034 81.2135 386.345ZM75.9604 405.248L75.7761 405.504C75.7761 405.35 75.8683 405.207 75.9092 405.053C76.9705 401.699 77.8086 398.278 78.418 394.813C78.715 393.062 78.9095 391.29 79.2679 389.55C79.4215 388.812 79.7799 386.703 80.3943 386.365C81.0087 386.027 80.9883 386.846 81.0497 387.317C81.1111 387.788 81.0497 388.27 81.0497 388.597C81.1498 394.545 79.3686 400.372 75.9604 405.248Z" fill="white"/>
<path d="M76.3596 418.088H75.5404C75.5404 417.361 75.5404 416.644 75.5404 415.927C75.4482 413.019 75.3253 410.111 75.1512 407.192C75.0591 405.533 74.9362 403.885 74.7621 402.257C74.7621 402.205 74.7621 402.144 74.7621 402.093C74.7621 402.042 74.7621 401.827 74.7621 401.683C74.7621 401.54 74.7621 401.407 74.7109 401.253C74.3373 397.564 73.387 393.957 71.8949 390.563C71.3727 389.426 70.8095 388.32 70.2053 387.224C70.2053 387.122 70.0927 387.02 70.0312 386.917C70.0382 386.887 70.0382 386.855 70.0312 386.825L69.8572 386.497L69.7138 386.262C67.8194 382.924 65.6178 379.739 63.5698 376.524C62.9759 375.612 62.382 374.691 61.8085 373.759C61.7685 373.708 61.7341 373.653 61.7061 373.595C61.6559 373.531 61.6113 373.462 61.573 373.39C58.9925 369.294 56.453 365.198 53.7701 361.204C53.6575 361.061 53.9032 360.928 54.0056 361.071C55.8181 363.723 57.692 366.335 59.5557 368.966L60.293 369.99C60.7845 370.687 61.317 371.373 61.7573 372.038C62.7813 373.431 63.6927 374.813 64.6245 376.227C67.3903 380.135 69.9108 384.212 72.1714 388.433C72.3353 388.75 72.4888 389.068 72.6425 389.395C72.796 389.723 72.837 389.795 72.9189 389.999C73.0008 390.204 73.134 390.47 73.2364 390.706C74.909 394.81 75.8416 399.179 75.9909 403.608L76.0524 404.54C76.0524 404.673 76.0524 404.827 76.0524 404.97C76.0473 405.045 76.0473 405.121 76.0524 405.196C76.0524 405.298 76.0524 405.39 76.0524 405.503C76.0524 405.574 76.0524 405.646 76.0524 405.728V406.527C76.1752 409.435 76.2469 412.343 76.3084 415.251C76.2879 416.224 76.3288 417.156 76.3596 418.088Z" fill="#37474F"/>
<path d="M51.9065 365.362C49.664 362.342 46.7865 356.146 50.0941 352.89C50.6927 352.263 51.5026 351.881 52.367 351.816C53.2314 351.752 54.0889 352.011 54.7738 352.542C56.5248 353.801 57.303 356.187 57.8458 358.164C59.3613 363.448 60.3648 368.824 62.249 373.995C62.3301 374.175 62.4018 374.36 62.464 374.548C62.464 374.66 62.3309 374.701 62.2899 374.599C62.249 374.496 62.167 374.261 62.0953 374.097C58.5625 371.496 54.5587 368.936 51.9065 365.362Z" fill="#37474F"/>
<path d="M62.3105 374.005L62.2593 373.913C61.4971 372.656 60.8131 371.353 60.2113 370.012C58.9636 367.198 57.8865 364.312 56.9857 361.369C56.6273 360.243 55.0196 354.693 53.033 356.904C52.2036 357.836 52.3265 359.485 52.4494 360.621C52.678 362.449 53.2661 364.214 54.1799 365.813C56.0724 368.913 58.6117 371.567 61.6244 373.596L62.0238 373.893C62.0472 373.942 62.0746 373.99 62.1057 374.036C62.1023 374.066 62.1023 374.097 62.1057 374.128C62.1225 374.132 62.1401 374.132 62.1569 374.128C62.1737 374.134 62.1916 374.138 62.2095 374.137C62.2275 374.136 62.2452 374.132 62.2614 374.124C62.2777 374.117 62.2922 374.106 62.3042 374.092C62.3161 374.079 62.3252 374.063 62.331 374.046C62.3288 374.031 62.3216 374.016 62.3105 374.005ZM61.4401 373.391C59.026 371.613 56.8957 369.479 55.122 367.062C54.2332 365.773 53.5429 364.358 53.074 362.864C52.8657 362.195 52.715 361.51 52.6234 360.816C52.5463 360.301 52.5154 359.78 52.5313 359.26C52.5313 358.123 53.0433 356.884 53.7191 356.761C54.395 356.638 54.825 357.099 55.378 358.051C55.5609 358.383 55.725 358.725 55.8695 359.075C56.2256 359.932 56.5366 360.807 56.8014 361.697C57.2622 363.171 57.7332 364.625 58.2657 366.069C58.6241 367.093 59.003 368.025 59.4228 368.977C60.127 370.625 60.9483 372.219 61.8804 373.749C61.7265 373.639 61.5795 373.519 61.4401 373.391Z" fill="white"/>
<path d="M442.051 373.76C441.682 376.75 441.109 379.719 440.504 382.669C440.156 384.338 439.798 386.007 439.48 387.686C439.112 389.529 438.559 391.413 439.061 393.277C439.07 393.362 439.07 393.448 439.061 393.533C439.036 393.565 439.003 393.589 438.966 393.604C438.928 393.619 438.888 393.623 438.848 393.617C438.808 393.611 438.771 393.594 438.74 393.568C438.709 393.543 438.685 393.509 438.671 393.472V393.339C438.394 392.848 438.177 392.325 438.026 391.782C437.449 390.371 436.953 388.929 436.542 387.461C435.675 384.461 435.187 381.365 435.087 378.245C435.008 375.45 435.301 372.658 435.958 369.94C436.49 367.769 437.248 364.533 438.866 362.875C440.33 361.369 441.549 363.776 441.938 364.994C442.86 367.78 442.368 370.964 442.051 373.76Z" fill="#37474F"/>
<path d="M439.368 367.451C438.282 367.451 437.484 370.974 437.094 372.489C436.491 374.89 436.181 377.356 436.173 379.831C436.182 384.269 436.944 388.673 438.426 392.857C438.477 393.02 438.538 393.195 438.6 393.369V393.481C438.612 393.52 438.635 393.554 438.666 393.581C438.696 393.607 438.733 393.625 438.773 393.633C438.813 393.64 438.854 393.636 438.892 393.622C438.93 393.608 438.963 393.584 438.989 393.553C438.917 393.184 438.866 392.826 438.825 392.457C438.784 392.089 438.743 391.792 438.723 391.433C438.57 387.822 438.793 384.205 439.388 380.64C439.982 376.555 440.812 367.451 439.368 367.451ZM438.589 392.191C438.641 392.683 438.723 393.154 438.805 393.635C438.692 393.287 438.589 392.939 438.477 392.611C437.285 388.886 436.596 385.019 436.429 381.111C436.293 377.725 436.74 374.341 437.75 371.107C437.903 370.626 438.692 367.687 439.368 367.83C439.839 367.932 439.951 370.585 439.962 370.646C439.962 371.168 439.962 371.67 439.962 372.243C439.962 373.339 439.869 374.435 439.777 375.531C439.573 377.896 439.235 380.261 438.948 382.617C438.457 385.783 438.337 388.996 438.589 392.191Z" fill="white"/>
<path d="M456.12 382.075C455.178 381.122 452.372 383.467 451.676 384.02C449.581 385.722 447.642 387.607 445.88 389.652C442.866 392.82 440.368 396.441 438.477 400.384L438.385 400.507V400.701V400.763C438.367 400.784 438.358 400.811 438.358 400.839C438.358 400.867 438.367 400.894 438.385 400.916L438.528 400.752C438.876 400.322 439.245 399.913 439.613 399.503C439.673 399.43 439.738 399.361 439.808 399.298C442.528 396.564 445.421 394.009 448.471 391.649C450.56 389.962 452.49 388.087 454.236 386.048C454.656 385.495 456.919 382.873 456.12 382.075ZM455.25 384.123C452.884 388.034 448.799 390.901 445.327 393.758C442.933 395.626 440.724 397.722 438.733 400.015C440.573 396.515 442.873 393.278 445.573 390.389C447.048 388.688 448.617 387.071 450.273 385.546C451.17 384.718 452.125 383.954 453.13 383.262C453.732 382.845 454.382 382.502 455.066 382.238C456.387 381.87 455.68 383.488 455.25 384.164V384.123Z" fill="white"/>
<path d="M437.914 410.182C437.892 410.217 437.862 410.246 437.826 410.266C437.79 410.285 437.75 410.295 437.709 410.295L437.76 410.366C437.767 410.373 437.772 410.381 437.776 410.39C437.78 410.399 437.782 410.408 437.782 410.418C437.782 410.427 437.78 410.437 437.776 410.445C437.772 410.454 437.767 410.462 437.76 410.469C437.745 410.48 437.727 410.487 437.709 410.487C437.69 410.487 437.672 410.48 437.658 410.469C433.961 406.701 430.397 402.123 428.554 397.157C427.759 395.056 427.312 392.838 427.233 390.593C427.233 389.057 427.11 385.965 428.421 384.848C431.063 382.596 433.48 392.139 433.838 393.583C434.493 396.205 434.924 398.877 435.528 401.509C436.193 404.397 437.064 407.223 437.924 410.049C437.936 410.093 437.933 410.14 437.914 410.182Z" fill="#37474F"/>
<path d="M437.914 410.184C437.77 409.938 437.627 409.692 437.494 409.447C435.257 405.443 433.651 401.119 432.732 396.626C432.336 394.355 431.747 392.121 430.971 389.95C430.756 389.417 430.101 387.39 429.22 388.414C428.769 388.946 429.148 392.807 429.322 393.8C429.769 396.064 430.491 398.265 431.473 400.353C433.075 403.877 435.111 407.186 437.535 410.204L437.75 410.471C437.757 410.464 437.762 410.456 437.766 410.447C437.769 410.438 437.771 410.429 437.771 410.419C437.771 410.41 437.769 410.4 437.766 410.392C437.762 410.383 437.757 410.375 437.75 410.368L437.699 410.296C437.741 410.299 437.784 410.29 437.822 410.27C437.86 410.25 437.891 410.22 437.914 410.184ZM432.538 401.992C431.476 399.961 430.625 397.827 429.998 395.623C429.762 394.743 429.577 393.851 429.445 392.95C429.333 392.245 429.271 391.533 429.261 390.82C429.261 389.079 429.415 388.629 429.711 388.567C430.008 388.506 430.142 388.721 430.654 389.755C430.968 390.437 431.218 391.147 431.401 391.875C431.667 392.899 431.903 393.923 432.128 394.947C432.579 396.995 432.999 399.114 433.603 401.152C434.455 404.084 435.691 406.89 437.279 409.498C435.493 407.128 433.907 404.614 432.538 401.982V401.992Z" fill="white"/>
<path d="M449.782 401.028C449.345 402.865 448.518 404.587 447.355 406.076C445.153 409.148 442.347 411.636 439.951 414.503C439.593 414.923 439.245 415.364 438.927 415.814C438.927 415.865 438.61 416.49 438.62 416.439L438.733 415.783C439.112 413.735 440.381 407.714 441.948 404.612C442.896 402.649 444.075 400.806 445.46 399.123C446.136 398.355 447.734 396.696 448.932 397.075C450.13 397.454 449.966 400.065 449.782 401.028Z" fill="#37474F"/>
<path d="M447.826 399.81C446.536 399.012 443.228 404.93 442.778 405.688C441.136 408.52 439.866 411.552 438.999 414.709C438.897 415.068 438.804 415.416 438.722 415.785L438.589 416.44C438.589 416.44 438.866 415.867 438.907 415.805L439.081 415.58C439.368 415.211 439.654 414.853 439.951 414.556C441.385 412.405 442.859 410.265 444.262 408.084C445.283 406.516 446.177 404.869 446.935 403.159C447.099 402.718 448.389 400.148 447.826 399.81ZM447.457 401.469C445.624 406.589 441.897 410.685 439.05 415.242L438.917 415.467C438.917 415.334 438.989 415.201 439.03 415.068C439.798 412.473 440.809 409.956 442.05 407.552C442.81 406.088 443.658 404.672 444.59 403.312C445.071 402.545 445.601 401.81 446.177 401.111C446.443 400.824 447.201 400.087 447.457 400.179C447.713 400.271 447.57 401.131 447.488 401.469H447.457Z" fill="white"/>
<path d="M462.684 358.552C458.865 367.318 448.84 371.403 444.498 379.862C444.365 380.118 444.242 380.384 444.119 380.65C444.108 380.677 444.09 380.7 444.067 380.718C444.045 380.736 444.018 380.748 443.99 380.753C443.961 380.758 443.932 380.756 443.904 380.747C443.877 380.738 443.852 380.722 443.832 380.701C443.82 380.678 443.813 380.651 443.813 380.624C443.813 380.598 443.82 380.571 443.832 380.548L443.924 380.363C444.78 374.964 446.598 369.761 449.29 365.003C451.482 360.959 454.482 357.18 458.65 355.05C459.674 354.518 461.67 353.412 462.817 354.282C463.964 355.152 463.155 357.467 462.684 358.552Z" fill="#37474F"/>
<path d="M459.243 358.921C458.762 358.563 458.025 359.003 457.605 359.218C456.564 359.759 455.591 360.423 454.707 361.194C452.901 362.786 451.344 364.639 450.089 366.693C447.822 370.133 445.992 373.841 444.641 377.732C444.354 378.612 444.098 379.503 443.883 380.404C443.883 380.517 443.832 380.63 443.812 380.732C443.828 380.755 443.849 380.774 443.874 380.787C443.899 380.801 443.927 380.807 443.955 380.807C443.983 380.807 444.011 380.801 444.036 380.787C444.061 380.774 444.082 380.755 444.098 380.732C444.211 380.476 444.334 380.23 444.467 379.974C444.467 379.974 444.467 379.974 444.467 379.903C445.208 378.151 446.121 376.477 447.191 374.906C448.944 372.522 450.852 370.258 452.905 368.127C453.714 367.215 460.923 360.16 459.243 358.921ZM458.629 360.969C457.322 362.956 455.805 364.796 454.103 366.458C452.516 368.229 450.918 369.98 449.362 371.772C448.119 373.197 446.999 374.725 446.013 376.339C445.205 377.681 444.52 379.093 443.965 380.558C444.371 379.064 444.871 377.597 445.46 376.165C446.538 373.63 447.772 371.164 449.157 368.782C449.18 368.755 449.197 368.724 449.208 368.69C450.377 366.565 451.797 364.588 453.437 362.802C454.333 361.833 455.34 360.973 456.438 360.242C457.697 359.433 458.793 358.9 459.11 359.3C459.428 359.699 458.977 360.355 458.629 360.959V360.969Z" fill="white"/>
<path d="M449.342 368.834C448.195 371.301 447.099 373.81 446.014 376.329C445.502 377.507 444.989 378.685 444.498 379.862C444.498 379.862 444.498 379.913 444.498 379.934L443.945 381.214C442.131 385.038 440.631 389.004 439.46 393.072C438.954 395.237 438.649 397.445 438.549 399.666C438.549 399.892 438.549 400.127 438.549 400.352V400.721C438.543 400.793 438.543 400.864 438.549 400.936C438.477 402.861 438.549 404.786 438.549 406.66C438.6 409.282 438.825 411.883 439.071 414.473C439.066 414.548 439.066 414.624 439.071 414.699V415.057C439.071 415.118 439.071 415.17 439.071 415.231V415.569C439.153 416.398 439.224 417.238 439.296 418.078H438.497C437.986 415.531 437.664 412.951 437.535 410.357C437.53 410.302 437.53 410.248 437.535 410.193C437.535 409.947 437.535 409.681 437.535 409.435C437.535 409.189 437.535 408.821 437.535 408.503C437.535 407.756 437.484 407.008 437.473 406.271C437.268 401.939 437.577 397.597 438.395 393.338C438.395 393.225 438.395 393.113 438.477 392.99C438.473 392.942 438.473 392.894 438.477 392.846C438.489 392.764 438.506 392.681 438.528 392.601L438.641 392.201C438.702 391.966 438.774 391.73 438.835 391.505L438.897 391.29C440.127 387.645 441.602 384.087 443.31 380.64L444.191 378.766C444.365 378.418 444.529 378.07 444.693 377.742L445.471 376.165C446.689 373.698 447.959 371.261 449.167 368.782C449.208 368.639 449.403 368.711 449.342 368.834Z" fill="#37474F"/>
<path d="M311.869 364.348H130.007V388.432H311.869V364.348Z" fill="#00AA7E"/>
<path d="M167.383 364.348L154.184 388.432H130.703L143.903 364.348H167.383Z" fill="#EBEBEB"/>
<path d="M215.531 364.348L202.332 388.432H178.842L192.031 364.348H215.531Z" fill="#EBEBEB"/>
<path d="M263.67 364.348L250.471 388.432H226.98L240.179 364.348H263.67Z" fill="#EBEBEB"/>
<path d="M311.808 364.348L298.609 388.432H275.118L288.318 364.348H311.808Z" fill="#EBEBEB"/>
<path d="M276.879 418.999H301.896L283.361 305.365H258.355L276.879 418.999Z" fill="#EBEBEB"/>
<path d="M143.483 418.999H168.499L149.975 305.365H124.959L143.483 418.999Z" fill="#EBEBEB"/>
<path d="M287.119 418.999H312.136L293.601 305.365H268.595L287.119 418.999Z" fill="#C7C7C7"/>
<path d="M143.483 418.999H168.499L149.975 305.365H124.959L143.483 418.999Z" fill="#C7C7C7"/>
<path d="M140.083 305.377L138.527 314.941L136.858 325.222L121.559 419H96.553L111.841 325.222L113.521 314.941L115.077 305.377H140.083Z" fill="#EBEBEB"/>
<path d="M136.469 305.377C135.148 314.869 133.735 324.352 132.301 333.834L127.887 362.26L123.269 390.645L120.883 404.828L118.395 419L120.443 404.766L122.573 390.533L126.976 362.117L131.594 333.721C133.171 324.27 134.769 314.808 136.469 305.377Z" fill="#C7C7C7"/>
<path d="M138.527 314.941L136.858 325.222H111.841L113.521 314.941H138.527Z" fill="#C7C7C7"/>
<path d="M283.72 305.377L282.163 314.941L280.484 325.222L265.196 419H240.179L255.478 325.222L257.157 314.941L258.714 305.377H283.72Z" fill="#EBEBEB"/>
<path d="M280.023 305.377C278.702 314.869 277.289 324.352 275.855 333.834L271.442 362.26L266.824 390.645L264.438 404.828L261.949 419L263.997 404.766L266.127 390.533L270.541 362.117L275.159 333.721C276.726 324.27 278.323 314.808 280.023 305.377Z" fill="#C7C7C7"/>
<path d="M282.163 314.941H257.157L255.478 325.222H280.484L282.163 314.941Z" fill="#C7C7C7"/>
<path d="M280.883 368.67H99.0208V392.754H280.883V368.67Z" fill="#00AA7E"/>
<path d="M136.397 368.67L123.197 392.754H99.717L112.916 368.67H136.397Z" fill="#EBEBEB"/>
<path d="M184.545 368.67L171.346 392.754H147.855L161.055 368.67H184.545Z" fill="#EBEBEB"/>
<path d="M232.684 368.67L219.484 392.754H195.994L209.193 368.67H232.684Z" fill="#EBEBEB"/>
<path d="M280.822 368.67L267.622 392.754H244.132L257.331 368.67H280.822Z" fill="#EBEBEB"/>
<path d="M313.549 271.871H99.0208V314.951H313.549V271.871Z" fill="#00AA7E"/>
<path d="M143.114 271.871L127.55 314.941H99.8401L115.415 271.871H143.114Z" fill="#EBEBEB"/>
<path d="M199.905 271.871L184.341 314.941H156.621L172.196 271.871H199.905Z" fill="#EBEBEB"/>
<path d="M256.686 271.871L241.121 314.941H213.412L228.987 271.871H256.686Z" fill="#EBEBEB"/>
<path d="M313.477 271.871L297.912 314.941H270.193L285.768 271.871H313.477Z" fill="#EBEBEB"/>
<path d="M44.9946 418.785L97.7409 418.54L150.497 418.448L256 418.273L361.503 418.448L414.259 418.54L467.005 418.785L414.259 419.041L361.503 419.134L256 419.297L150.497 419.123L97.7409 419.041L44.9946 418.785Z" fill="#263238"/>
<path d="M229.99 53.5254H74.9158V237.897H229.99V53.5254Z" fill="#00AA7E"/>
<path d="M162.39 119.224C175.885 113.736 182.376 98.3472 176.888 84.8521C171.4 71.3571 156.012 64.8661 142.517 70.3541C129.021 75.8421 122.53 91.2309 128.018 104.726C133.506 118.221 148.895 124.712 162.39 119.224Z" fill="#455A64"/>
<path d="M152.453 117.975C147.866 117.975 143.382 116.615 139.567 114.066C135.753 111.518 132.781 107.895 131.025 103.657C129.27 99.4192 128.81 94.7558 129.705 90.2567C130.6 85.7575 132.809 81.6248 136.053 78.3811C139.296 75.1375 143.429 72.9285 147.928 72.0336C152.427 71.1386 157.091 71.5979 161.329 73.3534C165.567 75.1089 169.189 78.0817 171.738 81.8958C174.286 85.71 175.647 90.1942 175.647 94.7815C175.641 100.931 173.196 106.827 168.847 111.176C164.499 115.524 158.603 117.97 152.453 117.975ZM152.453 73.4004C148.224 73.4004 144.091 74.6544 140.574 77.0037C137.058 79.3531 134.318 82.6924 132.7 86.5993C131.081 90.5062 130.658 94.8052 131.483 98.9527C132.308 103.1 134.344 106.91 137.334 109.9C140.325 112.89 144.134 114.927 148.282 115.752C152.429 116.577 156.728 116.153 160.635 114.535C164.542 112.917 167.882 110.176 170.231 106.66C172.58 103.144 173.834 99.0103 173.834 94.7815C173.829 89.1125 171.574 83.6773 167.566 79.6688C163.557 75.6602 158.122 73.4058 152.453 73.4004Z" fill="white"/>
<path d="M145.295 97.5262L145.234 97.4443C144.609 96.5841 143.995 95.724 143.35 94.8843C143.153 94.6213 142.914 94.3928 142.643 94.2084C142.383 94.0303 142.084 93.9181 141.771 93.8819C141.458 93.8456 141.141 93.8862 140.848 94.0002C140.554 94.1142 140.293 94.2982 140.086 94.5361C139.88 94.7741 139.735 95.0588 139.663 95.3656C139.59 95.6662 139.582 95.9791 139.641 96.2829C139.699 96.5868 139.822 96.8746 140.001 97.1268L144.916 104.582C145.765 105.936 147.009 106.997 148.48 107.623C150.985 108.676 153.778 108.831 156.385 108.063C157.314 107.817 158.175 107.362 158.901 106.731C159.627 106.101 160.199 105.313 160.573 104.428C161.046 103.375 161.287 102.233 161.28 101.079C161.28 98.0075 161.28 94.9355 161.28 91.9147C161.28 90.266 161.28 88.6174 161.28 86.9688C161.29 86.7087 161.239 86.4499 161.13 86.2133C161.021 85.9767 160.859 85.7689 160.655 85.6068C160.415 85.3975 160.118 85.2651 159.802 85.2268C159.487 85.1884 159.166 85.2459 158.884 85.3918C158.587 85.5153 158.336 85.7269 158.164 85.998C157.992 86.2691 157.907 86.5865 157.921 86.9073C157.921 89.1294 157.921 91.3412 157.921 93.5633C157.921 93.9422 157.767 94.147 157.491 94.147C157.215 94.147 157.071 93.9422 157.071 93.5633V83.9684C157.081 83.8321 157.081 83.6952 157.071 83.5588C157.025 83.1301 156.815 82.7359 156.484 82.4587C156.154 82.1816 155.729 82.0431 155.299 82.0722C154.869 82.1013 154.466 82.2958 154.176 82.615C153.886 82.9341 153.731 83.3531 153.743 83.7841V92.4779C153.748 92.5597 153.748 92.6418 153.743 92.7236C153.731 92.8225 153.684 92.9138 153.611 92.9813C153.538 93.0488 153.443 93.0882 153.344 93.0923C153.244 93.0986 153.146 93.0674 153.068 93.0048C152.991 92.9423 152.939 92.8529 152.924 92.7544C152.913 92.6659 152.913 92.5766 152.924 92.4881V82.8523C152.929 82.7636 152.929 82.6747 152.924 82.586C152.912 82.3153 152.832 82.052 152.69 81.821C152.549 81.5899 152.351 81.3986 152.115 81.2651C151.86 81.086 151.561 80.9821 151.25 80.9653C150.939 80.9485 150.63 81.0194 150.358 81.17C150.085 81.3206 149.861 81.5448 149.71 81.8169C149.559 82.089 149.487 82.3981 149.504 82.7089C149.504 85.9721 149.504 89.2318 149.504 92.4881C149.509 92.5631 149.509 92.6384 149.504 92.7134C149.491 92.8166 149.442 92.9119 149.365 92.9816C149.288 93.0512 149.188 93.0905 149.084 93.0923C148.982 93.0934 148.884 93.0577 148.807 92.9918C148.73 92.9259 148.679 92.8343 148.664 92.7339C148.659 92.6589 148.659 92.5836 148.664 92.5086V88.8734C148.664 87.5217 148.664 86.1598 148.664 84.7774C148.661 84.5582 148.614 84.3418 148.527 84.1406C148.44 83.9394 148.315 83.7573 148.157 83.6047C147.839 83.2964 147.412 83.1271 146.969 83.1339C146.527 83.1407 146.105 83.323 145.797 83.6409C145.488 83.9587 145.319 84.3859 145.326 84.8286V97.5262H145.295Z" fill="white"/>
<path d="M145.295 97.5256V84.8588C145.292 84.6396 145.332 84.4219 145.412 84.2181C145.493 84.0143 145.613 83.8284 145.766 83.671C146.074 83.3532 146.496 83.1708 146.939 83.164C147.381 83.1572 147.809 83.3266 148.126 83.6348C148.444 83.943 148.627 84.3649 148.633 84.8076C148.633 86.1592 148.633 87.5212 148.633 88.9036V92.5388C148.628 92.6138 148.628 92.689 148.633 92.764C148.648 92.8644 148.699 92.956 148.776 93.0219C148.853 93.0878 148.952 93.1235 149.053 93.1224C149.157 93.1207 149.257 93.0814 149.334 93.0117C149.411 92.942 149.461 92.8468 149.473 92.7436C149.478 92.6686 149.478 92.5933 149.473 92.5183C149.473 89.262 149.473 86.0022 149.473 82.7391C149.469 82.4427 149.544 82.1505 149.69 81.8929C149.837 81.6353 150.05 81.4217 150.307 81.2743C150.564 81.1269 150.856 81.0511 151.152 81.0548C151.449 81.0585 151.739 81.1415 151.992 81.2952C152.228 81.4287 152.426 81.62 152.567 81.8511C152.709 82.0822 152.789 82.3455 152.801 82.6162C152.806 82.7049 152.806 82.7938 152.801 82.8824V92.5183C152.791 92.6067 152.791 92.6961 152.801 92.7845C152.816 92.8831 152.868 92.9724 152.945 93.035C153.023 93.0975 153.121 93.1287 153.221 93.1224C153.32 93.1183 153.415 93.079 153.488 93.0115C153.562 92.9439 153.608 92.8526 153.62 92.7538C153.625 92.672 153.625 92.5899 153.62 92.508V83.7836C153.608 83.3525 153.764 82.9335 154.054 82.6144C154.344 82.2953 154.746 82.1007 155.176 82.0716C155.606 82.0425 156.031 82.181 156.362 82.4582C156.692 82.7353 156.902 83.1295 156.948 83.5583C156.959 83.6946 156.959 83.8315 156.948 83.9679V93.5628C156.948 93.9416 157.092 94.1464 157.368 94.1464C157.645 94.1464 157.798 93.9416 157.798 93.5628C157.798 91.3407 157.798 89.1288 157.798 86.9068C157.784 86.5859 157.869 86.2685 158.041 85.9974C158.213 85.7264 158.464 85.5148 158.761 85.3912C159.044 85.2454 159.364 85.1879 159.68 85.2262C159.996 85.2646 160.293 85.397 160.532 85.6063C160.736 85.7684 160.899 85.9761 161.007 86.2127C161.116 86.4493 161.167 86.7081 161.157 86.9682C161.157 88.6168 161.157 90.2655 161.157 91.9141C161.157 94.9861 161.157 98.0581 161.157 101.079C161.164 102.233 160.923 103.375 160.45 104.427C160.076 105.313 159.504 106.101 158.778 106.731C158.052 107.361 157.192 107.816 156.262 108.063C153.655 108.831 150.863 108.675 148.357 107.622C146.889 107.002 145.645 105.948 144.793 104.601L139.878 97.1468C139.699 96.8945 139.576 96.6067 139.518 96.3028C139.46 95.999 139.467 95.6861 139.54 95.3855C139.604 95.0653 139.747 94.7664 139.957 94.5166C140.168 94.2667 140.437 94.0741 140.742 93.9566C141.046 93.8391 141.376 93.8005 141.699 93.8444C142.023 93.8884 142.33 94.0134 142.592 94.2079C142.863 94.3923 143.102 94.6207 143.298 94.8837C143.944 95.7234 144.558 96.5836 145.183 97.4437L145.244 97.5256H145.295Z" fill="white"/>
<path d="M79.8002 60.0285C80.7503 60.0285 81.5205 59.2583 81.5205 58.3082C81.5205 57.3581 80.7503 56.5879 79.8002 56.5879C78.85 56.5879 78.0798 57.3581 78.0798 58.3082C78.0798 59.2583 78.85 60.0285 79.8002 60.0285Z" fill="white"/>
<path d="M225.116 60.0285C226.066 60.0285 226.836 59.2583 226.836 58.3082C226.836 57.3581 226.066 56.5879 225.116 56.5879C224.166 56.5879 223.396 57.3581 223.396 58.3082C223.396 59.2583 224.166 60.0285 225.116 60.0285Z" fill="white"/>
<path d="M79.8002 234.845C80.7503 234.845 81.5205 234.075 81.5205 233.125C81.5205 232.175 80.7503 231.404 79.8002 231.404C78.85 231.404 78.0798 232.175 78.0798 233.125C78.0798 234.075 78.85 234.845 79.8002 234.845Z" fill="white"/>
<path d="M225.116 234.845C226.066 234.845 226.836 234.075 226.836 233.125C226.836 232.175 226.066 231.404 225.116 231.404C224.166 231.404 223.396 232.175 223.396 233.125C223.396 234.075 224.166 234.845 225.116 234.845Z" fill="white"/>
<path d="M90.1122 415.498H51.8862L66.0891 366.1C66.4537 365.096 67.1185 364.229 67.9933 363.616C68.8681 363.003 69.9105 362.674 70.9787 362.674C72.0469 362.674 73.0893 363.003 73.9641 363.616C74.8389 364.229 75.5037 365.096 75.8683 366.1L90.1122 415.498Z" fill="#00AA7E"/>
<path d="M80.4966 382.229H61.4502L64.4403 371.814H77.5168L80.4966 382.229Z" fill="#EBEBEB"/>
<path d="M85.4733 399.514H56.4839L59.474 389.09H82.473L85.4733 399.514Z" fill="#EBEBEB"/>
<g style="mix-blend-mode:multiply" opacity="0.1">
<path d="M90.1122 415.499H51.8862L65.403 368.467C64.2459 398.9 83.2309 408.454 88.6376 410.553L90.1122 415.499Z" fill="black"/>
</g>
<path d="M97.321 415.498H44.626V418.785H97.321V415.498Z" fill="#00AA7E"/>
<path d="M449.055 415.498H410.87L425.073 366.1C425.437 365.096 426.102 364.229 426.977 363.616C427.852 363.003 428.894 362.674 429.962 362.674C431.031 362.674 432.073 363.003 432.948 363.616C433.823 364.229 434.487 365.096 434.852 366.1L449.055 415.498Z" fill="#00AA7E"/>
<path d="M439.491 382.229H420.434L423.424 371.814H436.501L439.491 382.229Z" fill="#EBEBEB"/>
<path d="M444.457 399.514H415.468L418.458 389.09H441.457L444.457 399.514Z" fill="#EBEBEB"/>
<g style="mix-blend-mode:multiply" opacity="0.1">
<path d="M449.045 415.499H410.87L424.387 368.467C423.23 398.9 442.215 408.454 447.621 410.553L449.045 415.499Z" fill="black"/>
</g>
<path d="M456.305 415.498H403.61V418.785H456.305V415.498Z" fill="#00AA7E"/>
<path d="M251.382 462.737C253.839 463.525 326.267 462.624 328.909 460.893C329.933 460.259 324.813 392.111 324.813 392.111L278.016 392.572L282.993 438.171C282.993 438.171 256.369 450.459 253.665 452.701C250.962 454.944 248.934 461.958 251.382 462.737Z" fill="#FFC4C0"/>
<path d="M251.392 462.735C253.839 463.524 326.277 462.623 328.909 460.892C329.38 460.605 328.55 445.972 327.526 430.295H282.153L283.013 438.159C283.013 438.159 256.389 450.447 253.675 452.7C250.962 454.953 248.924 461.947 251.392 462.735Z" fill="white"/>
<path d="M250.593 463.73C253.174 464.579 326.308 463.883 329.103 462.081C330.127 461.405 328.622 437.29 328.622 437.146H283.382V437.955C283.382 437.955 255.263 450.848 252.406 453.162C249.549 455.476 248.003 462.9 250.593 463.73Z" fill="#263238"/>
<path d="M250.788 460.861C263.219 460.442 313.385 459.919 325.704 460.442C325.806 460.442 325.806 460.513 325.704 460.524C313.416 461.21 263.24 461.333 250.788 461.066C250.522 461.056 250.522 460.872 250.788 460.861Z" fill="#37474F"/>
<path d="M278.088 437.331C282.972 436.378 288.962 437.075 292.731 440.525C292.874 440.659 292.731 440.863 292.526 440.812C287.835 439.349 283.002 438.392 278.108 437.955C278.034 437.945 277.967 437.908 277.917 437.853C277.867 437.797 277.839 437.726 277.836 437.651C277.834 437.577 277.858 437.504 277.904 437.445C277.95 437.387 278.015 437.346 278.088 437.331Z" fill="#37474F"/>
<path d="M274.575 439.491C279.46 438.538 285.45 439.235 289.219 442.686C289.362 442.819 289.219 443.024 289.014 442.972C284.326 441.511 279.497 440.553 274.606 440.115C274.532 440.106 274.463 440.071 274.413 440.016C274.362 439.962 274.332 439.891 274.328 439.816C274.325 439.741 274.347 439.668 274.393 439.608C274.438 439.549 274.503 439.507 274.575 439.491Z" fill="#37474F"/>
<path d="M271.063 441.651C275.947 440.699 281.938 441.395 285.706 444.846C285.86 444.979 285.706 445.184 285.501 445.133C280.814 443.67 275.984 442.712 271.094 442.276C271.019 442.266 270.951 442.231 270.9 442.176C270.849 442.122 270.819 442.051 270.816 441.976C270.812 441.902 270.835 441.828 270.88 441.768C270.925 441.709 270.99 441.667 271.063 441.651Z" fill="#37474F"/>
<path d="M278.282 436.225H328.704C328.704 436.225 320.256 319.376 320.512 317.81C321.024 315.178 323.994 303.259 327.956 287.694C329.195 282.83 330.537 277.607 331.93 272.19C335.688 257.547 339.825 241.542 343.429 227.616C348.846 206.757 353.075 190.547 353.075 190.547H310.374C310.374 190.547 305.387 206.327 299.11 226.858C288.87 260.22 275.231 306.136 273.879 317.308C272.292 330.825 278.282 436.225 278.282 436.225Z" fill="#37474F"/>
<path d="M280.627 427.009C288.307 426.855 286.095 426.794 293.785 426.722C297.544 426.722 322.253 426.466 325.765 427.05C325.781 427.055 325.794 427.066 325.804 427.08C325.813 427.093 325.818 427.11 325.818 427.126C325.818 427.143 325.813 427.159 325.804 427.173C325.794 427.187 325.781 427.197 325.765 427.203C322.253 427.787 297.544 427.572 293.785 427.531C286.095 427.459 288.307 427.398 280.627 427.234C280.612 427.234 280.598 427.231 280.584 427.225C280.57 427.22 280.558 427.211 280.547 427.201C280.537 427.19 280.529 427.178 280.523 427.164C280.517 427.151 280.514 427.136 280.514 427.121C280.514 427.106 280.517 427.092 280.523 427.078C280.529 427.064 280.537 427.052 280.547 427.042C280.558 427.031 280.57 427.023 280.584 427.017C280.598 427.012 280.612 427.009 280.627 427.009Z" fill="#263238"/>
<path d="M345.354 196.342L337.521 223.928L329.882 251.576C327.332 260.792 324.884 270.008 322.427 279.224C319.969 288.44 317.563 297.718 315.259 307.016C314.716 309.35 314.163 311.675 313.702 314.03C313.58 314.624 313.498 315.228 313.385 315.832C313.385 316.16 313.334 316.518 313.334 316.856L313.405 317.747L320.102 419.533V419.84L320.666 419.492L314.522 317.665L314.46 316.774C314.46 316.488 314.46 316.252 314.46 315.986C314.573 315.412 314.644 314.839 314.767 314.255C315.228 311.931 315.791 309.606 316.344 307.282C320.819 288.717 325.816 270.254 330.68 251.771L345.354 196.342Z" fill="#263238"/>
<path d="M311.439 190.547C314.399 213.484 325.13 251.598 329.247 282.799C338.883 244.993 353.116 190.547 353.116 190.547H311.439Z" fill="#263238"/>
<path d="M414.372 462.367C411.894 463.146 351.058 463.391 348.416 461.651C347.392 460.995 347.044 450.745 346.972 438.334V437.945C346.972 435.385 341.064 392.418 341.064 392.418L387.031 393.36L392.346 438.488V439.256C392.346 439.256 409.508 450.018 412.201 452.261C414.894 454.503 416.84 461.61 414.372 462.367Z" fill="#FFC4C0"/>
<path d="M346.112 430.295C346.634 434.391 346.962 437.33 346.962 437.944V438.333C347.044 450.744 347.402 460.994 348.416 461.65C351.048 463.411 411.904 463.145 414.372 462.377C416.84 461.609 414.843 454.492 412.16 452.26C409.477 450.027 392.305 439.296 392.305 439.296V438.528L391.332 430.336L346.112 430.295Z" fill="white"/>
<path d="M417.372 463.73C414.792 464.579 349.358 463.883 346.573 462.081C345.497 461.405 347.044 437.29 347.044 437.146H392.284V437.955C392.284 437.955 412.692 450.848 415.549 453.162C418.406 455.476 419.952 462.9 417.372 463.73Z" fill="#263238"/>
<path d="M417.178 460.861C404.746 460.442 362.281 459.919 349.962 460.442C349.87 460.442 349.87 460.513 349.962 460.524C362.25 461.21 404.746 461.333 417.178 461.066C417.434 461.056 417.444 460.872 417.178 460.861Z" fill="#37474F"/>
<path d="M388.618 438.672C382.423 436.962 374.702 436.972 369.674 440.372C369.48 440.505 369.674 440.761 369.92 440.73C376.07 439.673 382.308 439.217 388.547 439.368C388.639 439.378 388.731 439.35 388.803 439.291C388.875 439.233 388.921 439.148 388.931 439.056C388.94 438.963 388.913 438.871 388.854 438.799C388.795 438.727 388.711 438.681 388.618 438.672Z" fill="#37474F"/>
<path d="M392.991 441.56C386.785 439.85 379.074 439.86 374.047 443.27C373.852 443.393 374.047 443.649 374.292 443.618C380.444 442.571 386.681 442.115 392.919 442.256C393.011 442.265 393.104 442.238 393.176 442.179C393.248 442.121 393.293 442.036 393.303 441.944C393.312 441.851 393.285 441.759 393.226 441.687C393.168 441.615 393.083 441.569 392.991 441.56Z" fill="#37474F"/>
<path d="M397.312 444.417C391.117 442.707 383.406 442.717 378.378 446.127C378.184 446.26 378.378 446.516 378.624 446.475C384.796 445.435 391.054 444.989 397.312 445.144C397.408 445.144 397.501 445.106 397.569 445.038C397.637 444.969 397.675 444.877 397.675 444.781C397.675 444.684 397.637 444.592 397.569 444.524C397.501 444.455 397.408 444.417 397.312 444.417Z" fill="#37474F"/>
<path d="M311.439 190.547C311.439 190.547 317.911 230.022 318.351 231.292C318.351 231.292 320.758 232.428 325.1 234.436L342.805 436.041L393.441 436.245L366.694 190.547H311.439Z" fill="#37474F"/>
<path d="M344.545 427.008C352.276 426.885 350.054 426.803 357.796 426.762C361.585 426.762 386.468 426.64 389.99 427.234C390.012 427.234 390.033 427.242 390.048 427.258C390.064 427.273 390.072 427.294 390.072 427.315C390.072 427.337 390.064 427.358 390.048 427.373C390.033 427.389 390.012 427.397 389.99 427.397C386.447 427.961 361.574 427.643 357.786 427.592C350.054 427.479 352.276 427.428 344.545 427.234C344.515 427.234 344.487 427.222 344.466 427.201C344.444 427.179 344.433 427.151 344.433 427.121C344.433 427.091 344.444 427.062 344.466 427.041C344.487 427.02 344.515 427.008 344.545 427.008Z" fill="#263238"/>
<path d="M316.252 230.063C321.296 232.168 326.147 234.707 330.752 237.651C330.772 237.661 330.789 237.674 330.803 237.691C330.817 237.708 330.828 237.727 330.835 237.748C330.841 237.769 330.844 237.791 330.842 237.813C330.84 237.835 330.834 237.856 330.824 237.876C330.814 237.895 330.8 237.913 330.783 237.927C330.766 237.941 330.747 237.952 330.726 237.958C330.705 237.965 330.683 237.967 330.661 237.966C330.639 237.964 330.618 237.958 330.598 237.948C325.714 235.572 320.727 233.288 315.986 230.646C315.925 230.602 315.882 230.538 315.863 230.465C315.844 230.392 315.851 230.315 315.882 230.246C315.913 230.178 315.967 230.122 316.034 230.089C316.102 230.055 316.179 230.046 316.252 230.063Z" fill="#263238"/>
<path d="M318.106 207.453C318.904 212.174 319.345 216.976 319.877 221.738C320.01 222.875 320.143 224.022 320.266 225.158C320.298 226.209 320.579 227.237 321.086 228.158C322.11 229.756 323.953 230.503 325.622 231.23C325.816 231.312 325.734 231.62 325.53 231.548C323.734 231.12 322.075 230.247 320.707 229.008C319.191 227.401 319.242 224.964 319.007 222.864C318.333 217.75 317.96 212.601 317.891 207.443C317.891 207.361 318.085 207.33 318.106 207.453Z" fill="#263238"/>
<path d="M323.85 208.896C324.024 212.296 324.403 215.695 324.68 219.136C324.823 220.805 324.946 222.484 325.048 224.164C325.151 225.843 325.345 227.615 325.294 229.284C325.294 229.396 325.11 229.427 325.089 229.284C324.803 227.676 324.772 225.986 324.639 224.358C324.506 222.73 324.373 220.918 324.28 219.238C324.086 215.798 323.994 212.337 323.686 208.906C323.676 208.793 323.85 208.793 323.85 208.896Z" fill="#263238"/>
<path d="M326.134 239.494L328.847 262.657L331.674 285.81L337.5 332.084L347.843 422.432L338.575 331.951L332.503 285.697L329.37 262.585L326.134 239.494Z" fill="#263238"/>
<path d="M315.044 128.359C290.683 148.358 263.066 185.11 268.81 199.016C272.681 208.365 299.766 181.495 299.848 179.938C299.909 178.761 314.46 150.928 323.256 133.981C332.053 117.034 320.133 124.182 315.044 128.359Z" fill="#FFC4C0"/>
<path d="M315.044 128.359C290.683 148.358 263.066 185.11 268.81 199.016C272.681 208.365 299.766 181.495 299.848 179.938C299.909 178.761 314.46 150.928 323.256 133.981C332.053 117.034 320.133 124.182 315.044 128.359Z" fill="#00AA7E"/>
<path opacity="0.1" d="M323.256 133.929C314.46 150.866 299.909 178.709 299.837 179.886C299.837 180.726 291.973 188.846 284.129 194.755L325.785 123.566C326.953 124.498 326.656 127.437 323.256 133.929Z" fill="#000102"/>
<path d="M305.265 208.313H368.64C368.824 208.088 371.046 203.131 370.688 200.93C369.541 193.096 350.812 134.718 342.108 124.836C337.172 119.225 325.847 121.16 323.113 124.836C311.419 140.708 302.633 189.963 302.449 201.319C302.438 203.776 305.152 208.128 305.265 208.313Z" fill="#00AA7E"/>
<path d="M330.342 140.534L326.789 134.492L322.928 139.233L324.198 143.657L328.294 143.944L330.342 140.534Z" fill="#263238"/>
<path d="M328.294 143.945L330.394 189.195L322.468 202.651L317.164 188.683L324.198 143.658L328.294 143.945Z" fill="#263238"/>
<path d="M326.789 134.492C326.349 137.564 325.97 140.636 325.601 143.78C325.233 146.924 324.864 149.924 324.577 153.068C323.922 159.263 323.307 165.468 322.908 171.684C322.509 177.9 322.191 184.115 322.232 190.341C322.232 193.413 322.365 196.567 322.673 199.66C322.896 202.785 323.466 205.876 324.372 208.876C322.263 202.967 321.843 196.588 321.638 190.444C321.433 184.3 321.741 177.951 322.14 171.715C322.539 165.478 323.215 159.283 323.993 153.088C324.393 150.016 324.813 146.944 325.273 143.872C325.734 140.8 326.226 137.564 326.789 134.492Z" fill="#263238"/>
<path opacity="0.1" d="M341.637 166.738H341.514L334.09 164.147L333.005 153.19L345.59 152.627L346.665 163.348L341.637 166.738ZM334.561 163.727L341.555 166.174L346.133 163.102L345.109 153.159L333.548 153.682L334.561 163.727Z" fill="#000102"/>
<path opacity="0.1" d="M314.675 166.769L311.173 163.287L311.91 152.576L320.686 153.16L319.949 164.076L314.675 166.769ZM311.695 163.082L314.767 166.154L319.447 163.768L320.133 153.651L312.381 153.139L311.695 163.082Z" fill="#000102"/>
<path d="M320.727 152.219L312.412 151.441L312.781 149.73L320.727 150.56V152.219Z" fill="white"/>
<path d="M336.548 146.801C336.586 148.033 336.73 149.26 336.978 150.467C337.275 151.225 339.436 151.543 339.436 151.543C339.436 151.543 341.32 150.969 341.484 150.385C341.498 149.086 341.402 147.788 341.197 146.504C340.709 146.549 340.217 146.48 339.76 146.302C339.304 146.125 338.895 145.843 338.565 145.48C338.394 145.873 338.112 146.207 337.753 146.442C337.395 146.676 336.976 146.801 336.548 146.801Z" fill="white"/>
<path d="M369.285 208.312H303.811V213.351H369.285V208.312Z" fill="#263238"/>
<path d="M330.813 214.835H316.416V206.848H330.803L330.813 214.835ZM318.474 212.787H328.765V208.896H318.464L318.474 212.787Z" fill="#EBEBEB"/>
<path d="M350.935 128.513C376.535 146.945 406.364 181.884 401.5 196.097C398.223 205.661 369.51 180.552 369.326 179.006C369.193 177.829 352.942 150.959 343.081 134.606C333.22 118.252 345.58 124.652 350.935 128.513Z" fill="#FFC4C0"/>
<path d="M350.935 128.513C376.535 146.945 406.364 181.884 401.5 196.097C398.223 205.661 369.51 180.552 369.326 179.006C369.193 177.829 352.942 150.959 343.081 134.606C333.22 118.252 345.58 124.652 350.935 128.513Z" fill="#00AA7E"/>
<path d="M347.198 141.426C349.246 144.447 351.15 147.57 353.065 150.642C354.98 153.714 356.844 156.847 358.697 159.97C360.55 163.094 362.363 166.237 364.134 169.412L366.776 174.184C367.626 175.791 368.507 177.389 369.326 179.017C368.302 177.512 367.35 175.945 366.357 174.45L363.52 169.801C361.595 166.729 359.731 163.595 357.878 160.472C356.024 157.349 354.212 154.195 352.451 151.021C350.689 147.846 348.867 144.662 347.198 141.426Z" fill="#263238"/>
<path d="M347.617 144.814C348.365 145.501 349.041 146.228 349.665 146.944L350.689 148.04C351.027 148.409 351.365 148.767 351.713 149.156C350.819 148.677 350.015 148.047 349.338 147.293C348.644 146.557 348.064 145.722 347.617 144.814Z" fill="#263238"/>
<path d="M387.36 132.45L276.938 206.951L281.084 213.096L391.506 138.595L387.36 132.45Z" fill="#263238"/>
<path d="M316.937 221.021L302.877 199.947L296.719 204.056L310.778 225.13L316.937 221.021Z" fill="#263238"/>
<path d="M270.909 202.23C277.494 204.667 281.661 202.804 307.149 191.591C310.671 190.035 309.197 163.779 305.101 163.667C298.598 163.482 279.347 173.671 278.067 174.439C267.264 180.941 266.435 200.582 270.909 202.23Z" fill="#FFC4C0"/>
<path d="M336.773 179.988C336.159 183.224 332.841 182.538 332.841 182.538C333.58 183.767 333.867 185.216 333.65 186.634C333.148 189.112 329.052 189.409 329.052 189.409C329.549 190.848 329.606 192.402 329.216 193.874C328.499 196.198 324.403 197.089 324.403 197.089C324.136 198.663 323.311 200.088 322.079 201.103C318.689 203.684 312.596 201.411 308.767 199.936C303.022 197.755 295.219 190.812 293.222 189.532L300.032 164.649C302.31 163.848 304.73 163.527 307.139 163.707C313.487 164.464 319.716 166.009 325.683 168.305C330.24 170.424 337.367 176.814 336.773 179.988Z" fill="#FFC4C0"/>
<path d="M332.8 182.078C329.431 179.058 325.345 177.204 321.382 175.115C321.29 175.115 321.219 175.218 321.311 175.259C325.274 177.307 328.796 180.071 332.677 182.253C332.7 182.269 332.729 182.275 332.757 182.27C332.784 182.266 332.809 182.25 332.826 182.227C332.842 182.204 332.848 182.175 332.844 182.147C332.839 182.12 332.823 182.095 332.8 182.078Z" fill="#263238"/>
<path d="M329.083 189.072C328.254 188.455 327.345 187.955 326.379 187.587C325.355 187.126 324.393 186.686 323.379 186.256C321.372 185.396 319.324 184.594 317.235 183.85C317.143 183.85 317.071 183.942 317.163 183.983C319.211 184.843 321.167 185.724 323.133 186.666C324.157 187.126 325.099 187.608 326.083 188.089C326.977 188.605 327.925 189.024 328.909 189.338C329.093 189.369 329.206 189.164 329.083 189.072Z" fill="#263238"/>
<path d="M324.321 197.07C323.561 196.526 322.712 196.117 321.813 195.862L319.037 194.736C317.194 193.978 315.351 193.21 313.539 192.391C313.446 192.391 313.375 192.483 313.467 192.524C315.31 193.374 317.133 194.244 318.986 195.074L321.72 196.282C322.515 196.725 323.382 197.023 324.28 197.162C324.292 197.165 324.304 197.164 324.315 197.159C324.326 197.153 324.335 197.145 324.34 197.134C324.344 197.123 324.345 197.11 324.342 197.099C324.339 197.087 324.331 197.077 324.321 197.07Z" fill="#263238"/>
<path d="M295.864 165.1L289.72 200.94C289.72 200.94 272.435 205.978 269.67 201.759C266.906 197.54 267.858 184.586 274.565 176.947C279.982 170.732 295.864 165.1 295.864 165.1Z" fill="#00AA7E"/>
<path d="M290.089 166.379L301.21 162.406L295.403 200.171L284.744 202.649L290.089 166.379Z" fill="#00AA7E"/>
<path d="M289.792 168.623C289.608 171.378 289.301 174.122 288.983 176.866C288.666 179.611 288.287 182.334 287.898 185.058C287.509 187.782 287.068 190.506 286.577 193.25L285.829 197.346C285.542 198.698 285.297 200.06 284.979 201.442C285.061 200.06 285.215 198.688 285.338 197.346L285.798 193.25C286.106 190.506 286.495 187.782 286.884 185.058C287.273 182.334 287.713 179.611 288.205 176.866C288.696 174.122 289.147 171.316 289.792 168.623Z" fill="#263238"/>
<path d="M300.913 164.342C300.913 163.686 301.005 163.041 301.066 162.386L301.261 162.55C299.448 163.348 297.615 164.045 295.782 164.792C293.95 165.54 292.106 166.195 290.253 166.84L290.591 166.431L290.427 167.537V167.803L290.171 167.926L284.027 170.813C281.979 171.837 279.931 172.81 277.985 173.885C278.865 173.148 279.788 172.464 280.75 171.837C281.702 171.223 282.686 170.65 283.679 170.066C285.645 168.919 287.683 167.905 289.751 166.932L289.464 167.322L289.618 166.216V165.908L289.905 165.806C291.762 165.123 293.625 164.488 295.496 163.901C297.38 163.328 299.244 162.703 301.148 162.181L301.394 162.109V162.335C301.22 163.072 301.056 163.707 300.913 164.342Z" fill="#263238"/>
<path d="M279.869 171.264C280.477 170.808 281.175 170.486 281.917 170.322C282.647 170.138 283.407 170.107 284.15 170.23C283.791 170.363 283.443 170.455 283.126 170.558L282.102 170.824L281.078 171.059C280.576 171.131 280.248 171.213 279.869 171.264Z" fill="#263238"/>
<path d="M400.292 198.124C394.547 201.77 383.457 202.22 361.052 185.652C357.98 183.358 365.148 158.066 369.244 158.864C375.613 160.114 392.171 174.224 393.247 175.299C402.258 183.993 404.306 195.585 400.292 198.124Z" fill="#FFC4C0"/>
<path d="M345.733 143.975C343.347 146.238 345.733 148.655 345.733 148.655C344.3 148.706 342.928 149.253 341.852 150.201C340.04 151.973 342.026 155.577 342.026 155.577C340.545 155.94 339.207 156.739 338.186 157.871C336.63 159.735 338.104 163.656 338.104 163.656C336.939 164.729 336.191 166.181 335.995 167.752C335.677 172.002 340.9 175.883 344.238 178.33C349.204 181.955 359.281 184.73 361.431 185.703L378.593 166.421C378.03 164.071 376.984 161.863 375.521 159.939C371.436 155.026 366.754 150.64 361.585 146.883C357.314 144.241 348.068 141.743 345.733 143.975Z" fill="#FFC4C0"/>
<path d="M346.112 148.48C350.474 149.668 354.304 152.085 358.164 154.276C358.176 154.289 358.183 154.306 358.184 154.323C358.186 154.34 358.181 154.358 358.172 154.373C358.163 154.388 358.15 154.399 358.133 154.406C358.117 154.412 358.099 154.413 358.083 154.409C354.222 152.187 349.972 150.754 346.03 148.675C345.938 148.572 346.01 148.398 346.112 148.48Z" fill="#263238"/>
<path d="M342.293 155.352C343.256 155.721 344.168 156.213 345.006 156.816C345.938 157.4 346.849 157.994 347.75 158.608C349.563 159.837 351.355 161.107 353.096 162.428C353.178 162.428 353.096 162.612 353.024 162.561C351.212 161.342 349.389 160.144 347.525 159.008C346.593 158.434 345.661 157.871 344.719 157.318C343.801 156.846 342.936 156.276 342.139 155.618C342.118 155.592 342.105 155.561 342.102 155.527C342.099 155.494 342.106 155.461 342.123 155.432C342.14 155.403 342.165 155.379 342.195 155.365C342.226 155.351 342.26 155.346 342.293 155.352Z" fill="#263238"/>
<path d="M338.176 163.707C339.045 164.048 339.849 164.537 340.552 165.151L343.04 166.912C344.678 168.049 346.327 169.185 348.006 170.261C348.088 170.312 348.006 170.445 347.924 170.394C346.214 169.308 344.484 168.254 342.804 167.148L340.306 165.52C339.503 165.089 338.782 164.52 338.176 163.84C338.167 163.84 338.159 163.838 338.15 163.835C338.142 163.832 338.135 163.827 338.129 163.821C338.123 163.814 338.118 163.807 338.114 163.799C338.111 163.791 338.109 163.782 338.109 163.774C338.109 163.765 338.111 163.756 338.114 163.748C338.118 163.74 338.123 163.733 338.129 163.727C338.135 163.72 338.142 163.715 338.15 163.712C338.159 163.709 338.167 163.707 338.176 163.707Z" fill="#263238"/>
<path d="M365.23 189.339L385.823 168.961C385.823 168.961 394.68 175.105 397.977 180.583C401.275 186.062 404.326 193.066 401.551 197.131C398.776 201.196 386.396 204.125 365.23 189.339Z" fill="#00AA7E"/>
<path d="M365.548 191.375L357.018 185.641L381.235 162.621L388.874 169.41L365.548 191.375Z" fill="#00AA7E"/>
<path d="M366.08 190.873C367.749 189.01 369.5 187.228 371.262 185.457C373.023 183.685 374.784 181.965 376.627 180.224C378.47 178.483 380.273 176.824 382.147 175.176L384.973 172.718C385.935 171.919 386.878 171.11 387.871 170.332C387.041 171.274 386.161 172.165 385.311 173.087L382.689 175.749C380.938 177.531 379.136 179.251 377.324 180.961C375.511 182.671 373.678 184.361 371.794 186.009C369.91 187.658 368.036 189.317 366.08 190.873Z" fill="#263238"/>
<path d="M379.505 164.23C380.037 163.646 380.59 163.083 381.133 162.519L381.215 162.438L381.317 162.519C382.659 163.543 383.949 164.69 385.27 165.776L389.13 169.124L389.437 169.39L389.13 169.687L388.106 170.63V170.056C389.704 171.334 391.229 172.702 392.673 174.152C394.115 175.6 395.463 177.139 396.708 178.76C395.254 177.337 393.789 175.924 392.284 174.562C390.779 173.2 389.212 171.858 387.645 170.64L387.297 170.384L387.625 170.077C387.953 169.749 388.28 169.431 388.649 169.124V169.677L384.86 166.247C383.631 165.069 382.372 163.922 381.153 162.714H381.348C380.723 163.226 380.119 163.738 379.505 164.23Z" fill="#263238"/>
<path d="M392.448 174.348C393.024 174.392 393.584 174.564 394.086 174.849C394.598 175.127 395.028 175.533 395.336 176.027C394.818 175.82 394.315 175.577 393.83 175.3C393.337 175.032 392.874 174.713 392.448 174.348Z" fill="#263238"/>
<path d="M358.154 184.557C357.827 184.966 357.468 185.355 357.13 185.755V185.519C360.119 187.197 362.986 189.082 365.711 191.161H365.414C365.845 190.844 366.275 190.527 366.725 190.23L366.817 190.168L366.879 190.219C367.186 190.486 367.503 190.752 367.8 191.039L366.776 190.434H366.94C366.561 190.824 366.172 191.192 365.793 191.561L365.66 191.684L365.486 191.571C362.531 189.832 359.701 187.889 357.018 185.755L356.864 185.632L356.997 185.519C357.376 185.202 357.734 184.874 358.154 184.557Z" fill="#263238"/>
<path d="M325.069 133.009C328.827 134.309 336.036 129.097 339.128 124.592C339.343 124.284 339.19 120.793 339.21 116.533C339.21 113.942 339.313 111.065 339.579 108.443C339.64 107.911 322.744 110.768 322.744 110.768C323.349 114.145 323.538 117.584 323.308 121.008C323.26 121.354 323.185 121.697 323.082 122.032C323.082 122.032 323.082 122.144 323.082 122.206C322.499 124.233 321.434 131.749 325.069 133.009Z" fill="#FFC4C0"/>
<path d="M338.565 108.412C337.347 112.764 333.507 123.188 324.721 122.492C324.155 122.45 323.594 122.365 323.041 122.236C323.038 122.175 323.038 122.113 323.041 122.052C323.148 121.718 323.223 121.375 323.267 121.028C323.497 117.604 323.308 114.165 322.703 110.788C322.703 110.788 334.93 108.699 338.565 108.412Z" fill="#263238"/>
<path d="M341.442 87.3992C343.49 93.1848 340.971 110.204 336.937 114.126C331.1 119.809 321.249 120.689 316.334 113.603C311.583 106.732 315.208 84.6139 319.734 81.0197C326.39 75.7768 338.493 78.8488 341.442 87.3992Z" fill="#FFC4C0"/>
<path d="M327.967 97.8848C327.967 97.8848 328.049 97.9564 328.038 98.0076C327.844 99.1443 327.803 100.486 328.786 101.018C328.786 101.018 328.786 101.09 328.786 101.08C327.526 100.721 327.598 98.9395 327.967 97.8848Z" fill="#263238"/>
<path d="M329.155 96.84C331.018 96.9526 330.65 100.68 328.919 100.567C327.189 100.455 327.598 96.7376 329.155 96.84Z" fill="#263238"/>
<path d="M321.341 97.2188C321.341 97.2188 321.249 97.2187 321.249 97.3109C321.167 98.4578 320.881 99.7685 319.795 100.055V100.117C321.085 100.065 321.454 98.3042 321.341 97.2188Z" fill="#263238"/>
<path d="M320.44 95.9092C318.597 95.5815 318.075 99.2782 319.775 99.5854C321.474 99.8926 321.976 96.1857 320.44 95.9092Z" fill="#263238"/>
<path d="M331.51 94.5662C330.998 94.7095 330.486 94.7505 329.994 94.8426C329.476 95.0167 328.915 95.0167 328.397 94.8426C328.247 94.7543 328.131 94.6191 328.066 94.458C328.001 94.297 327.992 94.119 328.038 93.9518C328.182 93.6337 328.408 93.3593 328.692 93.1561C328.976 92.953 329.309 92.8283 329.656 92.7946C330.349 92.6318 331.077 92.7264 331.704 93.0609C331.838 93.1468 331.945 93.2689 332.012 93.413C332.079 93.5572 332.104 93.7174 332.083 93.8751C332.063 94.0328 331.998 94.1814 331.897 94.3038C331.795 94.4261 331.661 94.5171 331.51 94.5662Z" fill="#263238"/>
<path d="M318.792 93.8508C319.274 94.0251 319.767 94.1721 320.266 94.2911C320.765 94.51 321.321 94.5638 321.853 94.4447C322.013 94.3707 322.143 94.2464 322.224 94.0909C322.306 93.9355 322.334 93.7575 322.304 93.5845C322.196 93.2531 322.002 92.9567 321.741 92.7261C321.48 92.4955 321.161 92.3393 320.819 92.2738C320.16 92.0207 319.43 92.0207 318.771 92.2738C318.61 92.335 318.472 92.4442 318.375 92.5865C318.279 92.7288 318.228 92.8974 318.23 93.0694C318.233 93.2415 318.288 93.4087 318.388 93.5485C318.488 93.6882 318.629 93.7937 318.792 93.8508Z" fill="#263238"/>
<path d="M327.486 108.688C327.178 108.923 326.871 109.271 326.462 109.261C326.034 109.214 325.622 109.074 325.253 108.852C325.253 108.852 325.171 108.852 325.192 108.852C325.336 109.094 325.542 109.293 325.788 109.43C326.035 109.566 326.313 109.635 326.595 109.63C326.839 109.594 327.066 109.486 327.249 109.32C327.431 109.154 327.56 108.938 327.619 108.698C327.619 108.688 327.526 108.647 327.486 108.688Z" fill="#263238"/>
<path d="M326.482 107.224C324.229 106.661 321.546 106.425 321.536 106.292L322.017 103.65C321.669 103.773 319.969 104.357 319.969 103.896C320.491 99.901 321.418 95.9692 322.734 92.1611C322.741 92.1382 322.755 92.1181 322.775 92.1039C322.794 92.0897 322.818 92.082 322.842 92.082C322.866 92.082 322.889 92.0897 322.908 92.1039C322.928 92.1181 322.942 92.1382 322.949 92.1611C322.499 95.8475 321.403 99.4315 320.901 103.138C321.513 102.917 322.155 102.789 322.806 102.759C322.712 103.792 322.555 104.818 322.335 105.831C323.775 106.01 325.186 106.375 326.533 106.917C326.656 107.04 326.595 107.255 326.482 107.224Z" fill="#263238"/>
<path d="M341.053 103.661C338.534 103.036 337.244 99.3806 337.244 94.5166C337.244 90.8814 336.22 85.4952 332.513 84.7784C328.417 83.9796 326.605 86.8264 324.045 86.6625C321.7 86.5192 321.536 83.9694 319.764 83.9694C317.993 83.9694 316.836 86.0174 315.822 89.3352C316.846 85.362 318.095 81.6244 319.58 80.4468C326.246 75.1528 338.934 77.9483 341.883 86.4884C343.04 89.7755 342.272 97.5886 341.053 103.661Z" fill="#263238"/>
<path d="M338.33 101.305C338.33 101.305 342.067 95.7755 344.576 97.0965C347.085 98.4174 344.33 106.394 341.432 107.531C341.071 107.702 340.679 107.798 340.28 107.813C339.881 107.829 339.483 107.763 339.11 107.621C338.737 107.478 338.396 107.262 338.109 106.984C337.822 106.706 337.594 106.373 337.439 106.005L338.33 101.305Z" fill="#FFC4C0"/>
<path d="M343.726 99.3281V99.3998C341.678 100.26 340.654 102.175 339.927 104.151C340.042 103.944 340.201 103.763 340.393 103.623C340.585 103.483 340.804 103.386 341.037 103.34C341.27 103.293 341.51 103.297 341.741 103.353C341.972 103.408 342.188 103.513 342.374 103.66C342.426 103.66 342.374 103.783 342.313 103.772C341.951 103.664 341.565 103.671 341.207 103.792C340.849 103.913 340.538 104.143 340.316 104.448C339.949 104.96 339.636 105.509 339.384 106.087C339.292 106.271 338.964 106.179 339.026 105.964C338.944 103.352 340.992 99.6763 343.726 99.3281Z" fill="#263238"/>
<path d="M322.837 122.573L327.148 132.619L339.436 119.604L343.071 123.628C343.071 123.628 331.233 144.108 331.131 143.237L326.799 134.626L320.922 140.77L321.096 125.573L322.837 122.573Z" fill="#00AA7E"/>
<path d="M320.563 133.285C320.676 130.776 320.727 128.247 320.952 125.749C320.952 125.667 321.096 125.615 321.126 125.749C321.669 128.155 321.188 137.74 321.249 140.033C321.495 139.767 326.707 134.596 326.758 134.678C327.69 136.04 330.854 142.307 331.09 142.87C332.964 139.614 340.152 127.756 342.354 124.663C342.368 124.65 342.386 124.642 342.405 124.639C342.424 124.637 342.443 124.641 342.46 124.65C342.477 124.659 342.49 124.673 342.499 124.69C342.507 124.707 342.51 124.726 342.508 124.745C340.859 128.186 331.356 144.15 331.244 144.099C329.573 141.149 328.059 138.114 326.707 135.006C325.827 136.122 320.563 141.938 320.563 141.569C320.418 138.81 320.418 136.045 320.563 133.285Z" fill="#263238"/>
<path d="M347.935 90.9318C347.535 91.5564 344.945 91.0956 344.576 91.2082L342.682 92.7033C342.682 92.7033 332.339 83.8354 329.789 82.9958C327.24 82.1561 315.761 82.709 315.761 82.709L314.491 77.2102C314.491 77.2102 309.606 73.7286 309.371 71.2095C309.217 69.7042 321.659 65.8847 331.407 69.4482C343.726 73.9743 350.106 87.5321 347.935 90.9318Z" fill="#37474F"/>
<path d="M344.586 91.2079L342.681 92.6927C342.681 92.6927 332.339 83.8351 329.789 82.9954C327.24 82.1558 315.76 82.7087 315.76 82.7087C315.76 82.7087 314.542 77.6604 314.491 77.2098C314.491 77.2098 327.864 75.7046 332.073 78.7663C336.281 81.8281 342.18 86.4566 344.586 91.2079Z" fill="#263238"/>
<path d="M318.525 76.4108C318.679 77.6051 318.909 78.7884 319.211 79.9538C319.508 80.7116 321.413 81.1622 321.413 81.1622C321.413 81.1622 323.297 80.5887 323.461 79.9948C323.478 78.6957 323.385 77.3975 323.185 76.1138C322.695 76.1586 322.202 76.0895 321.743 75.9118C321.285 75.7342 320.874 75.4528 320.543 75.0898C320.374 75.484 320.092 75.8195 319.733 76.0544C319.374 76.2894 318.954 76.4133 318.525 76.4108Z" fill="#00AA7E"/>
<path d="M342.682 92.7031C342.682 92.7031 336.896 89.8768 332.8 89.4467C329.329 89.0781 319.621 88.5046 316.918 88.6378C312.975 88.8221 306.78 84.0605 308.285 82.6781C310.784 80.3639 326.595 81.8794 329.882 82.8931C334.909 84.4394 342.682 92.7031 342.682 92.7031Z" fill="#37474F"/>
<path d="M340.531 90.563C340.555 90.7614 340.637 90.9483 340.767 91.1008C340.896 91.2532 341.067 91.3644 341.259 91.4207C341.451 91.4769 341.655 91.4758 341.846 91.4175C342.038 91.3591 342.208 91.246 342.335 91.0922C342.463 90.9384 342.543 90.7506 342.565 90.5519C342.587 90.3532 342.551 90.1524 342.46 89.9741C342.37 89.7959 342.229 89.6481 342.055 89.5489C341.882 89.4497 341.683 89.4036 341.483 89.4161C341.344 89.4248 341.208 89.4619 341.084 89.5252C340.959 89.5884 340.849 89.6765 340.76 89.7839C340.67 89.8913 340.604 90.0158 340.565 90.1498C340.526 90.2838 340.514 90.4244 340.531 90.563Z" fill="#EBEBEB"/>
<path d="M126.87 144.904V153.992H103.574C102.635 153.992 101.824 153.907 101.142 153.736L102.934 172.552L94.8695 173.448L91.9255 142.6C91.8828 142.515 91.8615 142.365 91.8615 142.152L90.8375 131.464L98.9015 130.568L99.9895 141.768C100.16 142.92 100.502 143.731 101.014 144.2C101.568 144.627 102.379 144.861 103.446 144.904C102.934 143.496 102.678 142.003 102.678 140.424C102.678 136.627 103.958 133.427 106.518 130.824C109.12 128.179 112.278 126.856 115.99 126.856C117.099 126.856 118.55 127.155 120.342 127.752C122.134 128.307 123.606 128.861 124.758 129.416C125.952 129.928 126.592 130.227 126.678 130.312L123.094 138.376C119.04 136.84 116.672 136.029 115.99 135.944C114.539 135.645 113.302 135.987 112.278 136.968C111.254 137.907 110.742 139.059 110.742 140.424C110.742 141.704 111.126 142.771 111.894 143.624C112.704 144.477 113.686 144.904 114.838 144.904H126.87ZM159.578 149.256C161.967 151.731 163.162 154.717 163.162 158.216C163.162 161.715 161.967 164.723 159.578 167.24C157.189 169.715 154.287 170.952 150.874 170.952C147.503 170.952 144.623 169.715 142.234 167.24C139.845 164.723 138.65 161.715 138.65 158.216C138.65 154.717 139.845 151.731 142.234 149.256C144.623 146.739 147.503 145.48 150.874 145.48C154.287 145.48 157.189 146.739 159.578 149.256ZM154.138 161.224C155.077 160.413 155.546 159.411 155.546 158.216C155.546 157.021 155.077 156.019 154.138 155.208C153.242 154.397 152.154 153.992 150.874 153.992C149.637 153.992 148.549 154.419 147.61 155.272C146.714 156.083 146.266 157.064 146.266 158.216C146.266 159.368 146.714 160.371 147.61 161.224C148.549 162.035 149.637 162.44 150.874 162.44C152.154 162.44 153.242 162.035 154.138 161.224ZM216.889 141.512C217.187 144.84 216.142 147.763 213.753 150.28C211.363 152.755 208.505 153.992 205.177 153.992H204.537C201.635 153.992 199.118 152.968 196.985 150.92C194.723 152.968 192.121 153.992 189.177 153.992H187.897C186.873 153.992 185.913 153.864 185.017 153.608L186.873 172.552L178.809 173.448L174.713 131.528L182.777 130.632L183.801 141.256C184.142 143.688 185.379 144.904 187.513 144.904H189.177C190.201 144.904 191.054 144.627 191.737 144.072C192.462 143.475 192.803 142.771 192.761 141.96V141.896L191.865 133L199.993 132.104L200.889 141.448C201.102 143.752 202.318 144.904 204.537 144.904H205.177C206.201 144.904 207.075 144.605 207.801 144.008C208.526 143.411 208.867 142.707 208.825 141.896L207.801 131.528L215.865 130.632L216.889 141.512Z" fill="white"/>
</svg>
