<svg width="336" height="80" viewBox="0 0 336 80" fill="none" xmlns="http://www.w3.org/2000/svg">
<path d="M36 64H300V66C300 73.732 293.732 80 286 80H50C42.268 80 36 73.732 36 66V64Z" fill="#EEEEEE"/>
<path d="M18 49H318V58C318 65.732 311.732 72 304 72H32C24.268 72 18 65.732 18 58V49Z" fill="#D8D8D8"/>
<rect width="336" height="64" rx="14" fill="#00AA7E"/>
<path d="M147.664 33.444V36C147.256 36 146.968 35.994 146.8 35.982C146.848 37.122 146.494 38.022 145.738 38.682C144.994 39.342 143.794 39.864 142.138 40.248C141.106 40.452 140.176 40.482 139.348 40.338C138.532 40.194 137.842 39.846 137.278 39.294C136.714 38.754 136.288 38.094 136 37.314C135.724 36.534 135.61 35.616 135.658 34.56C135.706 33.504 135.934 32.394 136.342 31.23L138.502 32.076C137.782 34.164 137.71 35.724 138.286 36.756C138.862 37.8 139.978 38.13 141.634 37.746C142.87 37.458 143.674 37.2 144.046 36.972C144.43 36.744 144.586 36.36 144.514 35.82C144.502 35.676 144.28 35.52 143.848 35.352L142.048 34.776L142.732 32.346C144.484 32.826 145.624 33.132 146.152 33.264C146.692 33.384 147.196 33.444 147.664 33.444ZM152.504 33.444H152.864V36H152.504C151.616 36 150.872 35.73 150.272 35.19C149.66 35.73 148.868 36 147.896 36H147.446V33.444H147.896C148.364 33.444 148.676 33.366 148.832 33.21C149 33.054 149.078 32.832 149.066 32.544L148.724 23.634L150.992 23.526L151.334 32.328C151.346 32.748 151.448 33.042 151.64 33.21C151.844 33.366 152.132 33.444 152.504 33.444ZM162.675 28.278C163.731 28.278 164.613 28.662 165.321 29.43C166.041 30.198 166.401 31.146 166.401 32.274C166.401 33.27 166.029 34.14 165.285 34.884C164.553 35.628 163.683 36 162.675 36H156.951C156.255 36 155.649 35.754 155.133 35.262C154.497 35.73 153.711 35.976 152.775 36H152.685V33.444H152.775C153.231 33.444 153.573 33.372 153.801 33.228C154.041 33.072 154.179 32.802 154.215 32.418L154.413 30.186L156.681 30.402L156.483 32.616C156.435 33.168 156.597 33.444 156.969 33.444H156.987L158.103 31.896C159.087 30.54 159.879 29.598 160.479 29.07C161.091 28.542 161.823 28.278 162.675 28.278ZM162.675 33.444C163.047 33.444 163.377 33.324 163.665 33.084C163.965 32.832 164.115 32.562 164.115 32.274C164.115 31.854 163.983 31.512 163.719 31.248C163.455 30.972 163.107 30.834 162.675 30.834C162.267 30.834 161.895 31.002 161.559 31.338C161.223 31.662 160.701 32.328 159.993 33.336L159.921 33.444H162.675ZM169.113 36.072L168.627 23.634L170.913 23.526L171.381 35.964L169.113 36.072ZM186.696 33.444H187.038V36H186.696C186.06 36 185.466 35.856 184.914 35.568C184.374 35.28 183.918 34.884 183.546 34.38L181.728 34.668C181.032 34.764 180.336 34.572 179.64 34.092C178.956 33.612 178.494 33.006 178.254 32.274C177.942 31.374 178.002 30.48 178.434 29.592C178.866 28.692 179.52 28.098 180.396 27.81L182.736 27.054V26.424H185.004V31.896C185.004 32.328 185.166 32.694 185.49 32.994C185.814 33.294 186.216 33.444 186.696 33.444ZM181.53 32.13C181.698 32.106 182.1 32.04 182.736 31.932V31.896V29.556L181.116 30.132C180.816 30.24 180.6 30.408 180.468 30.636C180.348 30.852 180.318 31.092 180.378 31.356C180.438 31.596 180.576 31.8 180.792 31.968C181.02 32.124 181.266 32.178 181.53 32.13ZM198.179 33.444H199.331V36H198.179C197.591 36 197.039 35.85 196.523 35.55C196.019 35.238 195.623 34.824 195.335 34.308L192.527 35.172C190.715 35.724 188.855 36 186.947 36H186.857V33.444H186.965C188.501 33.42 190.139 33.18 191.879 32.724L195.335 31.824L192.347 30.474C191.903 30.246 191.465 30.198 191.033 30.33C190.613 30.462 190.277 30.738 190.025 31.158L189.701 31.734L187.721 30.492L188.081 29.844C188.705 28.8 189.509 28.14 190.493 27.864C191.489 27.576 192.479 27.702 193.463 28.242L198.071 30.69L197.747 33.372C197.915 33.42 198.059 33.444 198.179 33.444ZM205.624 24.768L203.968 26.442L202.312 24.768L203.968 23.112L205.624 24.768ZM207.1 33.444H208.144V36H207.1C206.008 36 204.874 35.778 203.698 35.334C202.438 35.778 201.232 36 200.08 36H199.144V33.444H200.08C200.356 33.444 200.566 33.438 200.71 33.426C200.302 32.898 200.122 32.406 200.17 31.95L200.278 30.888C200.386 29.88 200.818 29.07 201.574 28.458C202.342 27.834 203.218 27.576 204.202 27.684C205.138 27.78 205.9 28.218 206.488 28.998C207.076 29.778 207.34 30.648 207.28 31.608L207.226 32.436C207.214 32.76 207.07 33.096 206.794 33.444H207.1ZM202.438 32.058C202.678 32.382 203.074 32.658 203.626 32.886C204.382 32.658 204.826 32.418 204.958 32.166L205.03 31.59C205.078 31.266 204.988 30.966 204.76 30.69C204.544 30.414 204.262 30.252 203.914 30.204C203.554 30.168 203.236 30.258 202.96 30.474C202.684 30.69 202.534 30.972 202.51 31.32L202.438 32.058ZM217.959 28.278C219.015 28.278 219.897 28.662 220.605 29.43C221.325 30.198 221.685 31.146 221.685 32.274C221.685 33.27 221.313 34.14 220.569 34.884C219.837 35.628 218.967 36 217.959 36H212.235C211.539 36 210.933 35.754 210.417 35.262C209.781 35.73 208.995 35.976 208.059 36H207.969V33.444H208.059C208.515 33.444 208.857 33.372 209.085 33.228C209.325 33.072 209.463 32.802 209.499 32.418L209.697 30.186L211.965 30.402L211.767 32.616C211.719 33.168 211.881 33.444 212.253 33.444H212.271L213.387 31.896C214.371 30.54 215.163 29.598 215.763 29.07C216.375 28.542 217.107 28.278 217.959 28.278ZM217.959 33.444C218.331 33.444 218.661 33.324 218.949 33.084C219.249 32.832 219.399 32.562 219.399 32.274C219.399 31.854 219.267 31.512 219.003 31.248C218.739 30.972 218.391 30.834 217.959 30.834C217.551 30.834 217.179 31.002 216.843 31.338C216.507 31.662 215.985 32.328 215.277 33.336L215.205 33.444H217.959ZM236.09 33.444H236.432V36H236.09C235.454 36 234.86 35.856 234.308 35.568C233.768 35.28 233.312 34.884 232.94 34.38L231.122 34.668C230.426 34.764 229.73 34.572 229.034 34.092C228.35 33.612 227.888 33.006 227.648 32.274C227.336 31.374 227.396 30.48 227.828 29.592C228.26 28.692 228.914 28.098 229.79 27.81L232.13 27.054V26.424H234.398V31.896C234.398 32.328 234.56 32.694 234.884 32.994C235.208 33.294 235.61 33.444 236.09 33.444ZM230.924 32.13C231.092 32.106 231.494 32.04 232.13 31.932V31.896V29.556L230.51 30.132C230.21 30.24 229.994 30.408 229.862 30.636C229.742 30.852 229.712 31.092 229.772 31.356C229.832 31.596 229.97 31.8 230.186 31.968C230.414 32.124 230.66 32.178 230.924 32.13ZM236.252 36V33.444H237.674C238.322 33.444 238.76 33.33 238.988 33.102C239.216 32.862 239.246 32.43 239.078 31.806L238.358 29.124L240.554 28.476L241.274 31.158C241.658 32.586 241.496 33.75 240.788 34.65C240.08 35.55 239.042 36 237.674 36H236.252ZM237.566 40.32L235.91 38.646L237.566 36.99L239.24 38.646L237.566 40.32ZM254.822 28.26L253.346 29.736L251.87 28.26L253.346 26.784L254.822 28.26ZM258.422 28.26L256.946 29.736L255.47 28.26L256.946 26.784L258.422 28.26ZM264.02 33.444V36C263.084 36 262.322 35.76 261.734 35.28C261.122 35.76 260.348 36 259.412 36H255.074C253.082 36 251.732 35.97 251.024 35.91C250.328 35.85 249.722 35.706 249.206 35.478C248.39 35.118 247.826 34.548 247.514 33.768C247.202 32.988 247.172 32.106 247.424 31.122L248.108 28.494L250.304 29.16L249.602 31.878C249.506 32.238 249.494 32.508 249.566 32.688C249.638 32.856 249.818 33.006 250.106 33.138C250.37 33.246 250.808 33.324 251.42 33.372C252.032 33.42 253.25 33.444 255.074 33.444H259.412C259.868 33.444 260.18 33.384 260.348 33.264C260.528 33.132 260.606 32.928 260.582 32.652V32.616L260.384 30.402L262.652 30.186L262.85 32.4V32.418C262.886 32.826 262.982 33.102 263.138 33.246C263.294 33.378 263.588 33.444 264.02 33.444ZM272.292 24.894L271.086 26.1L269.88 24.894L271.086 23.688L272.292 24.894ZM270.762 27.504L269.286 28.98L267.81 27.504L269.286 26.028L270.762 27.504ZM272.868 28.98L271.392 27.504L272.868 26.028L274.344 27.504L272.868 28.98ZM278.232 33.444V36C277.248 36 276.402 35.664 275.694 34.992C275.094 35.664 274.296 36 273.3 36C272.448 36 271.704 35.682 271.068 35.046C270.468 35.682 269.694 36 268.746 36C267.918 36 267.204 35.688 266.604 35.064C265.98 35.688 265.23 36 264.354 36H263.832V33.444H264.354C264.834 33.444 265.146 33.366 265.29 33.21C265.446 33.054 265.524 32.82 265.524 32.508V30.276H267.666V32.508C267.702 33.132 268.062 33.444 268.746 33.444C269.214 33.444 269.526 33.366 269.682 33.21C269.838 33.042 269.916 32.808 269.916 32.508V30.276H272.04V32.508C272.04 32.532 272.04 32.568 272.04 32.616C272.052 32.652 272.076 32.724 272.112 32.832C272.148 32.928 272.202 33.018 272.274 33.102C272.346 33.174 272.454 33.246 272.598 33.318C272.754 33.378 272.934 33.408 273.138 33.408C273.642 33.408 273.984 33.33 274.164 33.174C274.356 33.006 274.41 32.796 274.326 32.544L273.732 30.33L275.784 29.718L276.378 31.932C276.39 31.956 276.396 31.992 276.396 32.04C276.516 32.472 276.744 32.814 277.08 33.066C277.416 33.318 277.8 33.444 278.232 33.444ZM284.047 21.726L279.655 23.31L279.097 21.762L283.489 20.178L284.047 21.726ZM281.455 26.676L284.299 30.87C284.779 31.614 285.031 32.358 285.055 33.102C285.079 33.834 284.887 34.44 284.479 34.92C283.939 35.64 283.099 36 281.959 36H278.053V33.444H281.995C282.235 33.444 282.403 33.402 282.499 33.318C282.799 33.078 282.823 32.772 282.571 32.4L278.611 26.784L279.115 24.858L285.631 22.464L286.441 24.84L281.455 26.676ZM289.935 28.728L288.261 27.072L289.935 25.398L291.591 27.072L289.935 28.728ZM286.893 40.608L286.299 38.142C287.787 37.734 288.711 37.416 289.071 37.188C289.551 36.888 289.761 36.402 289.701 35.73C289.701 35.694 289.695 35.652 289.683 35.604L288.963 30.438L291.213 30.096L291.933 35.298C292.137 36.822 291.831 37.956 291.015 38.7C290.211 39.444 288.837 40.08 286.893 40.608ZM297.895 36C296.623 36 295.717 35.694 295.177 35.082C294.637 34.47 294.337 33.414 294.277 31.914L293.953 23.634L296.221 23.526L296.545 31.914C296.557 32.622 296.629 33.054 296.761 33.21C296.905 33.366 297.283 33.444 297.895 33.444H298.075V36H297.895ZM297.898 36V33.444H299.32C299.968 33.444 300.406 33.33 300.634 33.102C300.862 32.862 300.892 32.43 300.724 31.806L300.004 29.124L302.2 28.476L302.92 31.158C303.304 32.586 303.142 33.75 302.434 34.65C301.726 35.55 300.688 36 299.32 36H297.898ZM299.212 40.32L297.556 38.646L299.212 36.99L300.886 38.646L299.212 40.32Z" fill="white"/>
<path d="M52.2125 40.175L44.7875 32.75C44.6625 32.625 44.575 32.5 44.525 32.375C44.475 32.25 44.45 32.1125 44.45 31.9625C44.45 31.8125 44.475 31.675 44.525 31.55C44.575 31.425 44.6625 31.3 44.7875 31.175L52.25 23.7125C52.475 23.4875 52.7438 23.375 53.0563 23.375C53.3688 23.375 53.6375 23.4875 53.8625 23.7125C54.0875 23.9375 54.1938 24.2125 54.1813 24.5375C54.1688 24.8625 54.05 25.1375 53.825 25.3625L47.225 31.9625L53.8625 38.6C54.0875 38.825 54.2 39.0875 54.2 39.3875C54.2 39.6875 54.0875 39.95 53.8625 40.175C53.6375 40.4 53.3625 40.5125 53.0375 40.5125C52.7125 40.5125 52.4375 40.4 52.2125 40.175Z" fill="white"/>
</svg>
