<svg width="500" height="373" viewBox="0 0 500 373" fill="none" xmlns="http://www.w3.org/2000/svg">
<path d="M500 327.4H0V327.65H500V327.4Z" fill="#EBEBEB"/>
<path d="M449.9 343.49H416.78V343.74H449.9V343.49Z" fill="#EBEBEB"/>
<path d="M331.22 346.21H322.53V346.46H331.22V346.21Z" fill="#EBEBEB"/>
<path d="M415.78 334.21H396.59V334.46H415.78V334.21Z" fill="#EBEBEB"/>
<path d="M95.65 335.89H52.46V336.14H95.65V335.89Z" fill="#EBEBEB"/>
<path d="M110.89 335.89H104.56V336.14H110.89V335.89Z" fill="#EBEBEB"/>
<path d="M225.15 340.11H131.47V340.36H225.15V340.11Z" fill="#EBEBEB"/>
<path d="M237 282.8H43.91C42.3973 282.797 40.9475 282.195 39.8788 281.124C38.8102 280.053 38.21 278.603 38.21 277.09V5.66C38.2231 4.15602 38.8292 2.71798 39.8964 1.65822C40.9637 0.598458 42.4059 0.00257639 43.91 0H237C238.514 0 239.967 0.601588 241.038 1.67242C242.108 2.74325 242.71 4.19561 242.71 5.71V277.09C242.71 278.604 242.108 280.057 241.038 281.128C239.967 282.198 238.514 282.8 237 282.8ZM43.91 0.200001C42.4636 0.20265 41.0774 0.779065 40.0556 1.80273C39.0338 2.82639 38.46 4.21365 38.46 5.66V277.09C38.46 278.536 39.0338 279.924 40.0556 280.947C41.0774 281.971 42.4636 282.547 43.91 282.55H237C238.447 282.547 239.834 281.971 240.858 280.948C241.881 279.924 242.457 278.537 242.46 277.09V5.66C242.457 4.21273 241.881 2.82549 240.858 1.80212C239.834 0.77874 238.447 0.202644 237 0.200001H43.91Z" fill="#EBEBEB"/>
<path d="M453.31 282.8H260.21C258.696 282.797 257.246 282.195 256.175 281.125C255.105 280.054 254.503 278.604 254.5 277.09V5.66C254.516 4.15511 255.124 2.71708 256.193 1.65759C257.262 0.598109 258.705 0.00254829 260.21 0H453.31C454.812 0.0052045 456.252 0.602249 457.317 1.66173C458.382 2.72121 458.987 4.15775 459 5.66V277.09C459 278.601 458.401 280.05 457.335 281.121C456.268 282.191 454.821 282.795 453.31 282.8ZM260.21 0.200001C258.763 0.202644 257.375 0.77874 256.352 1.80212C255.329 2.82549 254.753 4.21273 254.75 5.66V277.09C254.753 278.537 255.329 279.924 256.352 280.948C257.375 281.971 258.763 282.547 260.21 282.55H453.31C454.757 282.547 456.145 281.971 457.168 280.948C458.191 279.924 458.767 278.537 458.77 277.09V5.66C458.767 4.21273 458.191 2.82549 457.168 1.80212C456.145 0.77874 454.757 0.202644 453.31 0.200001H260.21Z" fill="#EBEBEB"/>
<path d="M359.66 114.43H407.69L406.95 107.94H358.92L359.66 114.43Z" fill="#F5F5F5"/>
<path d="M363.1 144.79H411.13L410.39 138.3H362.36L363.1 144.79Z" fill="#F5F5F5"/>
<path d="M366.54 175.15H414.57L413.83 168.65H365.8L366.54 175.15Z" fill="#F5F5F5"/>
<path d="M369.97 205.5H418.01L417.27 199.01H369.24L369.97 205.5Z" fill="#F5F5F5"/>
<path d="M373.41 235.86H421.44L420.71 229.36H372.68L373.41 235.86Z" fill="#F5F5F5"/>
<path d="M376.85 266.21H424.88L424.15 259.72H376.12L376.85 266.21Z" fill="#F5F5F5"/>
<path d="M380.29 296.57H428.32L427.59 290.07H379.56L380.29 296.57Z" fill="#F5F5F5"/>
<path d="M428.52 327.45H436.04L409.7 95.02H402.18L428.52 327.45Z" fill="#EBEBEB"/>
<path d="M379.57 327.45H387.1L360.76 95.02H353.24L379.57 327.45Z" fill="#EBEBEB"/>
<path d="M288.51 63.3L412.37 63.3V56.16L288.51 56.16V63.3Z" fill="#F0F0F0"/>
<path d="M311.26 36.7L310.53 35.7C310.404 35.5194 310.237 35.3716 310.042 35.269C309.847 35.1663 309.63 35.1118 309.41 35.11H304.33C304.117 35.1073 303.907 35.1604 303.721 35.2639C303.536 35.3674 303.38 35.5177 303.27 35.7L302.67 36.7C302.559 36.8815 302.404 37.0313 302.218 37.1347C302.032 37.2381 301.823 37.2916 301.61 37.29H298.61C298.44 37.2881 298.271 37.3216 298.114 37.3884C297.958 37.4551 297.817 37.5537 297.7 37.6777C297.584 37.8018 297.494 37.9487 297.437 38.1092C297.38 38.2697 297.358 38.4402 297.37 38.61L298.37 55.61C298.393 55.963 298.547 56.2946 298.803 56.5391C299.058 56.7837 299.396 56.9231 299.75 56.93H323.75C323.92 56.9319 324.088 56.8984 324.244 56.8316C324.4 56.7647 324.541 56.666 324.657 56.5417C324.772 56.4175 324.861 56.2704 324.917 56.11C324.972 55.9495 324.994 55.7792 324.98 55.61L323.98 38.61C323.958 38.2569 323.803 37.9253 323.547 37.6808C323.292 37.4363 322.954 37.2968 322.6 37.29H312.38C312.16 37.2881 311.943 37.2336 311.748 37.131C311.554 37.0283 311.386 36.8805 311.26 36.7Z" fill="#E0E0E0"/>
<path d="M325 38.91H303C302.549 38.9171 302.116 39.0887 301.783 39.3926C301.45 39.6964 301.239 40.1116 301.19 40.56L299.86 55.26C299.837 55.4712 299.86 55.6849 299.926 55.8867C299.993 56.0885 300.101 56.2737 300.245 56.43C300.389 56.5863 300.565 56.7099 300.761 56.7927C300.956 56.8755 301.168 56.9155 301.38 56.91H323.38C323.831 56.9028 324.264 56.7312 324.597 56.4274C324.93 56.1235 325.141 55.7084 325.19 55.26L326.51 40.56C326.534 40.3493 326.513 40.1358 326.448 39.934C326.383 39.7321 326.275 39.5467 326.132 39.3902C325.988 39.2338 325.813 39.1099 325.618 39.027C325.423 38.9442 325.212 38.9042 325 38.91Z" fill="#E6E6E6"/>
<path d="M351.26 36.7L350.53 35.7C350.404 35.5194 350.237 35.3716 350.042 35.269C349.847 35.1663 349.63 35.1118 349.41 35.11H344.33C344.117 35.1073 343.907 35.1604 343.721 35.2639C343.536 35.3674 343.38 35.5177 343.27 35.7L342.67 36.7C342.559 36.8815 342.404 37.0313 342.218 37.1347C342.032 37.2381 341.823 37.2916 341.61 37.29H338.61C338.44 37.2881 338.271 37.3216 338.114 37.3884C337.958 37.4551 337.817 37.5537 337.7 37.6777C337.584 37.8018 337.494 37.9487 337.437 38.1092C337.38 38.2697 337.358 38.4402 337.37 38.61L338.37 55.61C338.393 55.963 338.547 56.2946 338.803 56.5391C339.058 56.7837 339.396 56.9231 339.75 56.93H363.75C363.92 56.9319 364.088 56.8984 364.244 56.8316C364.4 56.7647 364.541 56.666 364.657 56.5417C364.772 56.4175 364.861 56.2704 364.917 56.11C364.972 55.9495 364.994 55.7792 364.98 55.61L363.98 38.61C363.958 38.2569 363.803 37.9253 363.547 37.6808C363.292 37.4363 362.954 37.2968 362.6 37.29H352.38C352.16 37.2881 351.943 37.2336 351.748 37.131C351.554 37.0283 351.386 36.8805 351.26 36.7Z" fill="#E0E0E0"/>
<path d="M365 38.91H343C342.549 38.9171 342.116 39.0887 341.783 39.3926C341.45 39.6964 341.239 40.1116 341.19 40.56L339.86 55.26C339.837 55.4712 339.86 55.6849 339.926 55.8867C339.993 56.0885 340.101 56.2737 340.245 56.43C340.389 56.5863 340.565 56.7099 340.761 56.7927C340.956 56.8755 341.168 56.9155 341.38 56.91H363.38C363.831 56.9028 364.264 56.7312 364.597 56.4274C364.93 56.1235 365.141 55.7084 365.19 55.26L366.51 40.56C366.534 40.3493 366.513 40.1358 366.448 39.934C366.383 39.7321 366.275 39.5467 366.132 39.3902C365.988 39.2338 365.813 39.1099 365.618 39.027C365.423 38.9442 365.212 38.9042 365 38.91Z" fill="#E6E6E6"/>
<path d="M391.26 36.7L390.53 35.7C390.404 35.5194 390.237 35.3716 390.042 35.269C389.847 35.1663 389.63 35.1118 389.41 35.11H384.33C384.117 35.1073 383.907 35.1604 383.721 35.2639C383.536 35.3674 383.38 35.5177 383.27 35.7L382.67 36.7C382.559 36.8815 382.404 37.0313 382.218 37.1347C382.032 37.2381 381.823 37.2916 381.61 37.29H378.61C378.44 37.2881 378.271 37.3216 378.114 37.3884C377.958 37.4551 377.817 37.5537 377.7 37.6777C377.584 37.8018 377.494 37.9487 377.437 38.1092C377.38 38.2697 377.358 38.4402 377.37 38.61L378.37 55.61C378.393 55.963 378.547 56.2946 378.803 56.5391C379.058 56.7837 379.396 56.9231 379.75 56.93H403.75C403.92 56.9319 404.088 56.8984 404.244 56.8316C404.4 56.7647 404.541 56.666 404.657 56.5417C404.772 56.4175 404.861 56.2704 404.917 56.11C404.972 55.9495 404.994 55.7792 404.98 55.61L403.98 38.61C403.958 38.2569 403.803 37.9253 403.547 37.6808C403.292 37.4363 402.954 37.2968 402.6 37.29H392.38C392.16 37.2881 391.943 37.2336 391.748 37.131C391.554 37.0283 391.386 36.8805 391.26 36.7Z" fill="#E0E0E0"/>
<path d="M405 38.91H383C382.549 38.9171 382.116 39.0887 381.783 39.3926C381.45 39.6964 381.239 40.1116 381.19 40.56L379.86 55.26C379.837 55.4712 379.86 55.6849 379.926 55.8867C379.993 56.0885 380.101 56.2737 380.245 56.43C380.389 56.5863 380.565 56.7099 380.761 56.7927C380.956 56.8755 381.168 56.9155 381.38 56.91H403.38C403.831 56.9028 404.264 56.7312 404.597 56.4274C404.93 56.1235 405.141 55.7084 405.19 55.26L406.51 40.56C406.534 40.3493 406.513 40.1358 406.448 39.934C406.383 39.7321 406.275 39.5467 406.132 39.3902C405.988 39.2338 405.813 39.1099 405.618 39.027C405.423 38.9442 405.212 38.9042 405 38.91Z" fill="#E6E6E6"/>
<path d="M214.54 47.42H68.8101V140.12H214.54V47.42Z" fill="#F5F5F5"/>
<path d="M214.54 47.42H68.8101V53.7H214.54V47.42Z" fill="#E0E0E0"/>
<path d="M212.38 50.56C212.38 50.9358 212.269 51.3032 212.06 51.6156C211.851 51.9281 211.554 52.1716 211.207 52.3154C210.86 52.4592 210.478 52.4968 210.109 52.4235C209.741 52.3502 209.402 52.1693 209.137 51.9035C208.871 51.6378 208.69 51.2993 208.617 50.9307C208.543 50.5621 208.581 50.1801 208.725 49.8329C208.869 49.4858 209.112 49.189 209.425 48.9802C209.737 48.7715 210.104 48.66 210.48 48.66C210.984 48.66 211.467 48.8602 211.824 49.2165C212.18 49.5728 212.38 50.0561 212.38 50.56Z" fill="#FAFAFA"/>
<path d="M206.09 50.56C206.09 50.9358 205.979 51.3032 205.77 51.6156C205.561 51.9281 205.264 52.1716 204.917 52.3154C204.57 52.4592 204.188 52.4968 203.819 52.4235C203.451 52.3502 203.112 52.1693 202.847 51.9035C202.581 51.6378 202.4 51.2993 202.327 50.9307C202.253 50.5621 202.291 50.1801 202.435 49.8329C202.578 49.4858 202.822 49.189 203.134 48.9802C203.447 48.7715 203.814 48.66 204.19 48.66C204.694 48.66 205.177 48.8602 205.534 49.2165C205.89 49.5728 206.09 50.0561 206.09 50.56Z" fill="#FAFAFA"/>
<path d="M199.8 50.5601C199.8 50.9363 199.688 51.304 199.479 51.6167C199.27 51.9293 198.973 52.1729 198.625 52.3164C198.277 52.4599 197.894 52.4969 197.526 52.4228C197.157 52.3487 196.818 52.1667 196.553 51.9C196.288 51.6333 196.107 51.2938 196.035 50.9246C195.963 50.5553 196.002 50.173 196.148 49.826C196.293 49.479 196.538 49.183 196.852 48.9754C197.165 48.7678 197.534 48.6581 197.91 48.6601C198.159 48.6601 198.406 48.7093 198.636 48.8049C198.866 48.9005 199.074 49.0406 199.25 49.2172C199.426 49.3937 199.565 49.6033 199.659 49.8337C199.753 50.0642 199.801 50.311 199.8 50.5601Z" fill="#FAFAFA"/>
<path d="M95.17 64.59L94.27 63.34C94.1113 63.1159 93.9016 62.9329 93.6582 62.8059C93.4147 62.679 93.1446 62.6118 92.87 62.61H86.55C86.287 62.607 86.0278 62.6728 85.798 62.8008C85.5682 62.9289 85.3759 63.1147 85.24 63.34L84.49 64.59C84.3511 64.8146 84.1567 64.9998 83.9255 65.1276C83.6944 65.2555 83.4342 65.3217 83.17 65.32H79.4C79.1854 65.3174 78.9726 65.3602 78.7757 65.4458C78.5788 65.5314 78.4023 65.6577 78.2578 65.8164C78.1132 65.9751 78.0039 66.1626 77.9371 66.3666C77.8703 66.5706 77.8474 66.7865 77.87 67L79.09 88.11C79.1177 88.5496 79.3101 88.9627 79.6289 89.2667C79.9478 89.5707 80.3695 89.7433 80.81 89.75H110.71C110.921 89.752 111.13 89.7101 111.324 89.627C111.518 89.5438 111.692 89.4212 111.836 89.2669C111.98 89.1126 112.09 88.9301 112.16 88.7309C112.229 88.5317 112.257 88.3203 112.24 88.11L111 67C110.972 66.5603 110.78 66.1472 110.461 65.8432C110.142 65.5392 109.721 65.3666 109.28 65.36H96.56C96.284 65.3504 96.0142 65.2756 95.7726 65.1418C95.531 65.008 95.3245 64.8189 95.17 64.59Z" fill="#E0E0E0"/>
<path d="M112.29 67.33H84.8999C84.346 67.337 83.813 67.5428 83.3982 67.91C82.9833 68.2771 82.7142 68.7811 82.6399 69.33L80.9999 87.66C80.9714 87.9218 80.999 88.1866 81.0811 88.4368C81.1631 88.687 81.2976 88.9168 81.4756 89.1109C81.6535 89.3049 81.8709 89.4588 82.113 89.5621C82.3552 89.6654 82.6167 89.7159 82.8799 89.71H110.27C110.831 89.7033 111.37 89.4909 111.785 89.113C112.2 88.7351 112.461 88.2181 112.52 87.66L114.17 69.38C114.198 69.1183 114.171 68.8535 114.089 68.6033C114.007 68.3531 113.872 68.1232 113.694 67.9292C113.516 67.7351 113.299 67.5813 113.057 67.478C112.815 67.3747 112.553 67.3242 112.29 67.33Z" fill="#E6E6E6"/>
<path d="M140.78 64.59L139.88 63.34C139.721 63.1159 139.512 62.9329 139.268 62.8059C139.025 62.679 138.755 62.6118 138.48 62.61H132.16C131.897 62.607 131.638 62.6728 131.408 62.8008C131.178 62.9289 130.986 63.1147 130.85 63.34L130.1 64.59C129.961 64.8146 129.767 64.9998 129.536 65.1276C129.304 65.2555 129.044 65.3217 128.78 65.32H125C124.789 65.3179 124.58 65.3598 124.386 65.443C124.192 65.5261 124.018 65.6487 123.874 65.803C123.73 65.9573 123.62 66.1398 123.55 66.339C123.481 66.5382 123.453 66.7496 123.47 66.96L124.69 88.07C124.718 88.5096 124.91 88.9227 125.229 89.2267C125.548 89.5307 125.97 89.7033 126.41 89.71H156.31C156.521 89.712 156.73 89.6701 156.924 89.5869C157.118 89.5038 157.292 89.3812 157.436 89.2269C157.58 89.0727 157.69 88.8901 157.76 88.6909C157.829 88.4918 157.857 88.2803 157.84 88.07L156.63 67C156.602 66.5603 156.41 66.1472 156.091 65.8432C155.772 65.5392 155.351 65.3666 154.91 65.36H142.17C141.894 65.3504 141.624 65.2756 141.383 65.1418C141.141 65.008 140.935 64.8189 140.78 64.59Z" fill="#E0E0E0"/>
<path d="M157.9 67.3299H130.51C129.955 67.3349 129.421 67.5399 129.006 67.9074C128.591 68.275 128.322 68.7801 128.25 69.3299L126.61 87.6099C126.58 87.872 126.606 88.1375 126.688 88.3885C126.769 88.6394 126.904 88.8699 127.082 89.0643C127.26 89.2587 127.478 89.4126 127.721 89.5153C127.964 89.6181 128.226 89.6674 128.49 89.6599H155.88C156.441 89.6532 156.98 89.4408 157.395 89.0629C157.81 88.685 158.071 88.168 158.13 87.6099L159.78 69.3299C159.801 69.0721 159.768 68.8128 159.682 68.5686C159.597 68.3245 159.461 68.101 159.284 67.9125C159.107 67.724 158.892 67.5748 158.654 67.4745C158.415 67.3741 158.159 67.3249 157.9 67.3299Z" fill="#E6E6E6"/>
<path d="M186.39 64.59L185.49 63.34C185.331 63.1159 185.122 62.9329 184.878 62.8059C184.635 62.679 184.364 62.6118 184.09 62.61H177.77C177.507 62.607 177.248 62.6728 177.018 62.8008C176.788 62.9289 176.596 63.1147 176.46 63.34L175.7 64.59C175.563 64.8145 175.371 64.9998 175.141 65.1278C174.912 65.2557 174.653 65.3219 174.39 65.32H170.62C170.409 65.3179 170.2 65.3598 170.006 65.443C169.812 65.5261 169.638 65.6487 169.494 65.803C169.35 65.9573 169.24 66.1398 169.17 66.339C169.101 66.5382 169.073 66.7496 169.09 66.96L170.31 88.07C170.338 88.5096 170.53 88.9227 170.849 89.2267C171.168 89.5307 171.589 89.7033 172.03 89.71H201.93C202.141 89.712 202.35 89.6701 202.544 89.5869C202.738 89.5038 202.912 89.3812 203.056 89.2269C203.2 89.0727 203.31 88.8901 203.38 88.6909C203.449 88.4918 203.477 88.2803 203.46 88.07L202.24 67C202.212 66.5603 202.02 66.1472 201.701 65.8432C201.382 65.5392 200.96 65.3666 200.52 65.36H187.78C187.504 65.352 187.233 65.278 186.991 65.144C186.749 65.01 186.543 64.82 186.39 64.59Z" fill="#E0E0E0"/>
<path d="M203.5 67.33H176.11C175.557 67.3373 175.026 67.5435 174.612 67.9108C174.199 68.2781 173.932 68.7819 173.86 69.33L172.22 87.61C172.19 87.8721 172.216 88.1376 172.298 88.3886C172.379 88.6395 172.514 88.87 172.692 89.0644C172.87 89.2588 173.088 89.4127 173.331 89.5154C173.574 89.6182 173.836 89.6675 174.1 89.66H201.49C202.051 89.6533 202.59 89.4409 203.005 89.063C203.42 88.6851 203.681 88.1681 203.74 87.61L205.39 69.33C205.411 69.0714 205.378 68.8112 205.292 68.5663C205.206 68.3215 205.069 68.0974 204.891 67.9088C204.713 67.7202 204.497 67.5712 204.257 67.4715C204.017 67.3718 203.76 67.3236 203.5 67.33Z" fill="#E6E6E6"/>
<path d="M95.1699 103.21L94.2699 101.97C94.1118 101.745 93.9024 101.56 93.659 101.432C93.4156 101.303 93.1452 101.234 92.8699 101.23H86.5499C86.286 101.228 86.0261 101.295 85.7962 101.425C85.5664 101.555 85.3746 101.743 85.2399 101.97L84.4899 103.21C84.3525 103.436 84.1584 103.622 83.9269 103.75C83.6954 103.878 83.4345 103.944 83.1699 103.94H79.3999C79.1885 103.939 78.9792 103.983 78.7853 104.067C78.5914 104.151 78.4171 104.275 78.2733 104.43C78.1296 104.585 78.0195 104.768 77.9501 104.968C77.8806 105.167 77.8534 105.379 77.8699 105.59L79.0899 126.7C79.1176 127.14 79.31 127.553 79.6289 127.857C79.9477 128.161 80.3695 128.333 80.8099 128.34H110.71C110.92 128.341 111.129 128.298 111.322 128.214C111.515 128.13 111.689 128.008 111.833 127.854C111.976 127.7 112.087 127.518 112.157 127.319C112.227 127.121 112.255 126.91 112.24 126.7L111 105.59C110.975 105.149 110.783 104.733 110.464 104.427C110.145 104.121 109.722 103.947 109.28 103.94H96.5599C96.2869 103.937 96.0185 103.87 95.7768 103.743C95.5351 103.616 95.3271 103.433 95.1699 103.21Z" fill="#E0E0E0"/>
<path d="M112.29 106H84.8999C84.346 106.007 83.813 106.213 83.3982 106.58C82.9833 106.947 82.7142 107.451 82.6399 108L80.9999 126.29C80.9714 126.552 80.999 126.817 81.0811 127.067C81.1631 127.317 81.2976 127.547 81.4756 127.741C81.6535 127.935 81.8709 128.089 82.113 128.192C82.3552 128.295 82.6167 128.346 82.8799 128.34H110.27C110.83 128.331 111.368 128.118 111.783 127.74C112.197 127.363 112.459 126.847 112.52 126.29L114.17 108C114.191 107.742 114.158 107.483 114.072 107.239C113.987 106.995 113.851 106.771 113.674 106.583C113.497 106.394 113.282 106.245 113.044 106.145C112.805 106.044 112.549 105.995 112.29 106Z" fill="#E6E6E6"/>
<path d="M140.78 103.21L139.88 101.97C139.722 101.745 139.512 101.56 139.269 101.432C139.026 101.303 138.755 101.234 138.48 101.23H132.16C131.896 101.228 131.636 101.295 131.406 101.425C131.176 101.555 130.985 101.743 130.85 101.97L130.1 103.21C129.962 103.436 129.768 103.622 129.537 103.75C129.305 103.878 129.044 103.944 128.78 103.94H125C124.788 103.938 124.578 103.98 124.383 104.064C124.189 104.148 124.014 104.271 123.87 104.426C123.726 104.582 123.616 104.766 123.547 104.966C123.478 105.166 123.452 105.379 123.47 105.59L124.69 126.7C124.718 127.14 124.91 127.553 125.229 127.857C125.548 128.161 125.969 128.333 126.41 128.34H156.31C156.52 128.341 156.729 128.298 156.922 128.214C157.115 128.13 157.289 128.008 157.433 127.854C157.576 127.7 157.687 127.518 157.757 127.319C157.827 127.121 157.855 126.91 157.84 126.7L156.62 105.59C156.595 105.149 156.403 104.733 156.084 104.427C155.765 104.121 155.342 103.947 154.9 103.94H142.17C141.897 103.937 141.628 103.87 141.387 103.743C141.145 103.616 140.937 103.433 140.78 103.21Z" fill="#E0E0E0"/>
<path d="M157.9 106H130.51C129.955 106.005 129.421 106.21 129.006 106.578C128.591 106.945 128.322 107.45 128.25 108L126.61 126.28C126.581 126.542 126.609 126.807 126.691 127.057C126.773 127.307 126.908 127.537 127.086 127.731C127.264 127.925 127.481 128.079 127.723 128.182C127.965 128.285 128.227 128.336 128.49 128.33H155.88C156.44 128.321 156.978 128.108 157.393 127.73C157.807 127.353 158.069 126.837 158.13 126.28L159.78 108C159.801 107.742 159.768 107.483 159.682 107.239C159.597 106.995 159.461 106.771 159.284 106.583C159.107 106.394 158.892 106.245 158.654 106.145C158.415 106.044 158.159 105.995 157.9 106Z" fill="#E6E6E6"/>
<path d="M186.39 103.21L185.49 101.97C185.332 101.745 185.122 101.56 184.879 101.432C184.636 101.303 184.365 101.234 184.09 101.23H177.77C177.506 101.228 177.246 101.295 177.016 101.425C176.786 101.555 176.595 101.743 176.46 101.97L175.7 103.21C175.566 103.437 175.374 103.624 175.144 103.752C174.913 103.88 174.653 103.945 174.39 103.94H170.62C170.408 103.938 170.198 103.98 170.004 104.064C169.809 104.148 169.634 104.271 169.49 104.426C169.346 104.582 169.236 104.766 169.167 104.966C169.098 105.166 169.072 105.379 169.09 105.59L170.31 126.7C170.338 127.14 170.53 127.553 170.849 127.857C171.168 128.161 171.59 128.333 172.03 128.34H201.93C202.141 128.341 202.349 128.298 202.542 128.214C202.735 128.13 202.909 128.008 203.053 127.854C203.196 127.7 203.307 127.518 203.377 127.319C203.447 127.121 203.475 126.91 203.46 126.7L202.24 105.59C202.215 105.149 202.023 104.733 201.704 104.427C201.385 104.121 200.962 103.947 200.52 103.94H187.78C187.507 103.938 187.238 103.871 186.996 103.744C186.754 103.617 186.547 103.434 186.39 103.21Z" fill="#E0E0E0"/>
<path d="M203.5 106H176.11C175.557 106.007 175.025 106.213 174.612 106.581C174.199 106.948 173.932 107.452 173.86 108L172.22 126.28C172.191 126.542 172.219 126.807 172.301 127.057C172.383 127.307 172.518 127.537 172.696 127.731C172.873 127.925 173.091 128.079 173.333 128.182C173.575 128.285 173.837 128.336 174.1 128.33H201.49C202.05 128.321 202.588 128.108 203.003 127.73C203.417 127.353 203.679 126.837 203.74 126.28L205.39 108C205.411 107.741 205.377 107.481 205.291 107.236C205.205 106.991 205.069 106.767 204.891 106.579C204.712 106.39 204.496 106.241 204.257 106.141C204.017 106.042 203.759 105.993 203.5 106Z" fill="#E6E6E6"/>
<path d="M92.2001 293.72C92.2001 293.37 93.3901 258.61 99.0401 253.11C104.54 247.77 110.85 252.91 111.12 253.11L111.68 252.43C111.61 252.37 104.49 246.55 98.4201 252.43C92.5201 258.17 91.3601 292.19 91.3201 293.64L92.2001 293.72Z" fill="#E0E0E0"/>
<path d="M91.7101 300.55C91.7601 300.13 95.5801 258.82 80.4901 241.55L79.8201 242.13C94.6601 259.13 90.8701 300.13 90.8201 300.5L91.7101 300.55Z" fill="#E0E0E0"/>
<path d="M92.2701 296.18L93.1601 296.12C93.1601 295.65 90.1601 249.12 101.27 238.98L100.67 238.33C89.2901 248.79 92.1501 294.25 92.2701 296.18Z" fill="#E0E0E0"/>
<path d="M90.8299 296.15H91.7199C91.7199 294.86 91.3499 264.74 82.7899 259.84C81.98 259.311 81.0541 258.985 80.0912 258.891C79.1283 258.797 78.1569 258.938 77.2599 259.3C72.0799 261.44 69.5199 270.64 69.4099 271.04L70.2699 271.27C70.2699 271.18 72.8199 262.09 77.5999 260.11C78.3735 259.808 79.2081 259.695 80.0342 259.78C80.8604 259.865 81.6542 260.146 82.3499 260.6C90.4699 265.26 90.8299 295.84 90.8299 296.15Z" fill="#E0E0E0"/>
<path d="M94.1601 296.17L95.0501 296.12C95.0501 295.89 93.7601 272.32 100.12 264.01C101.66 262.01 103.33 261.01 105.12 261.17C109.29 261.46 112.78 267.56 112.82 267.62L113.59 267.18C113.43 266.91 109.82 260.61 105.18 260.28C103.1 260.14 101.18 261.21 99.4301 263.48C92.8501 272 94.1101 295.19 94.1601 296.17Z" fill="#E0E0E0"/>
<path d="M92.77 299.38C92.94 297.09 96.93 243.28 89.92 233.8L89.2 234.32C96.02 243.54 91.93 298.76 91.89 299.32L92.77 299.38Z" fill="#E0E0E0"/>
<path d="M75.3501 264.75C75.3501 264.75 79.5601 266.3 78.3501 269.96C77.1401 273.62 63.8001 279.65 63.8001 279.65C63.8001 279.65 58.2301 274.54 63.3401 266.24C68.4501 257.94 75.2401 262.13 75.3501 264.75Z" fill="#EBEBEB"/>
<path d="M93.64 257.78C93.64 257.78 89.16 257.59 88.9 261.45C88.64 265.31 98.61 276 98.61 276C98.61 276 105.71 273.43 104.19 263.8C102.67 254.17 94.75 255.41 93.64 257.78Z" fill="#EBEBEB"/>
<path d="M97.4301 239.3C97.4301 239.3 94.4301 238.98 94.6801 237.16C94.9301 235.34 106.29 230.66 113 238.23C113 238.23 108.7 245.61 102.49 245.71C96.2801 245.81 97.4301 239.3 97.4301 239.3Z" fill="#EBEBEB"/>
<path d="M91.8599 234.89C91.8599 234.89 94.5699 236.19 95.3299 234.52C96.0899 232.85 88.9099 222.87 79.2199 225.74C79.2199 225.74 78.9599 234.28 84.2199 237.64C89.4799 241 91.8599 234.89 91.8599 234.89Z" fill="#EBEBEB"/>
<path d="M106 263.28C106 263.28 103.94 261.61 106.16 260.8C108.38 259.99 119.3 260.22 119.42 271.03C119.42 271.03 106.71 273.14 105.13 269.03C103.55 264.92 106 263.28 106 263.28Z" fill="#EBEBEB"/>
<path d="M80.0799 239C80.0799 239 82.1399 237.34 79.9199 236.53C77.6999 235.72 66.7799 236 66.6699 246.78C66.6699 246.78 79.3799 248.9 80.9499 244.78C82.5199 240.66 80.0799 239 80.0799 239Z" fill="#EBEBEB"/>
<path d="M86.7999 247.74C86.7999 247.74 86.9799 245.74 85.3499 246.51C83.7199 247.28 78.0299 253.44 83.9299 259.26C83.9299 259.26 91.8599 253.39 90.4299 250.32C88.9999 247.25 86.7999 247.74 86.7999 247.74Z" fill="#EBEBEB"/>
<path d="M107.84 250.62C107.84 250.62 106.61 249.01 108.42 248.81C110.23 248.61 118.31 250.81 116.42 258.81C116.42 258.81 106.57 258.07 106.15 254.71C105.73 251.35 107.84 250.62 107.84 250.62Z" fill="#EBEBEB"/>
<path d="M74.5599 326.12H108.36L112.01 289.11H70.9199L74.5599 326.12Z" fill="#F0F0F0"/>
<path d="M69.1201 293.19H113.82V285.02H69.1201V293.19Z" fill="#E6E6E6"/>
<path d="M250 372.56C357.083 372.56 443.89 367.492 443.89 361.24C443.89 354.988 357.083 349.92 250 349.92C142.918 349.92 56.1101 354.988 56.1101 361.24C56.1101 367.492 142.918 372.56 250 372.56Z" fill="#F5F5F5"/>
<path d="M181.53 185.12C181.44 188.8 180.77 193.48 177.88 196.12C174.16 199.47 167.88 197.12 165.51 193.26" stroke="#263238" stroke-width="0.706754" stroke-linecap="round" stroke-linejoin="round"/>
<path d="M181.33 213.35L190.33 220.2C190.33 220.2 192.64 220.51 193.28 221.35C193.92 222.19 196.1 228.19 195.62 228.92C195.14 229.65 190.29 230.67 189.41 229.65C188.53 228.63 187.41 223.17 187.48 222.65L175.87 215.08L181.33 213.35Z" fill="#EEC1BB"/>
<path d="M187.55 216.82L184.4 222.21C184.4 222.21 167.89 211.88 165.19 210.21C164.59 209.85 163.37 208.14 161.93 205.64C156.76 196.64 148.72 177.58 156.29 173.8C160.43 171.73 162.82 178.31 162.82 178.31C162.82 178.31 163.3 180.4 164.03 183.31C164.32 184.5 164.65 185.84 165.03 187.24C166.7 193.78 168.86 201.64 169.89 202.57C171.66 204.32 187.55 216.82 187.55 216.82Z" fill="#00AA7E"/>
<path opacity="0.2" d="M161.93 205.67C156.76 196.67 148.72 177.61 156.29 173.83C160.43 171.76 162.82 178.34 162.82 178.34C162.82 178.34 163.3 180.43 164.03 183.34C164.455 184.625 164.789 185.938 165.03 187.27C165.85 192 166.33 199.72 161.93 205.67Z" fill="black"/>
<path d="M138.5 193.37C138.5 193.37 133.12 195.21 124.09 191.09C120.15 189.3 110.61 179.56 110.61 179.56C110.61 179.56 118.81 167.43 141.46 163.05C141.46 163.05 156.34 164.98 167.57 189.22C167.57 189.22 156.57 195.21 138.5 193.37Z" fill="#00AA7E"/>
<path d="M156.4 207.39L163.54 216.19C163.54 216.19 165.71 217.04 166.14 218.01C166.57 218.98 167.25 225.32 166.61 225.92C165.97 226.52 161.02 226.36 160.4 225.15C159.78 223.94 159.98 218.38 160.2 217.86L150.72 207.75L156.4 207.39Z" fill="#EEC1BB"/>
<path d="M155.48 343.45L149.41 344.52L146.93 336.25L144.66 328.66L151.65 326.22L153.68 335.34L155.48 343.45Z" fill="#E4897B"/>
<path opacity="0.2" d="M153.72 335.52L146.96 336.42L144.67 328.74L151.66 326.26L153.72 335.52Z" fill="black"/>
<path d="M114.99 346.24H108.83L107.82 337.57L106.9 329.65L114.22 328.44L114.63 337.86L114.99 346.24Z" fill="#E4897B"/>
<path opacity="0.2" d="M114.63 337.94L107.82 337.64L106.9 329.69L114.22 328.45L114.63 337.94Z" fill="black"/>
<path d="M123.34 358.44C122.36 357.65 121.246 357.043 120.05 356.65C120.05 356.65 116.47 353.11 114.75 342.42L110.07 341.2C109.274 341.009 108.439 341.067 107.678 341.366C106.916 341.664 106.264 342.189 105.81 342.87C105.679 343.056 105.577 343.262 105.51 343.48C105.264 344.641 105.094 345.817 105 347C104.74 350.905 104.716 354.822 104.93 358.73H105.78L106.12 351.37C106.24 348.87 108.12 351.8 108.7 354.49C109.28 357.18 110.41 360.05 115.89 360.18C122.3 360.26 125 360 123.34 358.44Z" fill="#263238"/>
<path d="M164.2 357.72C163.221 356.928 162.106 356.321 160.91 355.93C160.91 355.93 157.34 352.38 155.62 341.7L150.93 340.48C150.135 340.288 149.301 340.345 148.539 340.641C147.778 340.938 147.125 341.461 146.67 342.14C146.539 342.329 146.441 342.539 146.38 342.76C146.133 343.904 145.966 345.063 145.88 346.23C145.4 349.85 145.81 357.96 145.81 357.96H146.65L146.99 350.6C147.12 348.1 148.99 351.03 149.58 353.72C150.17 356.41 151.29 359.28 156.77 359.41C163.16 359.54 165.82 359.29 164.2 357.72Z" fill="#263238"/>
<path d="M154.29 330.71L144.29 332.47C134.22 307.4 127.07 286.47 122.01 269.12C119.29 259.75 117.01 251.41 115.39 244.02L115.7 271.31V332.78H105.9C82.3299 220.51 79.4499 201.15 108.13 181.78L111.18 179C111.18 179 112.18 184.12 120.85 189.39C128.11 193.8 137.24 194.09 137.24 194.09L130.66 200.35L131.99 210.12L143.5 269.61L154.29 330.71Z" fill="#263238"/>
<g opacity="0.2">
<path d="M154.29 330.71L144.29 332.47C134.22 307.4 127.07 286.47 122.01 269.12C119.29 259.75 117.01 251.41 115.39 244.02L115.7 271.31V332.78H105.9C82.3299 220.51 79.4499 201.15 108.13 181.78L111.18 179C111.18 179 112.18 184.12 120.85 189.39C128.11 193.8 137.24 194.09 137.24 194.09L130.66 200.35L131.99 210.12L143.5 269.61L154.29 330.71Z" fill="white"/>
</g>
<path opacity="0.2" d="M122 269.12C119.28 259.75 117.16 251.41 115.53 244.02C115.666 235.268 116.3 226.53 117.43 217.85C117.43 217.85 121.79 251.61 122 269.12Z" fill="black"/>
<path d="M111.18 179C111.18 179 119.5 190 138.5 193.37L134.94 196.32C124.512 194.986 114.954 189.817 108.13 181.82L111.18 179Z" fill="black"/>
<path d="M132.52 192.67C132.44 192.478 132.321 192.305 132.171 192.16C132.022 192.016 131.844 191.904 131.65 191.83L128.65 190.61C128.292 190.449 127.89 190.411 127.508 190.504C127.126 190.596 126.785 190.813 126.54 191.12L125.48 192.62C125.368 192.776 125.296 192.957 125.271 193.147C125.247 193.338 125.27 193.531 125.34 193.71C125.477 194.056 125.742 194.335 126.08 194.49L126.21 194.55L129.21 195.77C129.57 195.925 129.971 195.958 130.352 195.864C130.733 195.77 131.073 195.555 131.32 195.25L132.37 193.76C132.482 193.604 132.554 193.423 132.58 193.234C132.606 193.044 132.585 192.85 132.52 192.67ZM129.52 195.14L126.52 193.92C126.426 193.884 126.34 193.829 126.268 193.758C126.195 193.688 126.138 193.603 126.1 193.51C126.067 193.423 126.055 193.329 126.068 193.236C126.08 193.144 126.115 193.055 126.17 192.98L127.23 191.49C127.345 191.343 127.506 191.239 127.687 191.194C127.868 191.148 128.059 191.165 128.23 191.24L131.23 192.46H131.29C131.455 192.535 131.584 192.671 131.65 192.84C131.683 192.927 131.695 193.021 131.682 193.114C131.67 193.206 131.635 193.294 131.58 193.37L131.42 193.59C131.39 193.564 131.357 193.544 131.32 193.53L130.48 193.18C130.353 193.12 130.209 193.107 130.073 193.143C129.937 193.18 129.819 193.264 129.74 193.38C129.709 193.437 129.691 193.501 129.688 193.566C129.684 193.631 129.696 193.696 129.721 193.757C129.745 193.817 129.783 193.871 129.832 193.915C129.88 193.959 129.938 193.991 130 194.01L130.83 194.36L130.49 194.85C130.382 194.983 130.237 195.081 130.073 195.132C129.91 195.184 129.735 195.186 129.57 195.14H129.52Z" fill="white"/>
<path d="M183.46 160.59C184.678 162.122 185.56 163.893 186.051 165.788C186.542 167.682 186.63 169.659 186.31 171.59C185.6 177.42 183.76 185.89 184.78 191.18C185.8 196.47 183.05 201.66 180.55 201.76C180.55 201.76 183.62 199.56 183.49 196.33C183.36 193.1 182.49 187.69 182.49 187.69C182.49 187.69 182.06 193.15 178.49 195.22C174.92 197.29 166.02 193.92 163.17 185.57C160.32 177.22 155.75 174.94 153.48 171.32C151.21 167.7 151.33 164.32 156.84 161.07C162.35 157.82 178.72 154.71 183.46 160.59Z" fill="#263238"/>
<path d="M161.06 185.12L158.45 183.74C156.45 186.79 148.62 183.74 148.62 183.74C145.16 177.62 150.47 169.17 150.47 169.17C151.97 171.94 157.14 171.94 158.24 171.89H158.45L161.06 185.12Z" fill="#EEC1BB"/>
<path opacity="0.2" d="M161.06 185.12L158.45 183.74C156.883 183.092 155.214 182.723 153.52 182.65C153.52 182.65 153.1 176.33 157.45 172.4C157.684 172.188 157.95 172.015 158.24 171.89H158.45L161.06 185.12Z" fill="black"/>
<path d="M178.15 158.56C178.15 158.56 187.63 163.16 184.66 171.26C183.817 173.571 182.337 175.595 180.389 177.098C178.442 178.601 176.109 179.52 173.66 179.75L178.15 158.56Z" fill="#263238"/>
<path d="M174.91 161.81C181.63 165.68 181.73 170.53 178.23 177.74C173.86 186.74 168.4 191.81 161.05 185.12C151.07 176 163.73 155.38 174.91 161.81Z" fill="#EEC1BB"/>
<path d="M174.1 174.86C174.059 176.176 174.177 177.492 174.45 178.78C174.093 178.943 173.698 179.006 173.309 178.96C172.919 178.914 172.549 178.762 172.24 178.52L174.1 174.86Z" fill="#D4827D"/>
<path d="M170.3 172C169.99 172.56 169.44 172.84 169.07 172.64C168.7 172.44 168.64 171.82 168.95 171.26C169.26 170.7 169.8 170.41 170.17 170.61C170.54 170.81 170.6 171.38 170.3 172Z" fill="#263238"/>
<path d="M170 170.51L171.48 170.69C171.48 170.69 170.32 171.39 170 170.51Z" fill="#263238"/>
<path d="M177.32 175.62C177.02 176.18 176.47 176.47 176.1 176.27C175.73 176.07 175.67 175.44 175.97 174.88C176.27 174.32 176.83 174.03 177.2 174.24C177.57 174.45 177.63 175.06 177.32 175.62Z" fill="#263238"/>
<path d="M177 174.18L178.48 174.37C178.48 174.37 177.34 175.06 177 174.18Z" fill="#263238"/>
<path d="M172.9 167.26C172.407 166.887 171.835 166.633 171.227 166.519C170.62 166.404 169.995 166.432 169.4 166.6" stroke="#263238" stroke-width="0.706754" stroke-linecap="round" stroke-linejoin="round"/>
<path d="M178 169.79C178.527 169.938 179.014 170.203 179.423 170.567C179.832 170.931 180.152 171.384 180.36 171.89" stroke="#263238" stroke-width="0.706754" stroke-linecap="round" stroke-linejoin="round"/>
<path d="M161 168.92C161 168.92 167.33 165.2 169.3 160.66C169.3 160.66 185.77 162.88 178.64 176.79C178.64 176.79 186.86 165.52 175.45 158.6C164.04 151.68 154.33 165.4 157.45 173.88C157.44 173.88 157.1 171.25 161 168.92Z" fill="#263238"/>
<path d="M179.58 158.78C179.58 158.78 183.46 160.89 184.06 163.28C184.66 165.67 169.69 168.69 163.4 166.03C163.4 166.03 157.83 169.97 157.4 173.88C157.4 173.88 152.08 168.59 158.07 158.72C164.06 148.85 176.64 151.85 179.58 158.78Z" fill="#263238"/>
<path d="M161.31 171C161.694 170.184 161.739 169.25 161.435 168.401C161.131 167.552 160.504 166.858 159.69 166.47C157.47 165.47 154.01 169.21 158.61 173.22C159.27 173.77 160.11 173.28 161.31 171Z" fill="#EEC1BB"/>
<path d="M184 163.94C184 163.94 176.82 170.75 167.49 168.55" stroke="#263238" stroke-width="0.706754" stroke-linecap="round" stroke-linejoin="round"/>
<path d="M167.49 177.11C167.49 177.11 166.93 179.36 169.62 181.61" stroke="#263238" stroke-width="0.706754" stroke-linecap="round" stroke-linejoin="round"/>
<path opacity="0.2" d="M152.48 193.32C147.829 193.843 143.135 193.86 138.48 193.37C137.585 193.623 136.66 193.754 135.73 193.76C135.3 191.931 135.039 190.067 134.95 188.19C134.68 182.03 136.04 171.09 137.53 169.19C139.02 167.29 145.9 170.09 146.71 175.28C146.71 175.28 147.65 189.28 148.9 190.49C149.62 191.13 151.21 192.36 152.48 193.32Z" fill="black"/>
<path d="M141.46 163.94C130.74 165.5 139.22 198.29 141.46 200.53C143.7 202.77 157.28 216.73 157.28 216.73L161.62 212.24C161.62 212.24 149.16 196.32 147.81 194.32C146.46 192.32 146.73 169 146.73 169C146.73 169 147 163.14 141.46 163.94Z" fill="#00AA7E"/>
<path d="M418.85 67.52H226.15V360.91H418.85V67.52Z" fill="#00AA7E"/>
<path opacity="0.6" d="M418.85 67.52H226.15V360.91H418.85V67.52Z" fill="white"/>
<path opacity="0.2" d="M418.85 67.52H344.01V360.91H418.85V67.52Z" fill="black"/>
<path opacity="0.2" d="M337.7 224.51H231.79V330.42H337.7V224.51Z" fill="black"/>
<path opacity="0.2" d="M337.7 224.51H310.95V330.42H337.7V224.51Z" fill="black"/>
<path opacity="0.2" d="M231.79 224.51L262.74 255.45H310.94H337.7V224.51H231.79Z" fill="black"/>
<path opacity="0.2" d="M337.7 109.63H231.79V215.54H337.7V109.63Z" fill="black"/>
<path d="M334.68 109.63H231.79V215.54H334.68V109.63Z" fill="#00AA7E"/>
<path opacity="0.7" d="M334.68 109.63H231.79V215.54H334.68V109.63Z" fill="white"/>
<path d="M297.36 122.3H260.57V131.79H297.36V122.3Z" fill="white"/>
<path opacity="0.1" d="M313.39 169.41L303.65 156.57H301.71V165.29H299.14L302.45 169.41C302.479 169.45 302.497 169.497 302.502 169.546C302.506 169.595 302.497 169.644 302.475 169.689C302.454 169.733 302.42 169.771 302.379 169.797C302.337 169.824 302.289 169.839 302.24 169.84H274.5C274.256 169.837 274.016 169.779 273.798 169.67C273.579 169.561 273.389 169.404 273.24 169.21L270.24 165.29H259.14L267.14 175.29C267.29 175.474 267.479 175.623 267.694 175.725C267.908 175.827 268.143 175.88 268.38 175.88H312.1C312.519 175.88 312.921 175.714 313.217 175.417C313.514 175.121 313.68 174.719 313.68 174.3V170.35C313.686 170.014 313.584 169.685 313.39 169.41Z" fill="black"/>
<path d="M302.34 155.92H250.25C249.394 155.92 248.7 156.614 248.7 157.47V165.05C248.7 165.906 249.394 166.6 250.25 166.6H302.34C303.196 166.6 303.89 165.906 303.89 165.05V157.47C303.89 156.614 303.196 155.92 302.34 155.92Z" fill="#00AA7E"/>
<path opacity="0.2" d="M289.88 155.92H250.25C249.394 155.92 248.7 156.614 248.7 157.47V165.05C248.7 165.906 249.394 166.6 250.25 166.6H289.88C290.736 166.6 291.43 165.906 291.43 165.05V157.47C291.43 156.614 290.736 155.92 289.88 155.92Z" fill="white"/>
<path d="M263.55 128.06C265.567 127.396 267.271 126.015 268.34 124.18C267.607 124.689 267.006 125.366 266.587 126.153C266.168 126.941 265.942 127.818 265.93 128.71C267.71 128.99 268.51 126.27 270.25 125.79L269.65 128.43C270.102 128.477 270.558 128.425 270.988 128.278C271.418 128.132 271.811 127.893 272.14 127.58C272.818 127.596 273.493 127.477 274.125 127.23C274.757 126.983 275.333 126.612 275.82 126.14C275.655 125.86 275.394 125.648 275.086 125.543C274.778 125.439 274.442 125.448 274.14 125.57L279.79 126.1C279.636 126.061 279.475 126.06 279.32 126.096C279.166 126.132 279.022 126.204 278.901 126.307C278.779 126.409 278.684 126.54 278.623 126.686C278.563 126.833 278.537 126.992 278.55 127.15C278.591 127.313 278.673 127.463 278.787 127.586C278.902 127.708 279.045 127.801 279.205 127.853C279.364 127.906 279.534 127.918 279.7 127.888C279.865 127.857 280.02 127.786 280.15 127.68C280.316 127.547 280.435 127.365 280.49 127.16C280.516 126.983 280.57 126.81 280.65 126.65C280.85 126.37 281.26 126.4 281.59 126.45C284.991 126.981 288.447 127.069 291.87 126.71" stroke="#263238" stroke-width="0.5" stroke-linecap="round" stroke-linejoin="round"/>
<path opacity="0.1" d="M337.7 275.02L344.01 282.87V360.91H249.47L226.15 335.21L337.7 275.02Z" fill="black"/>
<path d="M281.64 79.98H232.45V99.17H281.64V79.98Z" fill="#00AA7E"/>
<path d="M248.87 79.98H232.45V99.17H248.87V79.98Z" fill="white"/>
<path d="M245.73 86.68C245.2 89.6 244.89 90.92 245.84 93.1C246.79 95.28 246.28 95.77 245.23 96.1C244.18 96.43 236.23 98.44 235.61 95.55C234.99 92.66 236.13 92.61 235.61 90.25C235.09 87.89 234.77 85.1 235.69 83.75C236.61 82.4 245.73 86.68 245.73 86.68Z" fill="#263238"/>
<path d="M233.37 96.7701C235.374 95.4996 237.72 94.8748 240.09 94.98C242.863 95.0857 245.593 95.6921 248.15 96.7701V98.18H233.37V96.7701Z" fill="#00AA7E"/>
<path d="M243.14 95.6C242.995 96.0239 242.758 96.4101 242.445 96.7302C242.132 97.0504 241.751 97.2963 241.33 97.45C239.95 97.15 237.97 95.17 237.97 95.17C239.14 94.5 238.91 92.55 238.64 91.37C238.575 91.0728 238.495 90.779 238.4 90.49L239.87 90.27L242.04 92.19C242.04 92.19 242.04 92.34 241.96 92.57C241.769 93.3283 241.731 94.1171 241.85 94.89C241.878 94.9785 241.919 95.0627 241.97 95.14C242.12 95.2962 242.303 95.4182 242.505 95.4976C242.707 95.577 242.923 95.6119 243.14 95.6Z" fill="#EEC1BB"/>
<path opacity="0.2" d="M242 95.06C241.756 95.056 241.513 95.0156 241.28 94.94C239.89 94.51 239.07 92.57 238.69 91.37C238.592 91.0818 238.512 90.7879 238.45 90.49L242.01 92.57C241.819 93.3282 241.782 94.1171 241.9 94.89C241.928 94.9498 241.961 95.0067 242 95.06Z" fill="black"/>
<path d="M241.62 82.09C241.62 82.09 245.39 81.97 245.79 85.03C245.912 85.9013 245.782 86.7891 245.418 87.5896C245.053 88.3901 244.467 89.0701 243.73 89.55L241.62 82.09Z" fill="#263238"/>
<path d="M241.13 83.66C243.91 83.77 244.74 85.29 244.83 88.16C244.95 91.74 244.06 94.25 240.62 93.35C235.94 92.13 236.52 83.48 241.13 83.66Z" fill="#EEC1BB"/>
<path d="M243.05 87.9301C243.253 88.3538 243.508 88.7503 243.81 89.1101C243.724 89.2228 243.608 89.3096 243.476 89.3607C243.344 89.4119 243.2 89.4255 243.06 89.4001L243.05 87.9301Z" fill="#D4827D"/>
<path d="M241.36 87.64C241.36 87.87 241.23 88.05 241.07 88.05C240.91 88.05 240.8 87.86 240.8 87.63C240.8 87.4 240.93 87.22 241.09 87.22C241.25 87.22 241.36 87.41 241.36 87.64Z" fill="#263238"/>
<path d="M241 87.23L241.5 87.04C241.5 87.04 241.27 87.46 241 87.23Z" fill="#263238"/>
<path d="M244.19 87.63C244.19 87.86 244.06 88.05 243.91 88.04C243.76 88.03 243.64 87.85 243.64 87.63C243.64 87.41 243.77 87.22 243.92 87.22C244.07 87.22 244.2 87.41 244.19 87.63Z" fill="#263238"/>
<path d="M243.86 87.23L244.36 87.04C244.36 87.04 244.11 87.45 243.86 87.23Z" fill="#263238"/>
<path d="M240.18 86.2201C240.154 86.2301 240.126 86.2301 240.1 86.2201C240.077 86.1958 240.064 86.1636 240.064 86.1301C240.064 86.0965 240.077 86.0643 240.1 86.04C240.274 85.8714 240.485 85.7463 240.716 85.6751C240.947 85.6038 241.192 85.5884 241.43 85.6301C241.447 85.6312 241.463 85.6359 241.478 85.6437C241.493 85.6516 241.506 85.6624 241.516 85.6756C241.527 85.6888 241.534 85.704 241.538 85.7203C241.542 85.7366 241.543 85.7535 241.54 85.7701C241.533 85.8036 241.514 85.8333 241.486 85.8536C241.458 85.8738 241.424 85.8833 241.39 85.8801C241.194 85.844 240.992 85.8551 240.8 85.9124C240.609 85.9698 240.434 86.0718 240.29 86.2101C240.274 86.2197 240.255 86.2256 240.236 86.2273C240.217 86.229 240.198 86.2266 240.18 86.2201Z" fill="#263238"/>
<path d="M244.52 86.08H244.45C244.313 85.9655 244.152 85.8829 243.979 85.8379C243.806 85.793 243.626 85.7868 243.45 85.82C243.418 85.8297 243.384 85.8268 243.354 85.8119C243.324 85.797 243.301 85.7713 243.29 85.74C243.28 85.7082 243.283 85.6738 243.298 85.6441C243.313 85.6143 243.339 85.5914 243.37 85.58C243.582 85.531 243.802 85.5316 244.014 85.5819C244.226 85.6322 244.423 85.7308 244.59 85.87C244.611 85.8952 244.623 85.9271 244.623 85.96C244.623 85.9929 244.611 86.0248 244.59 86.05C244.571 86.0674 244.546 86.0779 244.52 86.08Z" fill="#263238"/>
<path d="M237.91 88.22C238.665 87.0163 239.099 85.6392 239.17 84.22C239.17 84.22 244.76 82.22 244.82 87.78C244.82 87.78 245.55 82.84 240.82 82.55C236.09 82.26 235.26 88.21 237.64 90.39C237.6 90.39 237.06 89.62 237.91 88.22Z" fill="#263238"/>
<path d="M242.11 81.92C242.11 81.92 243.69 81.92 244.27 82.6C244.85 83.28 240.62 86.71 238.18 86.91C238.18 86.91 237.07 89.09 237.6 90.39C237.6 90.39 235.04 89.6 235.3 85.47C235.317 84.6852 235.544 83.9193 235.958 83.2525C236.372 82.5857 236.958 82.0424 237.654 81.6795C238.35 81.3167 239.131 81.1475 239.915 81.1898C240.699 81.2322 241.457 81.4843 242.11 81.92Z" fill="#263238"/>
<path d="M238.35 88.82C238.332 88.4991 238.189 88.1979 237.951 87.9811C237.714 87.7643 237.401 87.6491 237.08 87.66C236.21 87.72 235.74 89.47 237.86 89.98C238.16 90.05 238.35 89.76 238.35 88.82Z" fill="#EEC1BB"/>
<path d="M239.9 87.1601C239.872 87.1586 239.845 87.1481 239.823 87.1301C239.802 87.1121 239.786 87.0875 239.78 87.06C239.774 87.0443 239.771 87.0274 239.773 87.0105C239.774 86.9936 239.779 86.9773 239.788 86.9628C239.797 86.9483 239.809 86.936 239.823 86.9268C239.837 86.9177 239.853 86.9119 239.87 86.9101C240.865 86.598 241.776 86.0641 242.535 85.3487C243.294 84.6333 243.88 83.755 244.25 82.78C244.265 82.7552 244.289 82.7362 244.316 82.7263C244.344 82.7163 244.374 82.7159 244.402 82.7252C244.429 82.7344 244.453 82.7528 244.469 82.7773C244.485 82.8017 244.493 82.8309 244.49 82.8601C244.106 83.8746 243.495 84.7882 242.705 85.5315C241.915 86.2749 240.966 86.8284 239.93 87.15L239.9 87.1601Z" fill="#263238"/>
<path d="M242.75 90.94C242.413 90.907 242.091 90.7798 241.822 90.5729C241.554 90.366 241.348 90.0878 241.23 89.77C241.224 89.7383 241.229 89.7053 241.246 89.6776C241.263 89.6499 241.289 89.6293 241.32 89.62C241.353 89.6108 241.389 89.6151 241.419 89.6319C241.449 89.6488 241.471 89.6769 241.48 89.71C241.48 89.71 241.68 90.45 242.81 90.71C242.841 90.7193 242.867 90.7399 242.884 90.7676C242.901 90.7953 242.906 90.8283 242.9 90.86C242.895 90.8751 242.888 90.8892 242.878 90.9014C242.868 90.9136 242.856 90.9237 242.842 90.9311C242.828 90.9386 242.812 90.9432 242.797 90.9447C242.781 90.9462 242.765 90.9446 242.75 90.94Z" fill="#263238"/>
<path d="M246.34 93.39C246.313 93.3892 246.287 93.3801 246.266 93.364C246.244 93.3479 246.228 93.3255 246.22 93.3C246.161 93.1338 246.087 92.9732 246 92.82C245.571 91.9338 245.468 90.9245 245.71 89.97V89.78C245.99 87.55 246.3 85.02 244.54 83.46C244.529 83.4488 244.52 83.4356 244.514 83.421C244.508 83.4064 244.505 83.3908 244.505 83.375C244.505 83.3592 244.508 83.3435 244.514 83.3289C244.52 83.3144 244.529 83.3011 244.54 83.29C244.564 83.2667 244.597 83.2538 244.63 83.2538C244.664 83.2538 244.696 83.2667 244.72 83.29C246.59 84.93 246.26 87.53 245.98 89.82V90.01C245.76 91.77 245.98 92.23 246.25 92.71C246.335 92.8783 246.408 93.052 246.47 93.23C246.477 93.245 246.48 93.2612 246.48 93.2776C246.48 93.2939 246.476 93.3101 246.47 93.3251C246.463 93.3401 246.454 93.3535 246.442 93.3647C246.43 93.3759 246.416 93.3845 246.4 93.39H246.34Z" fill="#263238"/>
<path d="M266.07 84.93H252.49C252.172 84.93 251.867 84.8035 251.642 84.5785C251.416 84.3534 251.29 84.0482 251.29 83.73C251.29 83.5728 251.321 83.4173 251.382 83.2722C251.442 83.1272 251.531 82.9956 251.642 82.885C251.754 82.7743 251.886 82.6869 252.032 82.6277C252.177 82.5685 252.333 82.5386 252.49 82.54H266.07C266.386 82.54 266.688 82.6653 266.912 82.8885C267.135 83.1117 267.26 83.4144 267.26 83.73C267.261 83.8871 267.232 84.0429 267.172 84.1884C267.113 84.334 267.026 84.4663 266.915 84.5779C266.804 84.6895 266.673 84.778 266.528 84.8384C266.383 84.8989 266.227 84.93 266.07 84.93Z" fill="white"/>
<path d="M275.47 90.71H252.23C251.981 90.71 251.742 90.611 251.565 90.4347C251.389 90.2584 251.29 90.0193 251.29 89.77C251.282 89.6416 251.3 89.5129 251.344 89.3918C251.387 89.2708 251.455 89.1599 251.543 89.0662C251.631 88.9725 251.738 88.8978 251.856 88.8468C251.974 88.7959 252.101 88.7698 252.23 88.77H275.47C275.599 88.7698 275.726 88.7959 275.844 88.8468C275.962 88.8978 276.069 88.9725 276.157 89.0662C276.245 89.1599 276.313 89.2708 276.356 89.3918C276.4 89.5129 276.418 89.6416 276.41 89.77C276.41 90.0193 276.311 90.2584 276.135 90.4347C275.958 90.611 275.719 90.71 275.47 90.71Z" fill="white"/>
<path d="M271.47 94.3301H252.23C251.981 94.3301 251.742 94.231 251.565 94.0547C251.389 93.8785 251.29 93.6394 251.29 93.3901C251.289 93.2658 251.312 93.1425 251.359 93.0273C251.405 92.9121 251.474 92.8073 251.562 92.7189C251.649 92.6306 251.753 92.5604 251.868 92.5126C251.983 92.4647 252.106 92.4401 252.23 92.4401H271.47C271.594 92.4401 271.717 92.4647 271.832 92.5126C271.947 92.5604 272.051 92.6306 272.138 92.7189C272.226 92.8073 272.295 92.9121 272.341 93.0273C272.388 93.1425 272.411 93.2658 272.41 93.3901C272.41 93.6394 272.311 93.8785 272.135 94.0547C271.958 94.231 271.719 94.3301 271.47 94.3301Z" fill="white"/>
<path d="M329.61 236.11H272.93L272.35 232.45C272.289 232.048 272.084 231.682 271.773 231.421C271.462 231.16 271.066 231.021 270.66 231.03H255C254.563 231.041 254.14 231.182 253.784 231.435C253.428 231.688 253.155 232.041 253 232.45L251.63 236.11H238.91C237.704 236.133 236.547 236.59 235.652 237.399C234.757 238.208 234.185 239.313 234.04 240.51L226.29 311.51C226.212 312.065 226.255 312.63 226.417 313.167C226.578 313.704 226.855 314.199 227.226 314.618C227.598 315.038 228.057 315.371 228.57 315.596C229.084 315.821 229.64 315.931 230.2 315.92H320.9C322.106 315.895 323.262 315.434 324.155 314.624C325.048 313.813 325.618 312.708 325.76 311.51L333.51 240.51C333.589 239.956 333.546 239.392 333.384 238.857C333.223 238.321 332.948 237.827 332.577 237.409C332.206 236.99 331.749 236.658 331.236 236.433C330.724 236.209 330.169 236.099 329.61 236.11Z" fill="#00AA7E"/>
<path opacity="0.4" d="M329.61 236.11H272.93L272.35 232.45C272.289 232.048 272.084 231.682 271.773 231.421C271.462 231.16 271.066 231.021 270.66 231.03H255C254.563 231.041 254.14 231.182 253.784 231.435C253.428 231.688 253.155 232.041 253 232.45L251.63 236.11H238.91C237.704 236.133 236.547 236.59 235.652 237.399C234.757 238.208 234.185 239.313 234.04 240.51L226.29 311.51C226.212 312.065 226.255 312.63 226.417 313.167C226.578 313.704 226.855 314.199 227.226 314.618C227.598 315.038 228.057 315.371 228.57 315.596C229.084 315.821 229.64 315.931 230.2 315.92H320.9C322.106 315.895 323.262 315.434 324.155 314.624C325.048 313.813 325.618 312.708 325.76 311.51L333.51 240.51C333.589 239.956 333.546 239.392 333.384 238.857C333.223 238.321 332.948 237.827 332.577 237.409C332.206 236.99 331.749 236.658 331.236 236.433C330.724 236.209 330.169 236.099 329.61 236.11Z" fill="black"/>
<path d="M226.44 313.2L229.48 239.38H327.54L322.66 311.58L226.44 313.2Z" fill="#00AA7E"/>
<path opacity="0.7" d="M226.44 313.2L229.48 239.38H327.54L322.66 311.58L226.44 313.2Z" fill="white"/>
<path d="M319.64 316.2H228.93C228.374 316.217 227.82 316.125 227.3 315.927C226.781 315.73 226.305 315.431 225.901 315.049C225.496 314.668 225.172 314.209 224.945 313.702C224.718 313.194 224.594 312.646 224.58 312.09L225.13 245.87C225.174 244.742 225.663 243.677 226.489 242.907C227.315 242.137 228.411 241.725 229.54 241.76H320.25C320.806 241.743 321.36 241.835 321.88 242.033C322.4 242.23 322.875 242.529 323.28 242.911C323.684 243.293 324.009 243.751 324.235 244.258C324.462 244.766 324.586 245.314 324.6 245.87L324.06 312.09C324.011 313.218 323.519 314.282 322.692 315.051C321.865 315.82 320.769 316.233 319.64 316.2Z" fill="#00AA7E"/>
<path opacity="0.25" d="M319.64 316.2H228.93C228.374 316.217 227.82 316.125 227.3 315.927C226.781 315.73 226.305 315.431 225.901 315.049C225.496 314.668 225.172 314.209 224.945 313.702C224.718 313.194 224.594 312.646 224.58 312.09L225.13 245.87C225.174 244.742 225.663 243.677 226.489 242.907C227.315 242.137 228.411 241.725 229.54 241.76H320.25C320.806 241.743 321.36 241.835 321.88 242.033C322.4 242.23 322.875 242.529 323.28 242.911C323.684 243.293 324.009 243.751 324.235 244.258C324.462 244.766 324.586 245.314 324.6 245.87L324.06 312.09C324.011 313.218 323.519 314.282 322.692 315.051C321.865 315.82 320.769 316.233 319.64 316.2Z" fill="black"/>
<path opacity="0.15" d="M283.24 241.76L285.08 308.94H235.45L232.57 241.76H283.24Z" fill="black"/>
<path d="M268.58 233.86H211.9L210.9 230.22C210.794 229.813 210.555 229.453 210.222 229.196C209.889 228.939 209.481 228.8 209.06 228.8H193.43C193.009 228.8 192.601 228.939 192.268 229.196C191.935 229.453 191.696 229.813 191.59 230.22L190.59 233.86H177.88C176.718 233.86 175.604 234.322 174.783 235.143C173.961 235.964 173.5 237.078 173.5 238.24V308.88C173.5 310.042 173.961 311.156 174.783 311.977C175.604 312.799 176.718 313.26 177.88 313.26H268.58C269.743 313.26 270.858 312.799 271.681 311.978C272.504 311.157 272.967 310.043 272.97 308.88V238.24C272.967 237.077 272.504 235.963 271.681 235.142C270.858 234.321 269.743 233.86 268.58 233.86Z" fill="#00AA7E"/>
<path opacity="0.15" d="M268.58 233.86H211.9L210.9 230.22C210.794 229.813 210.555 229.453 210.222 229.196C209.889 228.939 209.481 228.8 209.06 228.8H193.43C193.009 228.8 192.601 228.939 192.268 229.196C191.935 229.453 191.696 229.813 191.59 230.22L190.59 233.86H177.88C176.718 233.86 175.604 234.322 174.783 235.143C173.961 235.964 173.5 237.078 173.5 238.24V308.88C173.5 310.042 173.961 311.156 174.783 311.977C175.604 312.799 176.718 313.26 177.88 313.26H268.58C269.743 313.26 270.858 312.799 271.681 311.978C272.504 311.157 272.967 310.043 272.97 308.88V238.24C272.967 237.077 272.504 235.963 271.681 235.142C270.858 234.321 269.743 233.86 268.58 233.86Z" fill="black"/>
<path d="M173.83 310.56L168.81 237.11H266.87L269.87 308.94L173.83 310.56Z" fill="#00AA7E"/>
<path opacity="0.8" d="M173.83 310.56L168.81 237.11H266.87L269.87 308.94L173.83 310.56Z" fill="white"/>
<path d="M267.35 313.54H176.65C175.492 313.551 174.368 313.143 173.486 312.391C172.604 311.64 172.023 310.596 171.85 309.45L165.16 243.57C165.113 243.029 165.183 242.484 165.366 241.972C165.549 241.461 165.841 240.995 166.22 240.606C166.6 240.218 167.06 239.916 167.567 239.722C168.074 239.527 168.618 239.445 169.16 239.48H259.87C261.028 239.468 262.151 239.875 263.032 240.627C263.912 241.379 264.491 242.425 264.66 243.57L271.35 309.45C271.397 309.991 271.327 310.536 271.144 311.048C270.961 311.56 270.67 312.026 270.29 312.414C269.91 312.802 269.45 313.104 268.943 313.299C268.436 313.493 267.892 313.575 267.35 313.54Z" fill="#00AA7E"/>
<path d="M243.72 289.26L337.7 275.02V326.19L250.6 342.86L243.72 289.26Z" fill="#00AA7E"/>
<path opacity="0.5" d="M243.72 289.26L337.7 275.02V326.19L250.6 342.86L243.72 289.26Z" fill="white"/>
<path opacity="0.7" d="M243.72 289.26L245.04 290.71L337.7 276.46V275.02L243.72 289.26Z" fill="white"/>
<path opacity="0.2" d="M259.14 286.93L263.38 287.89L266.87 339.75L250.6 342.86L243.72 289.26L259.14 286.93Z" fill="black"/>
<path d="M259.14 349.6H153.24L146.58 245.27H252.49L259.14 349.6Z" fill="#00AA7E"/>
<path opacity="0.7" d="M259.14 349.6H153.24L146.58 245.27H252.49L259.14 349.6Z" fill="white"/>
<path opacity="0.2" d="M259.14 349.6H256.13L249.47 245.27H252.49L259.14 349.6Z" fill="black"/>
<path d="M213.54 267.11H176.75L176.16 257.75H212.95L213.54 267.11Z" fill="white"/>
<path opacity="0.1" d="M231.94 304.16L221.39 291.51H219.45L220 300.1H217.43L220.99 304.16C221.023 304.195 221.045 304.24 221.053 304.287C221.061 304.335 221.056 304.384 221.037 304.428C221.018 304.473 220.986 304.511 220.946 304.538C220.906 304.565 220.859 304.579 220.81 304.58H193.07C192.822 304.577 192.577 304.52 192.352 304.413C192.128 304.306 191.929 304.151 191.77 303.96L188.55 300.1H177.43L186.09 309.97C186.248 310.153 186.443 310.3 186.662 310.402C186.881 310.504 187.119 310.557 187.36 310.56H231.09C231.292 310.563 231.493 310.524 231.679 310.446C231.866 310.368 232.034 310.252 232.173 310.105C232.312 309.958 232.419 309.784 232.487 309.594C232.556 309.404 232.584 309.202 232.57 309L232.32 305.11C232.295 304.762 232.162 304.43 231.94 304.16Z" fill="black"/>
<path d="M220.71 301.4H168.62C168.205 301.396 167.806 301.237 167.503 300.954C167.199 300.671 167.013 300.284 166.98 299.87L166.5 292.4C166.486 292.203 166.514 292.005 166.581 291.819C166.648 291.633 166.753 291.463 166.889 291.319C167.026 291.176 167.191 291.063 167.373 290.988C167.556 290.912 167.752 290.875 167.95 290.88H220C220.415 290.883 220.813 291.041 221.118 291.322C221.423 291.603 221.613 291.987 221.65 292.4L222.12 299.87C222.135 300.065 222.11 300.26 222.046 300.445C221.982 300.629 221.881 300.799 221.749 300.942C221.616 301.086 221.456 301.201 221.277 301.279C221.098 301.358 220.905 301.399 220.71 301.4Z" fill="#00AA7E"/>
<path opacity="0.2" d="M208.25 301.4H168.62C168.205 301.396 167.806 301.237 167.503 300.954C167.199 300.671 167.013 300.284 166.98 299.87L166.5 292.4C166.486 292.203 166.514 292.005 166.581 291.819C166.648 291.633 166.753 291.463 166.889 291.319C167.026 291.176 167.191 291.063 167.373 290.988C167.556 290.912 167.752 290.875 167.95 290.88H207.58C207.994 290.881 208.393 291.038 208.697 291.32C209.001 291.601 209.187 291.987 209.22 292.4L209.7 299.87C209.714 300.068 209.687 300.266 209.62 300.453C209.553 300.639 209.448 300.81 209.312 300.954C209.175 301.098 209.01 301.212 208.828 301.289C208.645 301.365 208.448 301.403 208.25 301.4Z" fill="white"/>
<path d="M179.85 262.44C180.537 262.666 181.277 262.675 181.97 262.466C182.662 262.257 183.273 261.839 183.72 261.27C183.72 262.06 183.49 263.08 183.54 263.98C184.247 263.27 184.823 262.441 185.24 261.53C184.5 263.16 186.44 263.53 187.58 262.99C187.959 262.817 188.283 262.544 188.517 262.201C188.752 261.857 188.887 261.455 188.91 261.04C188.91 260.78 188.8 260.46 188.54 260.41C188.28 260.36 188.08 260.58 187.95 260.79C187.49 261.5 186.95 263.46 188.07 263.7C189.19 263.94 190.49 262.05 190.79 261.28C190.487 261.432 190.237 261.672 190.071 261.968C189.905 262.264 189.832 262.602 189.86 262.94C191.02 262.89 192.61 263.17 192.68 261.61C192.58 263.67 194.54 262.97 195.26 261.61C195.03 262.34 196.12 262.71 196.88 262.7L207.09 262.47" stroke="#263238" stroke-width="0.5" stroke-linecap="round" stroke-linejoin="round"/>
</svg>
