<svg width="500" height="500" viewBox="0 0 500 500" fill="none" xmlns="http://www.w3.org/2000/svg">
<path d="M500 382.4H0V382.65H500V382.4Z" fill="#EBEBEB"/>
<path d="M449.9 398.49H416.78V398.74H449.9V398.49Z" fill="#EBEBEB"/>
<path d="M331.22 401.211H322.53V401.461H331.22V401.211Z" fill="#EBEBEB"/>
<path d="M415.78 389.211H396.59V389.461H415.78V389.211Z" fill="#EBEBEB"/>
<path d="M95.65 390.891H52.46V391.141H95.65V390.891Z" fill="#EBEBEB"/>
<path d="M110.89 390.891H104.56V391.141H110.89V390.891Z" fill="#EBEBEB"/>
<path d="M225.15 395.109H131.47V395.359H225.15V395.109Z" fill="#EBEBEB"/>
<path d="M237 337.8H43.91C42.3973 337.797 40.9475 337.195 39.8788 336.124C38.8102 335.054 38.21 333.603 38.21 332.09V60.66C38.2231 59.156 38.8292 57.718 39.8964 56.6582C40.9637 55.5985 42.4059 55.0026 43.91 55H237C238.514 55 239.967 55.6016 241.038 56.6724C242.108 57.7433 242.71 59.1956 242.71 60.71V332.09C242.71 333.604 242.108 335.057 241.038 336.128C239.967 337.198 238.514 337.8 237 337.8V337.8ZM43.91 55.2C42.4636 55.2026 41.0774 55.7791 40.0556 56.8027C39.0338 57.8264 38.46 59.2136 38.46 60.66V332.09C38.46 333.536 39.0338 334.924 40.0556 335.947C41.0774 336.971 42.4636 337.547 43.91 337.55H237C238.447 337.547 239.834 336.971 240.858 335.948C241.881 334.924 242.457 333.537 242.46 332.09V60.66C242.457 59.2127 241.881 57.8255 240.858 56.8021C239.834 55.7787 238.447 55.2026 237 55.2H43.91Z" fill="#EBEBEB"/>
<path d="M453.31 337.8H260.21C258.696 337.797 257.246 337.195 256.175 336.125C255.105 335.054 254.503 333.604 254.5 332.09V60.66C254.516 59.1551 255.124 57.7171 256.193 56.6576C257.262 55.5981 258.705 55.0025 260.21 55H453.31C454.812 55.0052 456.252 55.6022 457.317 56.6617C458.382 57.7212 458.987 59.1578 459 60.66V332.09C459 333.601 458.401 335.05 457.335 336.121C456.268 337.191 454.821 337.795 453.31 337.8V337.8ZM260.21 55.2C258.763 55.2026 257.375 55.7787 256.352 56.8021C255.329 57.8255 254.753 59.2127 254.75 60.66V332.09C254.753 333.537 255.329 334.924 256.352 335.948C257.375 336.971 258.763 337.547 260.21 337.55H453.31C454.757 337.547 456.145 336.971 457.168 335.948C458.191 334.924 458.767 333.537 458.77 332.09V60.66C458.767 59.2127 458.191 57.8255 457.168 56.8021C456.145 55.7787 454.757 55.2026 453.31 55.2H260.21Z" fill="#EBEBEB"/>
<path d="M359.66 169.429H407.69L406.95 162.939H358.92L359.66 169.429Z" fill="#F5F5F5"/>
<path d="M363.1 199.791H411.13L410.39 193.301H362.36L363.1 199.791Z" fill="#F5F5F5"/>
<path d="M366.54 230.15H414.57L413.83 223.65H365.8L366.54 230.15Z" fill="#F5F5F5"/>
<path d="M369.97 260.5H418.01L417.27 254.01H369.24L369.97 260.5Z" fill="#F5F5F5"/>
<path d="M373.41 290.859H421.44L420.71 284.359H372.68L373.41 290.859Z" fill="#F5F5F5"/>
<path d="M376.85 321.211H424.88L424.15 314.721H376.12L376.85 321.211Z" fill="#F5F5F5"/>
<path d="M380.29 351.57H428.32L427.59 345.07H379.56L380.29 351.57Z" fill="#F5F5F5"/>
<path d="M428.52 382.45H436.04L409.7 150.02H402.18L428.52 382.45Z" fill="#EBEBEB"/>
<path d="M379.57 382.45H387.1L360.76 150.02H353.24L379.57 382.45Z" fill="#EBEBEB"/>
<path d="M288.51 118.301L412.37 118.301V111.161L288.51 111.161V118.301Z" fill="#F0F0F0"/>
<path d="M311.261 91.6995L310.53 90.6995C310.404 90.5189 310.237 90.3711 310.042 90.2685C309.847 90.1658 309.631 90.1113 309.41 90.1095H304.33C304.118 90.1068 303.908 90.1599 303.722 90.2634C303.536 90.3669 303.38 90.5172 303.27 90.6995L302.671 91.6995C302.56 91.881 302.404 92.0308 302.218 92.1342C302.033 92.2376 301.823 92.2911 301.61 92.2895H298.61C298.44 92.2876 298.272 92.3211 298.115 92.3879C297.958 92.4546 297.817 92.5532 297.701 92.6772C297.584 92.8013 297.495 92.9482 297.438 93.1087C297.381 93.2692 297.358 93.4397 297.37 93.6095L298.37 110.609C298.393 110.962 298.547 111.294 298.803 111.539C299.059 111.783 299.397 111.923 299.75 111.929H323.75C323.92 111.931 324.089 111.898 324.245 111.831C324.401 111.764 324.541 111.666 324.657 111.541C324.773 111.417 324.862 111.27 324.917 111.109C324.973 110.949 324.994 110.779 324.981 110.609L323.981 93.6095C323.958 93.2565 323.804 92.9248 323.548 92.6803C323.292 92.4358 322.954 92.2963 322.601 92.2895H312.38C312.16 92.2876 311.944 92.2331 311.749 92.1305C311.554 92.0278 311.387 91.88 311.261 91.6995V91.6995Z" fill="#E0E0E0"/>
<path d="M325 93.9107H303C302.549 93.9178 302.116 94.0894 301.783 94.3933C301.45 94.6971 301.239 95.1123 301.19 95.5607L299.86 110.261C299.837 110.472 299.86 110.686 299.926 110.887C299.993 111.089 300.102 111.274 300.246 111.431C300.39 111.587 300.565 111.711 300.761 111.793C300.957 111.876 301.168 111.916 301.38 111.911H323.38C323.831 111.904 324.264 111.732 324.597 111.428C324.931 111.124 325.142 110.709 325.19 110.261L326.51 95.5607C326.535 95.35 326.514 95.1365 326.448 94.9347C326.383 94.7329 326.275 94.5475 326.132 94.391C325.989 94.2345 325.814 94.1106 325.618 94.0278C325.423 93.9449 325.212 93.905 325 93.9107V93.9107Z" fill="#E6E6E6"/>
<path d="M351.261 91.6995L350.53 90.6995C350.404 90.5189 350.237 90.3711 350.042 90.2685C349.847 90.1658 349.631 90.1113 349.41 90.1095H344.33C344.118 90.1068 343.908 90.1599 343.722 90.2634C343.536 90.3669 343.38 90.5172 343.27 90.6995L342.671 91.6995C342.56 91.881 342.404 92.0308 342.218 92.1342C342.033 92.2376 341.823 92.2911 341.61 92.2895H338.61C338.44 92.2876 338.272 92.3211 338.115 92.3879C337.958 92.4546 337.817 92.5532 337.701 92.6772C337.584 92.8013 337.495 92.9482 337.438 93.1087C337.381 93.2692 337.358 93.4397 337.37 93.6095L338.37 110.609C338.393 110.962 338.547 111.294 338.803 111.539C339.059 111.783 339.397 111.923 339.75 111.929H363.75C363.92 111.931 364.089 111.898 364.245 111.831C364.401 111.764 364.541 111.666 364.657 111.541C364.773 111.417 364.862 111.27 364.917 111.109C364.973 110.949 364.994 110.779 364.981 110.609L363.981 93.6095C363.958 93.2565 363.804 92.9248 363.548 92.6803C363.292 92.4358 362.954 92.2963 362.601 92.2895H352.38C352.16 92.2876 351.944 92.2331 351.749 92.1305C351.554 92.0278 351.387 91.88 351.261 91.6995V91.6995Z" fill="#E0E0E0"/>
<path d="M365 93.9107H343C342.549 93.9178 342.116 94.0894 341.783 94.3933C341.45 94.6971 341.239 95.1123 341.19 95.5607L339.86 110.261C339.837 110.472 339.86 110.686 339.926 110.887C339.993 111.089 340.102 111.274 340.246 111.431C340.39 111.587 340.565 111.711 340.761 111.793C340.957 111.876 341.168 111.916 341.38 111.911H363.38C363.831 111.904 364.264 111.732 364.597 111.428C364.931 111.124 365.142 110.709 365.19 110.261L366.51 95.5607C366.535 95.35 366.514 95.1365 366.448 94.9347C366.383 94.7329 366.275 94.5475 366.132 94.391C365.989 94.2345 365.814 94.1106 365.618 94.0278C365.423 93.9449 365.212 93.905 365 93.9107V93.9107Z" fill="#E6E6E6"/>
<path d="M391.261 91.6995L390.53 90.6995C390.404 90.5189 390.237 90.3711 390.042 90.2685C389.847 90.1658 389.631 90.1113 389.41 90.1095H384.33C384.118 90.1068 383.908 90.1599 383.722 90.2634C383.536 90.3669 383.38 90.5172 383.27 90.6995L382.671 91.6995C382.56 91.881 382.404 92.0308 382.218 92.1342C382.033 92.2376 381.823 92.2911 381.61 92.2895H378.61C378.44 92.2876 378.272 92.3211 378.115 92.3879C377.958 92.4546 377.817 92.5532 377.701 92.6772C377.584 92.8013 377.495 92.9482 377.438 93.1087C377.381 93.2692 377.358 93.4397 377.37 93.6095L378.37 110.609C378.393 110.962 378.547 111.294 378.803 111.539C379.059 111.783 379.397 111.923 379.75 111.929H403.75C403.92 111.931 404.089 111.898 404.245 111.831C404.401 111.764 404.541 111.666 404.657 111.541C404.773 111.417 404.862 111.27 404.917 111.109C404.973 110.949 404.994 110.779 404.981 110.609L403.981 93.6095C403.958 93.2565 403.804 92.9248 403.548 92.6803C403.292 92.4358 402.954 92.2963 402.601 92.2895H392.38C392.16 92.2876 391.944 92.2331 391.749 92.1305C391.554 92.0278 391.387 91.88 391.261 91.6995V91.6995Z" fill="#E0E0E0"/>
<path d="M405 93.9107H383C382.549 93.9178 382.116 94.0894 381.783 94.3933C381.45 94.6971 381.239 95.1123 381.19 95.5607L379.86 110.261C379.837 110.472 379.86 110.686 379.926 110.887C379.993 111.089 380.102 111.274 380.246 111.431C380.39 111.587 380.565 111.711 380.761 111.793C380.957 111.876 381.168 111.916 381.38 111.911H403.38C403.831 111.904 404.264 111.732 404.597 111.428C404.931 111.124 405.142 110.709 405.19 110.261L406.51 95.5607C406.535 95.35 406.514 95.1365 406.448 94.9347C406.383 94.7329 406.275 94.5475 406.132 94.391C405.989 94.2345 405.814 94.1106 405.618 94.0278C405.423 93.9449 405.212 93.905 405 93.9107V93.9107Z" fill="#E6E6E6"/>
<path d="M214.54 102.42H68.8101V195.12H214.54V102.42Z" fill="#F5F5F5"/>
<path d="M214.54 102.42H68.8101V108.7H214.54V102.42Z" fill="#E0E0E0"/>
<path d="M212.38 105.56C212.38 105.936 212.269 106.303 212.06 106.616C211.851 106.928 211.554 107.172 211.207 107.316C210.86 107.459 210.478 107.497 210.109 107.424C209.741 107.35 209.402 107.169 209.137 106.904C208.871 106.638 208.69 106.299 208.617 105.931C208.543 105.562 208.581 105.18 208.725 104.833C208.869 104.486 209.112 104.189 209.425 103.98C209.737 103.772 210.104 103.66 210.48 103.66C210.984 103.66 211.467 103.86 211.824 104.217C212.18 104.573 212.38 105.056 212.38 105.56Z" fill="#FAFAFA"/>
<path d="M206.09 105.56C206.09 105.936 205.979 106.303 205.77 106.616C205.561 106.928 205.264 107.172 204.917 107.316C204.57 107.459 204.188 107.497 203.819 107.424C203.451 107.35 203.112 107.169 202.847 106.904C202.581 106.638 202.4 106.299 202.327 105.931C202.253 105.562 202.291 105.18 202.435 104.833C202.578 104.486 202.822 104.189 203.134 103.98C203.447 103.772 203.814 103.66 204.19 103.66C204.694 103.66 205.177 103.86 205.534 104.217C205.89 104.573 206.09 105.056 206.09 105.56Z" fill="#FAFAFA"/>
<path d="M199.8 105.56C199.8 105.936 199.688 106.304 199.479 106.617C199.27 106.929 198.973 107.173 198.625 107.316C198.277 107.46 197.894 107.497 197.526 107.423C197.157 107.349 196.818 107.167 196.553 106.9C196.288 106.633 196.107 106.294 196.035 105.925C195.963 105.555 196.002 105.173 196.148 104.826C196.293 104.479 196.538 104.183 196.852 103.976C197.165 103.768 197.534 103.658 197.91 103.66C198.159 103.66 198.406 103.709 198.636 103.805C198.866 103.901 199.074 104.041 199.25 104.217C199.426 104.394 199.565 104.603 199.659 104.834C199.753 105.064 199.801 105.311 199.8 105.56V105.56Z" fill="#FAFAFA"/>
<path d="M95.1698 119.589L94.2698 118.339C94.1111 118.115 93.9014 117.932 93.6579 117.805C93.4145 117.679 93.1443 117.611 92.8698 117.609H86.5498C86.2868 117.607 86.0275 117.672 85.7978 117.8C85.568 117.928 85.3756 118.114 85.2398 118.339L84.4898 119.589C84.3508 119.814 84.1565 119.999 83.9253 120.127C83.6941 120.255 83.4339 120.321 83.1698 120.319H79.3998C79.1851 120.317 78.9724 120.36 78.7755 120.445C78.5786 120.531 78.4021 120.657 78.2575 120.816C78.113 120.975 78.0037 121.162 77.9369 121.366C77.87 121.57 77.8472 121.786 77.8698 121.999L79.0898 143.109C79.1174 143.549 79.3099 143.962 79.6287 144.266C79.9475 144.57 80.3693 144.743 80.8098 144.749H110.71C110.921 144.752 111.13 144.71 111.324 144.626C111.518 144.543 111.692 144.421 111.836 144.266C111.98 144.112 112.09 143.93 112.16 143.73C112.229 143.531 112.256 143.32 112.24 143.109L111 121.999C110.972 121.56 110.78 121.147 110.461 120.843C110.142 120.539 109.72 120.366 109.28 120.359H96.5598C96.2838 120.35 96.0139 120.275 95.7724 120.141C95.5308 120.008 95.3243 119.818 95.1698 119.589V119.589Z" fill="#E0E0E0"/>
<path d="M112.29 122.331H84.9002C84.3462 122.338 83.8133 122.543 83.3984 122.91C82.9836 123.278 82.7144 123.782 82.6401 124.331L81.0001 142.661C80.9716 142.922 80.9993 143.187 81.0813 143.437C81.1633 143.688 81.2978 143.917 81.4758 144.111C81.6538 144.305 81.8711 144.459 82.1133 144.563C82.3555 144.666 82.6169 144.716 82.8801 144.711H110.27C110.831 144.704 111.37 144.491 111.785 144.113C112.2 143.736 112.461 143.219 112.52 142.661L114.17 124.381C114.199 124.119 114.171 123.854 114.089 123.604C114.007 123.354 113.872 123.124 113.694 122.93C113.517 122.736 113.299 122.582 113.057 122.478C112.815 122.375 112.553 122.325 112.29 122.331V122.331Z" fill="#E6E6E6"/>
<path d="M140.78 119.589L139.88 118.339C139.721 118.115 139.512 117.932 139.268 117.805C139.025 117.679 138.755 117.611 138.48 117.609H132.16C131.897 117.607 131.638 117.672 131.408 117.8C131.178 117.928 130.986 118.114 130.85 118.339L130.1 119.589C129.961 119.814 129.767 119.999 129.536 120.127C129.304 120.255 129.044 120.321 128.78 120.319H125C124.789 120.317 124.58 120.359 124.386 120.442C124.192 120.526 124.018 120.648 123.874 120.803C123.73 120.957 123.62 121.139 123.55 121.338C123.481 121.538 123.453 121.749 123.47 121.959L124.69 143.069C124.718 143.509 124.91 143.922 125.229 144.226C125.548 144.53 125.97 144.703 126.41 144.709H156.31C156.521 144.712 156.73 144.67 156.924 144.586C157.118 144.503 157.292 144.381 157.436 144.226C157.58 144.072 157.69 143.89 157.76 143.69C157.829 143.491 157.857 143.28 157.84 143.069L156.63 121.999C156.602 121.56 156.41 121.147 156.091 120.843C155.772 120.539 155.351 120.366 154.91 120.359H142.17C141.894 120.35 141.624 120.275 141.383 120.141C141.141 120.008 140.935 119.818 140.78 119.589V119.589Z" fill="#E0E0E0"/>
<path d="M157.9 122.33H130.51C129.955 122.335 129.421 122.54 129.006 122.908C128.591 123.275 128.322 123.781 128.25 124.33L126.61 142.61C126.58 142.873 126.606 143.138 126.687 143.389C126.769 143.64 126.903 143.87 127.082 144.065C127.26 144.259 127.478 144.413 127.721 144.516C127.964 144.619 128.226 144.668 128.49 144.66H155.88C156.441 144.654 156.98 144.441 157.395 144.063C157.809 143.685 158.071 143.168 158.13 142.61L159.78 124.33C159.801 124.073 159.768 123.813 159.682 123.569C159.597 123.325 159.461 123.101 159.284 122.913C159.107 122.725 158.892 122.575 158.654 122.475C158.415 122.375 158.158 122.325 157.9 122.33V122.33Z" fill="#E6E6E6"/>
<path d="M186.39 119.589L185.49 118.339C185.332 118.115 185.122 117.932 184.878 117.805C184.635 117.679 184.365 117.611 184.09 117.609H177.77C177.507 117.607 177.248 117.672 177.018 117.8C176.788 117.928 176.596 118.114 176.46 118.339L175.7 119.589C175.564 119.814 175.371 119.999 175.141 120.127C174.912 120.255 174.653 120.321 174.39 120.319H170.62C170.409 120.317 170.2 120.359 170.006 120.442C169.812 120.526 169.638 120.648 169.494 120.803C169.35 120.957 169.24 121.139 169.17 121.338C169.101 121.538 169.074 121.749 169.09 121.959L170.31 143.069C170.338 143.509 170.53 143.922 170.849 144.226C171.168 144.53 171.59 144.703 172.03 144.709H201.93C202.141 144.712 202.35 144.67 202.544 144.586C202.738 144.503 202.912 144.381 203.056 144.226C203.2 144.072 203.311 143.89 203.38 143.69C203.45 143.491 203.477 143.28 203.46 143.069L202.24 121.999C202.213 121.56 202.02 121.147 201.701 120.843C201.382 120.539 200.961 120.366 200.52 120.359H187.78C187.504 120.352 187.233 120.277 186.992 120.143C186.75 120.01 186.544 119.82 186.39 119.589V119.589Z" fill="#E0E0E0"/>
<path d="M203.5 122.331H176.11C175.557 122.338 175.026 122.544 174.612 122.911C174.199 123.279 173.932 123.783 173.86 124.331L172.22 142.611C172.19 142.873 172.216 143.138 172.298 143.389C172.379 143.64 172.514 143.871 172.692 144.065C172.87 144.259 173.088 144.413 173.331 144.516C173.574 144.619 173.836 144.668 174.1 144.661H201.49C202.051 144.654 202.59 144.441 203.005 144.064C203.42 143.686 203.681 143.169 203.74 142.611L205.39 124.331C205.411 124.072 205.378 123.812 205.292 123.567C205.206 123.322 205.069 123.098 204.891 122.909C204.713 122.721 204.497 122.572 204.257 122.472C204.017 122.372 203.76 122.324 203.5 122.331Z" fill="#E6E6E6"/>
<path d="M95.1699 158.211L94.2699 156.971C94.1118 156.745 93.9024 156.561 93.659 156.432C93.4156 156.303 93.1452 156.234 92.8699 156.231H86.5499C86.286 156.229 86.0261 156.296 85.7962 156.426C85.5664 156.556 85.3746 156.743 85.2399 156.971L84.4899 158.211C84.3525 158.437 84.1584 158.623 83.9269 158.751C83.6954 158.879 83.4345 158.944 83.1699 158.941H79.3999C79.1885 158.94 78.9792 158.983 78.7853 159.067C78.5914 159.152 78.4171 159.275 78.2733 159.43C78.1296 159.585 78.0195 159.768 77.9501 159.968C77.8806 160.168 77.8534 160.38 77.8699 160.591L79.0899 181.701C79.1176 182.14 79.31 182.553 79.6289 182.857C79.9477 183.161 80.3695 183.334 80.8099 183.341H110.71C110.92 183.341 111.129 183.298 111.322 183.214C111.515 183.131 111.689 183.008 111.833 182.854C111.976 182.7 112.087 182.518 112.157 182.32C112.227 182.121 112.255 181.91 112.24 181.701L111 160.591C110.975 160.149 110.783 159.734 110.464 159.427C110.145 159.121 109.722 158.947 109.28 158.941H96.5599C96.2869 158.938 96.0185 158.87 95.7768 158.743C95.5351 158.616 95.3271 158.434 95.1699 158.211Z" fill="#E0E0E0"/>
<path d="M112.29 161H84.9002C84.3462 161.007 83.8133 161.213 83.3984 161.58C82.9836 161.947 82.7144 162.451 82.6401 163L81.0001 181.29C80.9716 181.552 80.9993 181.817 81.0813 182.067C81.1633 182.317 81.2978 182.547 81.4758 182.741C81.6538 182.935 81.8711 183.089 82.1133 183.192C82.3555 183.296 82.6169 183.346 82.8801 183.34H110.27C110.831 183.331 111.368 183.118 111.783 182.741C112.197 182.363 112.459 181.848 112.52 181.29L114.17 163C114.191 162.743 114.158 162.483 114.072 162.239C113.987 161.995 113.851 161.771 113.674 161.583C113.497 161.394 113.282 161.245 113.044 161.145C112.806 161.045 112.549 160.995 112.29 161V161Z" fill="#E6E6E6"/>
<path d="M140.78 158.211L139.88 156.971C139.722 156.745 139.512 156.561 139.269 156.432C139.026 156.303 138.755 156.234 138.48 156.231H132.16C131.896 156.229 131.636 156.296 131.406 156.426C131.176 156.556 130.985 156.743 130.85 156.971L130.1 158.211C129.962 158.437 129.768 158.623 129.537 158.751C129.305 158.879 129.044 158.944 128.78 158.941H125C124.788 158.938 124.578 158.98 124.383 159.064C124.189 159.148 124.014 159.272 123.87 159.427C123.726 159.582 123.616 159.766 123.547 159.966C123.478 160.167 123.452 160.379 123.47 160.591L124.69 181.701C124.718 182.14 124.91 182.553 125.229 182.857C125.548 183.161 125.969 183.334 126.41 183.341H156.31C156.52 183.341 156.729 183.298 156.922 183.214C157.115 183.131 157.289 183.008 157.433 182.854C157.576 182.7 157.687 182.518 157.757 182.32C157.827 182.121 157.855 181.91 157.84 181.701L156.62 160.591C156.595 160.149 156.403 159.734 156.084 159.427C155.765 159.121 155.342 158.947 154.9 158.941H142.17C141.897 158.938 141.628 158.87 141.387 158.743C141.145 158.616 140.937 158.434 140.78 158.211V158.211Z" fill="#E0E0E0"/>
<path d="M157.9 161H130.51C129.955 161.005 129.421 161.21 129.006 161.578C128.591 161.945 128.322 162.451 128.25 163L126.61 181.28C126.581 181.542 126.609 181.807 126.691 182.057C126.773 182.307 126.908 182.537 127.086 182.731C127.264 182.925 127.481 183.079 127.723 183.182C127.965 183.286 128.227 183.336 128.49 183.33H155.88C156.44 183.321 156.978 183.108 157.393 182.731C157.807 182.353 158.069 181.838 158.13 181.28L159.78 163C159.801 162.743 159.768 162.483 159.682 162.239C159.597 161.995 159.461 161.771 159.284 161.583C159.107 161.394 158.892 161.245 158.654 161.145C158.415 161.045 158.159 160.995 157.9 161V161Z" fill="#E6E6E6"/>
<path d="M186.39 158.211L185.49 156.971C185.332 156.745 185.122 156.561 184.879 156.432C184.636 156.303 184.365 156.234 184.09 156.231H177.77C177.506 156.229 177.246 156.296 177.016 156.426C176.786 156.556 176.595 156.743 176.46 156.971L175.7 158.211C175.566 158.437 175.374 158.624 175.144 158.752C174.913 158.881 174.653 158.946 174.39 158.941H170.62C170.408 158.938 170.198 158.98 170.004 159.064C169.809 159.148 169.634 159.272 169.49 159.427C169.346 159.582 169.236 159.766 169.167 159.966C169.098 160.167 169.072 160.379 169.09 160.591L170.31 181.701C170.338 182.14 170.53 182.553 170.849 182.857C171.168 183.161 171.59 183.334 172.03 183.341H201.93C202.141 183.341 202.349 183.298 202.542 183.214C202.735 183.131 202.909 183.008 203.053 182.854C203.196 182.7 203.307 182.518 203.377 182.32C203.447 182.121 203.475 181.91 203.46 181.701L202.24 160.591C202.215 160.149 202.023 159.734 201.704 159.427C201.385 159.121 200.962 158.947 200.52 158.941H187.78C187.507 158.939 187.238 158.871 186.996 158.744C186.754 158.617 186.547 158.434 186.39 158.211V158.211Z" fill="#E0E0E0"/>
<path d="M203.5 161.001H176.11C175.557 161.008 175.025 161.214 174.612 161.581C174.199 161.949 173.932 162.452 173.86 163.001L172.22 181.281C172.191 181.542 172.219 181.807 172.301 182.057C172.383 182.308 172.518 182.537 172.696 182.731C172.873 182.925 173.091 183.079 173.333 183.183C173.575 183.286 173.837 183.336 174.1 183.331H201.49C202.05 183.322 202.588 183.108 203.003 182.731C203.417 182.354 203.679 181.838 203.74 181.281L205.39 163.001C205.411 162.742 205.377 162.482 205.291 162.237C205.205 161.992 205.069 161.768 204.891 161.579C204.712 161.391 204.496 161.242 204.257 161.142C204.017 161.042 203.759 160.994 203.5 161.001V161.001Z" fill="#E6E6E6"/>
<path d="M92.1998 348.719C92.1998 348.369 93.3898 313.609 99.0398 308.109C104.54 302.769 110.85 307.909 111.12 308.109L111.68 307.429C111.61 307.369 104.49 301.549 98.4198 307.429C92.5198 313.169 91.3598 347.189 91.3198 348.639L92.1998 348.719Z" fill="#E0E0E0"/>
<path d="M91.7098 355.551C91.7598 355.131 95.5798 313.821 80.4898 296.551L79.8198 297.131C94.6598 314.131 90.8698 355.131 90.8198 355.501L91.7098 355.551Z" fill="#E0E0E0"/>
<path d="M92.2701 351.18L93.1601 351.12C93.1601 350.65 90.1601 304.12 101.27 293.98L100.67 293.33C89.2901 303.79 92.1501 349.25 92.2701 351.18Z" fill="#E0E0E0"/>
<path d="M90.8302 351.15H91.7202C91.7202 349.86 91.3502 319.74 82.7902 314.84C81.9802 314.311 81.0543 313.986 80.0914 313.892C79.1285 313.798 78.1572 313.938 77.2602 314.3C72.0802 316.44 69.5202 325.64 69.4102 326.04L70.2701 326.27C70.2701 326.18 72.8202 317.09 77.6002 315.11C78.3738 314.808 79.2083 314.695 80.0345 314.78C80.8606 314.866 81.6545 315.147 82.3502 315.6C90.4702 320.26 90.8302 350.84 90.8302 351.15Z" fill="#E0E0E0"/>
<path d="M94.1598 351.17L95.0498 351.12C95.0498 350.89 93.7598 327.32 100.12 319.01C101.66 317.01 103.33 316.01 105.12 316.17C109.29 316.46 112.78 322.56 112.82 322.62L113.59 322.18C113.43 321.91 109.82 315.61 105.18 315.28C103.1 315.14 101.18 316.21 99.4298 318.48C92.8498 327 94.1098 350.19 94.1598 351.17Z" fill="#E0E0E0"/>
<path d="M92.7702 354.381C92.9402 352.091 96.9302 298.281 89.9202 288.801L89.2002 289.321C96.0202 298.541 91.9302 353.761 91.8902 354.321L92.7702 354.381Z" fill="#E0E0E0"/>
<path d="M75.3498 319.749C75.3498 319.749 79.5598 321.299 78.3498 324.959C77.1398 328.619 63.7998 334.649 63.7998 334.649C63.7998 334.649 58.2298 329.539 63.3398 321.239C68.4498 312.939 75.2398 317.129 75.3498 319.749Z" fill="#EBEBEB"/>
<path d="M93.64 312.779C93.64 312.779 89.16 312.589 88.9 316.449C88.64 320.309 98.61 330.999 98.61 330.999C98.61 330.999 105.71 328.429 104.19 318.799C102.67 309.169 94.75 310.409 93.64 312.779Z" fill="#EBEBEB"/>
<path d="M97.4298 294.3C97.4298 294.3 94.4298 293.98 94.6798 292.16C94.9298 290.34 106.29 285.66 113 293.23C113 293.23 108.7 300.61 102.49 300.71C96.2798 300.81 97.4298 294.3 97.4298 294.3Z" fill="#EBEBEB"/>
<path d="M91.8599 289.89C91.8599 289.89 94.5699 291.19 95.3299 289.52C96.0899 287.85 88.9099 277.87 79.2199 280.74C79.2199 280.74 78.9599 289.28 84.2199 292.64C89.4799 296 91.8599 289.89 91.8599 289.89Z" fill="#EBEBEB"/>
<path d="M106 318.281C106 318.281 103.94 316.611 106.16 315.801C108.38 314.991 119.3 315.221 119.42 326.031C119.42 326.031 106.71 328.141 105.13 324.031C103.55 319.921 106 318.281 106 318.281Z" fill="#EBEBEB"/>
<path d="M80.0799 294C80.0799 294 82.1399 292.34 79.9199 291.53C77.6999 290.72 66.7799 291 66.6699 301.78C66.6699 301.78 79.3799 303.9 80.9499 299.78C82.5199 295.66 80.0799 294 80.0799 294Z" fill="#EBEBEB"/>
<path d="M86.8002 302.74C86.8002 302.74 86.9802 300.74 85.3502 301.51C83.7202 302.28 78.0302 308.44 83.9302 314.26C83.9302 314.26 91.8602 308.39 90.4302 305.32C89.0002 302.25 86.8002 302.74 86.8002 302.74Z" fill="#EBEBEB"/>
<path d="M107.84 305.619C107.84 305.619 106.61 304.009 108.42 303.809C110.23 303.609 118.31 305.809 116.42 313.809C116.42 313.809 106.57 313.069 106.15 309.709C105.73 306.349 107.84 305.619 107.84 305.619Z" fill="#EBEBEB"/>
<path d="M74.5599 381.119H108.36L112.01 344.109H70.9199L74.5599 381.119Z" fill="#F0F0F0"/>
<path d="M69.1198 348.189H113.82V340.019H69.1198V348.189Z" fill="#E6E6E6"/>
<path d="M250 427.56C357.082 427.56 443.89 422.492 443.89 416.24C443.89 409.988 357.082 404.92 250 404.92C142.917 404.92 56.1099 409.988 56.1099 416.24C56.1099 422.492 142.917 427.56 250 427.56Z" fill="#F5F5F5"/>
<path d="M181.53 240.119C181.44 243.799 180.77 248.479 177.88 251.119C174.16 254.469 167.88 252.119 165.51 248.259" stroke="#263238" stroke-width="0.706754" stroke-linecap="round" stroke-linejoin="round"/>
<path d="M181.33 268.35L190.33 275.2C190.33 275.2 192.64 275.51 193.28 276.35C193.92 277.19 196.1 283.19 195.62 283.92C195.14 284.65 190.29 285.67 189.41 284.65C188.53 283.63 187.41 278.17 187.48 277.65L175.87 270.08L181.33 268.35Z" fill="#EEC1BB"/>
<path d="M187.55 271.819L184.4 277.209C184.4 277.209 167.89 266.879 165.19 265.209C164.59 264.849 163.37 263.139 161.93 260.639C156.76 251.639 148.72 232.579 156.29 228.799C160.43 226.729 162.82 233.309 162.82 233.309C162.82 233.309 163.3 235.399 164.03 238.309C164.32 239.499 164.65 240.839 165.03 242.239C166.7 248.779 168.86 256.639 169.89 257.569C171.66 259.319 187.55 271.819 187.55 271.819Z" fill="#00AA7E"/>
<path opacity="0.2" d="M161.93 260.671C156.76 251.671 148.72 232.611 156.29 228.831C160.43 226.761 162.82 233.341 162.82 233.341C162.82 233.341 163.3 235.431 164.03 238.341C164.455 239.626 164.789 240.939 165.03 242.271C165.03 242.271 165.03 242.271 165.03 242.271C165.85 247.001 166.33 254.721 161.93 260.671Z" fill="black"/>
<path d="M138.5 248.371C138.5 248.371 133.12 250.211 124.09 246.091C120.15 244.301 110.61 234.561 110.61 234.561C110.61 234.561 118.81 222.431 141.46 218.051C141.46 218.051 156.34 219.981 167.57 244.221C167.57 244.221 156.57 250.211 138.5 248.371Z" fill="#00AA7E"/>
<path d="M156.4 262.391L163.54 271.191C163.54 271.191 165.71 272.041 166.14 273.011C166.57 273.981 167.25 280.321 166.61 280.921C165.97 281.521 161.02 281.361 160.4 280.151C159.78 278.941 159.98 273.381 160.2 272.861L150.72 262.751L156.4 262.391Z" fill="#EEC1BB"/>
<path d="M155.48 398.451L149.41 399.521L146.93 391.251L144.66 383.661L151.65 381.221L153.68 390.341L155.48 398.451Z" fill="#E4897B"/>
<path opacity="0.2" d="M153.72 390.52L146.96 391.42L144.67 383.74L151.66 381.26L153.72 390.52Z" fill="black"/>
<path d="M114.99 401.239H108.83L107.82 392.569L106.9 384.649L114.22 383.439L114.63 392.859L114.99 401.239Z" fill="#E4897B"/>
<path opacity="0.2" d="M114.63 392.939L107.82 392.639L106.9 384.689L114.22 383.449L114.63 392.939Z" fill="black"/>
<path d="M123.34 413.44C122.36 412.65 121.246 412.043 120.05 411.65V411.65C120.05 411.65 116.47 408.11 114.75 397.42L110.07 396.2C109.274 396.009 108.439 396.067 107.678 396.366C106.916 396.664 106.264 397.189 105.81 397.87C105.679 398.056 105.577 398.262 105.51 398.48C105.264 399.641 105.094 400.817 105 402C104.74 405.905 104.716 409.822 104.93 413.73H105.78L106.12 406.37C106.24 403.87 108.12 406.8 108.7 409.49C109.28 412.18 110.41 415.05 115.89 415.18C122.3 415.26 125 415 123.34 413.44Z" fill="#263238"/>
<path d="M164.2 412.721C163.222 411.929 162.107 411.322 160.91 410.931V410.931C160.91 410.931 157.34 407.381 155.62 396.701L150.93 395.481C150.135 395.289 149.301 395.345 148.54 395.642C147.778 395.939 147.125 396.462 146.67 397.141C146.54 397.33 146.442 397.539 146.38 397.761C146.133 398.904 145.966 400.064 145.88 401.231C145.4 404.851 145.81 412.961 145.81 412.961H146.65L146.99 405.601C147.12 403.101 148.99 406.031 149.58 408.721C150.17 411.411 151.29 414.281 156.77 414.411C163.16 414.541 165.82 414.291 164.2 412.721Z" fill="#263238"/>
<path d="M154.29 385.71L144.29 387.47C134.22 362.4 127.07 341.47 122.01 324.12C119.29 314.75 117.01 306.41 115.39 299.02L115.7 326.31V387.78H105.9C82.3299 275.51 79.4499 256.15 108.13 236.78L111.18 234C111.18 234 112.18 239.12 120.85 244.39C128.11 248.8 137.24 249.09 137.24 249.09L130.66 255.35L131.99 265.12L143.5 324.61L154.29 385.71Z" fill="#263238"/>
<g opacity="0.2">
<path d="M154.29 385.71L144.29 387.47C134.22 362.4 127.07 341.47 122.01 324.12C119.29 314.75 117.01 306.41 115.39 299.02L115.7 326.31V387.78H105.9C82.3299 275.51 79.4499 256.15 108.13 236.78L111.18 234C111.18 234 112.18 239.12 120.85 244.39C128.11 248.8 137.24 249.09 137.24 249.09L130.66 255.35L131.99 265.12L143.5 324.61L154.29 385.71Z" fill="white"/>
</g>
<path opacity="0.2" d="M122 324.12C119.28 314.75 117.16 306.41 115.53 299.02C115.666 290.267 116.3 281.53 117.43 272.85C117.43 272.85 121.79 306.61 122 324.12Z" fill="black"/>
<path d="M111.18 234C111.18 234 119.5 245 138.5 248.37L134.94 251.32C124.512 249.986 114.954 244.817 108.13 236.82L111.18 234Z" fill="black"/>
<path d="M132.52 247.669C132.439 247.477 132.321 247.304 132.171 247.159C132.022 247.015 131.844 246.903 131.65 246.829L128.65 245.609C128.291 245.448 127.889 245.41 127.507 245.503C127.125 245.595 126.785 245.812 126.54 246.119L125.48 247.619C125.367 247.775 125.296 247.956 125.271 248.146C125.247 248.337 125.27 248.53 125.34 248.709C125.476 249.055 125.742 249.334 126.08 249.489L126.21 249.549L129.21 250.769C129.57 250.924 129.971 250.957 130.352 250.863C130.733 250.77 131.073 250.554 131.32 250.249L132.37 248.759C132.481 248.603 132.553 248.423 132.58 248.233C132.606 248.043 132.585 247.849 132.52 247.669V247.669ZM129.52 250.139L126.52 248.919C126.425 248.883 126.34 248.828 126.267 248.758C126.195 248.687 126.138 248.602 126.1 248.509C126.066 248.422 126.055 248.328 126.067 248.235C126.08 248.143 126.115 248.055 126.17 247.979L127.23 246.489C127.345 246.342 127.506 246.238 127.687 246.193C127.868 246.147 128.059 246.164 128.23 246.239L131.23 247.459H131.29C131.454 247.534 131.583 247.671 131.65 247.839C131.683 247.926 131.694 248.02 131.682 248.113C131.67 248.206 131.635 248.294 131.58 248.369L131.42 248.589C131.39 248.563 131.356 248.543 131.32 248.529L130.48 248.179C130.353 248.119 130.208 248.106 130.073 248.143C129.937 248.179 129.819 248.263 129.74 248.379C129.709 248.437 129.691 248.5 129.688 248.565C129.684 248.63 129.695 248.695 129.72 248.756C129.745 248.816 129.783 248.87 129.831 248.914C129.88 248.958 129.937 248.99 130 249.009L130.83 249.359L130.49 249.849C130.381 249.982 130.236 250.08 130.073 250.131C129.91 250.183 129.735 250.186 129.57 250.139H129.52Z" fill="white"/>
<path d="M183.46 215.59C184.677 217.122 185.56 218.893 186.051 220.788C186.542 222.682 186.63 224.659 186.31 226.59C185.6 232.42 183.76 240.89 184.78 246.18C185.8 251.47 183.05 256.66 180.55 256.76C180.55 256.76 183.62 254.56 183.49 251.33C183.36 248.1 182.49 242.69 182.49 242.69C182.49 242.69 182.06 248.15 178.49 250.22C174.92 252.29 166.02 248.92 163.17 240.57C160.32 232.22 155.75 229.94 153.48 226.32C151.21 222.7 151.33 219.32 156.84 216.07C162.35 212.82 178.72 209.71 183.46 215.59Z" fill="#263238"/>
<path d="M161.06 240.12L158.45 238.74C156.45 241.79 148.62 238.74 148.62 238.74C145.16 232.62 150.47 224.17 150.47 224.17C151.97 226.94 157.14 226.94 158.24 226.89H158.45L161.06 240.12Z" fill="#EEC1BB"/>
<path opacity="0.2" d="M161.06 240.121L158.45 238.741C156.883 238.092 155.214 237.723 153.52 237.651C153.52 237.651 153.1 231.331 157.45 227.401C157.683 227.188 157.95 227.016 158.24 226.891H158.45L161.06 240.121Z" fill="black"/>
<path d="M178.15 213.561C178.15 213.561 187.63 218.161 184.66 226.261C183.818 228.571 182.337 230.596 180.39 232.099C178.443 233.601 176.109 234.521 173.66 234.751L178.15 213.561Z" fill="#263238"/>
<path d="M174.91 216.809C181.63 220.679 181.73 225.529 178.23 232.739C173.86 241.739 168.4 246.809 161.05 240.119C151.07 230.999 163.73 210.379 174.91 216.809Z" fill="#EEC1BB"/>
<path d="M174.1 229.859C174.059 231.175 174.176 232.491 174.45 233.779C174.093 233.943 173.698 234.005 173.308 233.959C172.919 233.913 172.549 233.761 172.24 233.519L174.1 229.859Z" fill="#D4827D"/>
<path d="M170.3 227C169.99 227.56 169.44 227.84 169.07 227.64C168.7 227.44 168.64 226.82 168.95 226.26C169.26 225.7 169.8 225.41 170.17 225.61C170.54 225.81 170.6 226.38 170.3 227Z" fill="#263238"/>
<path d="M170 225.51L171.48 225.69C171.48 225.69 170.32 226.39 170 225.51Z" fill="#263238"/>
<path d="M177.32 230.62C177.02 231.18 176.47 231.47 176.1 231.27C175.73 231.07 175.67 230.44 175.97 229.88C176.27 229.32 176.83 229.03 177.2 229.24C177.57 229.45 177.63 230.06 177.32 230.62Z" fill="#263238"/>
<path d="M177 229.18L178.48 229.37C178.48 229.37 177.34 230.06 177 229.18Z" fill="#263238"/>
<path d="M172.9 222.26C172.407 221.887 171.835 221.633 171.227 221.518C170.62 221.404 169.995 221.432 169.4 221.6" stroke="#263238" stroke-width="0.706754" stroke-linecap="round" stroke-linejoin="round"/>
<path d="M178 224.789C178.527 224.937 179.014 225.202 179.423 225.566C179.832 225.93 180.152 226.383 180.36 226.889" stroke="#263238" stroke-width="0.706754" stroke-linecap="round" stroke-linejoin="round"/>
<path d="M161 223.919C161 223.919 167.33 220.199 169.3 215.659C169.3 215.659 185.77 217.879 178.64 231.789C178.64 231.789 186.86 220.519 175.45 213.599C164.04 206.679 154.33 220.399 157.45 228.879C157.44 228.879 157.1 226.249 161 223.919Z" fill="#263238"/>
<path d="M179.58 213.78C179.58 213.78 183.46 215.89 184.06 218.28C184.66 220.67 169.69 223.69 163.4 221.03C163.4 221.03 157.83 224.97 157.4 228.88C157.4 228.88 152.08 223.59 158.07 213.72C164.06 203.85 176.64 206.85 179.58 213.78Z" fill="#263238"/>
<path d="M161.31 226.001C161.694 225.185 161.739 224.25 161.435 223.401C161.131 222.552 160.504 221.858 159.69 221.471C157.47 220.471 154.01 224.211 158.61 228.221C159.27 228.771 160.11 228.281 161.31 226.001Z" fill="#EEC1BB"/>
<path d="M184 218.939C184 218.939 176.82 225.749 167.49 223.549" stroke="#263238" stroke-width="0.706754" stroke-linecap="round" stroke-linejoin="round"/>
<path d="M167.49 232.109C167.49 232.109 166.93 234.359 169.62 236.609" stroke="#263238" stroke-width="0.706754" stroke-linecap="round" stroke-linejoin="round"/>
<path opacity="0.2" d="M152.48 248.32C147.829 248.843 143.135 248.86 138.48 248.37C137.585 248.623 136.66 248.754 135.73 248.76C135.3 246.932 135.039 245.067 134.95 243.19C134.68 237.03 136.04 226.09 137.53 224.19C139.02 222.29 145.9 225.09 146.71 230.28C146.71 230.28 147.65 244.28 148.9 245.49C149.62 246.13 151.21 247.36 152.48 248.32Z" fill="black"/>
<path d="M141.46 218.94C130.74 220.5 139.22 253.29 141.46 255.53C143.7 257.77 157.28 271.73 157.28 271.73L161.62 267.24C161.62 267.24 149.16 251.32 147.81 249.32C146.46 247.32 146.73 224 146.73 224C146.73 224 147 218.14 141.46 218.94Z" fill="#00AA7E"/>
<path d="M418.85 122.52H226.15V415.91H418.85V122.52Z" fill="#00AA7E"/>
<path opacity="0.6" d="M418.85 122.52H226.15V415.91H418.85V122.52Z" fill="white"/>
<path opacity="0.2" d="M418.85 122.52H344.01V415.91H418.85V122.52Z" fill="black"/>
<path opacity="0.2" d="M337.7 279.51H231.79V385.42H337.7V279.51Z" fill="black"/>
<path opacity="0.2" d="M337.7 279.51H310.95V385.42H337.7V279.51Z" fill="black"/>
<path opacity="0.2" d="M231.79 279.51L262.74 310.45H310.94H337.7V279.51H231.79Z" fill="black"/>
<path opacity="0.2" d="M337.7 164.629H231.79V270.539H337.7V164.629Z" fill="black"/>
<path d="M334.68 164.629H231.79V270.539H334.68V164.629Z" fill="#00AA7E"/>
<path opacity="0.7" d="M334.68 164.629H231.79V270.539H334.68V164.629Z" fill="white"/>
<path d="M297.36 177.299H260.57V186.789H297.36V177.299Z" fill="white"/>
<path opacity="0.1" d="M313.39 224.41L303.65 211.57H301.71V220.29H299.14L302.45 224.41C302.479 224.45 302.497 224.497 302.501 224.546C302.506 224.595 302.496 224.645 302.475 224.689C302.453 224.733 302.42 224.771 302.378 224.797C302.337 224.824 302.289 224.839 302.24 224.84H274.5C274.256 224.838 274.015 224.78 273.797 224.67C273.579 224.561 273.388 224.404 273.24 224.21L270.24 220.29H259.14L267.14 230.29C267.29 230.475 267.479 230.623 267.693 230.725C267.908 230.827 268.142 230.88 268.38 230.88H312.1C312.519 230.88 312.921 230.714 313.217 230.418C313.513 230.121 313.68 229.719 313.68 229.3V225.35C313.685 225.014 313.584 224.685 313.39 224.41V224.41Z" fill="black"/>
<path d="M302.34 210.92H250.25C249.394 210.92 248.7 211.614 248.7 212.47V220.05C248.7 220.906 249.394 221.6 250.25 221.6H302.34C303.196 221.6 303.89 220.906 303.89 220.05V212.47C303.89 211.614 303.196 210.92 302.34 210.92Z" fill="#00AA7E"/>
<path opacity="0.2" d="M289.88 210.92H250.25C249.394 210.92 248.7 211.614 248.7 212.47V220.05C248.7 220.906 249.394 221.6 250.25 221.6H289.88C290.736 221.6 291.43 220.906 291.43 220.05V212.47C291.43 211.614 290.736 210.92 289.88 210.92Z" fill="white"/>
<path d="M263.55 183.06C265.567 182.395 267.271 181.015 268.34 179.18C267.607 179.689 267.006 180.365 266.587 181.153C266.167 181.941 265.942 182.817 265.93 183.71C267.71 183.99 268.51 181.27 270.25 180.79L269.65 183.43C270.102 183.477 270.558 183.425 270.988 183.278C271.418 183.131 271.811 182.893 272.14 182.58C272.818 182.596 273.493 182.477 274.125 182.23C274.756 181.983 275.333 181.612 275.82 181.14C275.654 180.859 275.394 180.648 275.086 180.543C274.777 180.438 274.442 180.448 274.14 180.57L279.79 181.1C279.636 181.061 279.475 181.06 279.32 181.096C279.165 181.132 279.022 181.204 278.9 181.307C278.779 181.409 278.684 181.539 278.623 181.686C278.562 181.832 278.537 181.991 278.55 182.15C278.591 182.312 278.673 182.462 278.787 182.585C278.902 182.708 279.045 182.8 279.205 182.853C279.364 182.906 279.534 182.918 279.699 182.887C279.865 182.857 280.019 182.786 280.15 182.68C280.315 182.547 280.435 182.365 280.49 182.16C280.516 181.982 280.57 181.81 280.65 181.65C280.85 181.37 281.26 181.4 281.59 181.45C284.991 181.981 288.446 182.068 291.87 181.71" stroke="#263238" stroke-width="0.5" stroke-linecap="round" stroke-linejoin="round"/>
<path opacity="0.1" d="M337.7 330.02L344.01 337.87V415.91H249.47L226.15 390.21L337.7 330.02Z" fill="black"/>
<path d="M281.64 134.98H232.45V154.17H281.64V134.98Z" fill="#00AA7E"/>
<path d="M248.87 134.98H232.45V154.17H248.87V134.98Z" fill="white"/>
<path d="M245.73 141.68C245.2 144.6 244.89 145.92 245.84 148.1C246.79 150.28 246.28 150.77 245.23 151.1C244.18 151.43 236.23 153.44 235.61 150.55C234.99 147.66 236.13 147.61 235.61 145.25C235.09 142.89 234.77 140.1 235.69 138.75C236.61 137.4 245.73 141.68 245.73 141.68Z" fill="#263238"/>
<path d="M233.37 151.77C235.374 150.5 237.72 149.875 240.09 149.98C242.863 150.086 245.593 150.692 248.15 151.77V153.18H233.37V151.77Z" fill="#00AA7E"/>
<path d="M243.14 150.6C242.996 151.023 242.758 151.41 242.445 151.73C242.132 152.05 241.751 152.296 241.33 152.45C239.95 152.15 237.97 150.17 237.97 150.17C239.14 149.5 238.91 147.55 238.64 146.37C238.575 146.072 238.495 145.779 238.4 145.49L239.87 145.27L242.04 147.19C242.04 147.19 242.04 147.34 241.96 147.57C241.769 148.328 241.732 149.117 241.85 149.89C241.878 149.978 241.919 150.062 241.97 150.14C242.121 150.296 242.303 150.418 242.505 150.497C242.707 150.576 242.924 150.611 243.14 150.6V150.6Z" fill="#EEC1BB"/>
<path opacity="0.2" d="M242 150.06C241.756 150.056 241.513 150.016 241.28 149.94C239.89 149.51 239.07 147.57 238.69 146.37C238.592 146.082 238.512 145.788 238.45 145.49L242.01 147.57C241.819 148.328 241.782 149.117 241.9 149.89C241.928 149.95 241.961 150.007 242 150.06V150.06Z" fill="black"/>
<path d="M241.62 137.09C241.62 137.09 245.39 136.97 245.79 140.03C245.912 140.902 245.782 141.79 245.418 142.59C245.053 143.391 244.467 144.071 243.73 144.55L241.62 137.09Z" fill="#263238"/>
<path d="M241.13 138.659C243.91 138.769 244.74 140.289 244.83 143.159C244.95 146.739 244.06 149.249 240.62 148.349C235.94 147.129 236.52 138.479 241.13 138.659Z" fill="#EEC1BB"/>
<path d="M243.05 142.93C243.253 143.353 243.508 143.75 243.81 144.11C243.724 144.222 243.609 144.309 243.476 144.36C243.344 144.412 243.2 144.425 243.06 144.4L243.05 142.93Z" fill="#D4827D"/>
<path d="M241.36 142.639C241.36 142.869 241.23 143.049 241.07 143.049C240.91 143.049 240.8 142.859 240.8 142.629C240.8 142.399 240.93 142.219 241.09 142.219C241.25 142.219 241.36 142.409 241.36 142.639Z" fill="#263238"/>
<path d="M241 142.229L241.5 142.039C241.5 142.039 241.27 142.459 241 142.229Z" fill="#263238"/>
<path d="M244.19 142.629C244.19 142.859 244.06 143.049 243.91 143.039C243.76 143.029 243.64 142.849 243.64 142.629C243.64 142.409 243.77 142.219 243.92 142.219C244.07 142.219 244.2 142.409 244.19 142.629Z" fill="#263238"/>
<path d="M243.86 142.229L244.36 142.039C244.36 142.039 244.11 142.449 243.86 142.229Z" fill="#263238"/>
<path d="M240.18 141.22C240.154 141.23 240.126 141.23 240.1 141.22C240.077 141.196 240.064 141.164 240.064 141.13C240.064 141.097 240.077 141.064 240.1 141.04C240.274 140.872 240.485 140.747 240.716 140.675C240.947 140.604 241.192 140.589 241.43 140.63C241.447 140.631 241.463 140.636 241.478 140.644C241.493 140.652 241.506 140.663 241.516 140.676C241.527 140.689 241.534 140.704 241.538 140.721C241.542 140.737 241.543 140.754 241.54 140.77C241.533 140.804 241.514 140.834 241.486 140.854C241.458 140.874 241.424 140.884 241.39 140.88C241.194 140.844 240.992 140.855 240.8 140.913C240.609 140.97 240.434 141.072 240.29 141.21C240.274 141.22 240.255 141.226 240.236 141.228C240.217 141.229 240.198 141.227 240.18 141.22V141.22Z" fill="#263238"/>
<path d="M244.52 141.079H244.45C244.313 140.965 244.152 140.882 243.979 140.837C243.807 140.792 243.626 140.786 243.45 140.819C243.418 140.829 243.384 140.826 243.354 140.811C243.325 140.796 243.302 140.771 243.29 140.739C243.281 140.707 243.284 140.673 243.298 140.643C243.313 140.614 243.339 140.591 243.37 140.579C243.582 140.53 243.803 140.531 244.014 140.581C244.226 140.632 244.423 140.73 244.59 140.869C244.611 140.894 244.623 140.926 244.623 140.959C244.623 140.992 244.611 141.024 244.59 141.049C244.571 141.067 244.546 141.077 244.52 141.079V141.079Z" fill="#263238"/>
<path d="M237.91 143.219C238.665 142.016 239.099 140.638 239.17 139.219C239.17 139.219 244.76 137.219 244.82 142.779C244.82 142.779 245.55 137.839 240.82 137.549C236.09 137.259 235.26 143.209 237.64 145.389C237.6 145.389 237.06 144.619 237.91 143.219Z" fill="#263238"/>
<path d="M242.11 136.92C242.11 136.92 243.69 136.92 244.27 137.6C244.85 138.28 240.62 141.71 238.18 141.91C238.18 141.91 237.07 144.09 237.6 145.39C237.6 145.39 235.04 144.6 235.3 140.47C235.317 139.685 235.544 138.919 235.959 138.253C236.373 137.586 236.959 137.043 237.655 136.68C238.351 136.317 239.132 136.148 239.915 136.19C240.699 136.232 241.457 136.484 242.11 136.92V136.92Z" fill="#263238"/>
<path d="M238.35 143.819C238.332 143.498 238.189 143.197 237.951 142.98C237.714 142.763 237.401 142.648 237.08 142.659C236.21 142.719 235.74 144.469 237.86 144.979C238.16 145.049 238.35 144.759 238.35 143.819Z" fill="#EEC1BB"/>
<path d="M239.9 142.16C239.872 142.159 239.845 142.148 239.824 142.13C239.802 142.112 239.787 142.088 239.78 142.06C239.774 142.045 239.771 142.028 239.773 142.011C239.774 141.994 239.779 141.978 239.788 141.963C239.797 141.949 239.809 141.936 239.823 141.927C239.837 141.918 239.853 141.912 239.87 141.91C240.865 141.598 241.776 141.064 242.535 140.349C243.294 139.634 243.88 138.755 244.25 137.78C244.266 137.755 244.289 137.736 244.317 137.727C244.344 137.717 244.374 137.716 244.402 137.725C244.43 137.735 244.453 137.753 244.47 137.778C244.486 137.802 244.493 137.831 244.49 137.86C244.106 138.875 243.496 139.788 242.706 140.532C241.915 141.275 240.966 141.829 239.93 142.15L239.9 142.16Z" fill="#263238"/>
<path d="M242.75 145.94C242.413 145.907 242.091 145.78 241.822 145.573C241.554 145.366 241.348 145.088 241.23 144.77C241.224 144.738 241.229 144.705 241.246 144.678C241.263 144.65 241.289 144.629 241.32 144.62C241.353 144.611 241.389 144.615 241.419 144.632C241.449 144.649 241.471 144.677 241.48 144.71C241.48 144.71 241.68 145.45 242.81 145.71C242.841 145.719 242.867 145.74 242.884 145.768C242.901 145.795 242.906 145.828 242.9 145.86C242.895 145.875 242.888 145.889 242.878 145.901C242.868 145.914 242.856 145.924 242.842 145.931C242.828 145.939 242.812 145.943 242.797 145.945C242.781 145.946 242.765 145.945 242.75 145.94Z" fill="#263238"/>
<path d="M246.34 148.39C246.313 148.389 246.287 148.38 246.266 148.364C246.244 148.348 246.228 148.326 246.22 148.3C246.161 148.134 246.087 147.973 246 147.82C245.571 146.934 245.468 145.925 245.71 144.97V144.78C245.99 142.55 246.3 140.02 244.54 138.46C244.529 138.449 244.52 138.436 244.514 138.421C244.508 138.407 244.505 138.391 244.505 138.375C244.505 138.359 244.508 138.344 244.514 138.329C244.52 138.314 244.529 138.301 244.54 138.29C244.564 138.267 244.597 138.254 244.63 138.254C244.664 138.254 244.696 138.267 244.72 138.29C246.59 139.93 246.26 142.53 245.98 144.82V145.01C245.76 146.77 245.98 147.23 246.25 147.71C246.335 147.878 246.408 148.052 246.47 148.23C246.477 148.245 246.48 148.261 246.48 148.278C246.48 148.294 246.476 148.31 246.47 148.325C246.463 148.34 246.454 148.354 246.442 148.365C246.43 148.376 246.416 148.385 246.4 148.39H246.34Z" fill="#263238"/>
<path d="M266.07 139.929H252.49C252.172 139.929 251.867 139.803 251.642 139.578C251.416 139.353 251.29 139.047 251.29 138.729V138.729C251.29 138.572 251.321 138.416 251.382 138.271C251.442 138.126 251.531 137.995 251.642 137.884C251.754 137.773 251.886 137.686 252.032 137.627C252.177 137.568 252.333 137.538 252.49 137.539H266.07C266.386 137.539 266.688 137.664 266.912 137.888C267.135 138.111 267.26 138.413 267.26 138.729C267.261 138.886 267.232 139.042 267.172 139.188C267.113 139.333 267.026 139.465 266.915 139.577C266.804 139.689 266.673 139.777 266.528 139.838C266.383 139.898 266.227 139.929 266.07 139.929V139.929Z" fill="white"/>
<path d="M275.47 145.71H252.23C251.981 145.71 251.742 145.61 251.565 145.434C251.389 145.258 251.29 145.019 251.29 144.77V144.77C251.282 144.641 251.3 144.512 251.344 144.391C251.387 144.27 251.455 144.159 251.543 144.066C251.631 143.972 251.738 143.897 251.856 143.846C251.974 143.795 252.101 143.769 252.23 143.77H275.47C275.599 143.769 275.726 143.795 275.844 143.846C275.962 143.897 276.069 143.972 276.157 144.066C276.245 144.159 276.313 144.27 276.356 144.391C276.4 144.512 276.418 144.641 276.41 144.77V144.77C276.41 145.019 276.311 145.258 276.135 145.434C275.958 145.61 275.719 145.71 275.47 145.71Z" fill="white"/>
<path d="M271.47 149.329H252.23C251.981 149.329 251.742 149.23 251.565 149.054C251.389 148.878 251.29 148.639 251.29 148.389V148.389C251.289 148.265 251.312 148.142 251.359 148.027C251.405 147.911 251.474 147.807 251.562 147.718C251.649 147.63 251.753 147.56 251.868 147.512C251.983 147.464 252.106 147.439 252.23 147.439H271.47C271.594 147.439 271.717 147.464 271.832 147.512C271.947 147.56 272.051 147.63 272.138 147.718C272.226 147.807 272.295 147.911 272.341 148.027C272.388 148.142 272.411 148.265 272.41 148.389V148.389C272.41 148.639 272.311 148.878 272.135 149.054C271.958 149.23 271.719 149.329 271.47 149.329V149.329Z" fill="white"/>
<path d="M329.61 291.11H272.93L272.35 287.45C272.289 287.048 272.084 286.682 271.773 286.421C271.462 286.159 271.066 286.02 270.66 286.03H255C254.563 286.041 254.14 286.182 253.784 286.435C253.427 286.688 253.155 287.041 253 287.45L251.63 291.11H238.91C237.704 291.132 236.547 291.59 235.652 292.399C234.757 293.207 234.184 294.312 234.04 295.51L226.29 366.51C226.212 367.065 226.255 367.63 226.416 368.167C226.578 368.703 226.854 369.199 227.226 369.618C227.598 370.037 228.057 370.371 228.57 370.596C229.083 370.82 229.64 370.931 230.2 370.92H320.9C322.106 370.894 323.262 370.434 324.155 369.624C325.048 368.813 325.618 367.707 325.76 366.51L333.51 295.51C333.588 294.956 333.545 294.392 333.384 293.857C333.223 293.321 332.948 292.827 332.577 292.409C332.206 291.99 331.748 291.657 331.236 291.433C330.724 291.209 330.169 291.098 329.61 291.11V291.11Z" fill="#00AA7E"/>
<path opacity="0.4" d="M329.61 291.11H272.93L272.35 287.45C272.289 287.048 272.084 286.682 271.773 286.421C271.462 286.159 271.066 286.02 270.66 286.03H255C254.563 286.041 254.14 286.182 253.784 286.435C253.427 286.688 253.155 287.041 253 287.45L251.63 291.11H238.91C237.704 291.132 236.547 291.59 235.652 292.399C234.757 293.207 234.184 294.312 234.04 295.51L226.29 366.51C226.212 367.065 226.255 367.63 226.416 368.167C226.578 368.703 226.854 369.199 227.226 369.618C227.598 370.037 228.057 370.371 228.57 370.596C229.083 370.82 229.64 370.931 230.2 370.92H320.9C322.106 370.894 323.262 370.434 324.155 369.624C325.048 368.813 325.618 367.707 325.76 366.51L333.51 295.51C333.588 294.956 333.545 294.392 333.384 293.857C333.223 293.321 332.948 292.827 332.577 292.409C332.206 291.99 331.748 291.657 331.236 291.433C330.724 291.209 330.169 291.098 329.61 291.11V291.11Z" fill="black"/>
<path d="M226.44 368.199L229.48 294.379H327.54L322.66 366.579L226.44 368.199Z" fill="#00AA7E"/>
<path opacity="0.7" d="M226.44 368.199L229.48 294.379H327.54L322.66 366.579L226.44 368.199Z" fill="white"/>
<path d="M319.64 371.2H228.93C228.374 371.217 227.82 371.124 227.3 370.927C226.781 370.73 226.305 370.431 225.901 370.049C225.496 369.667 225.172 369.209 224.945 368.701C224.718 368.194 224.594 367.646 224.58 367.09L225.13 300.87C225.174 299.742 225.663 298.677 226.489 297.907C227.315 297.137 228.411 296.725 229.54 296.76H320.25C320.806 296.743 321.36 296.835 321.88 297.033C322.4 297.23 322.875 297.528 323.28 297.91C323.684 298.292 324.009 298.75 324.235 299.258C324.462 299.766 324.586 300.314 324.6 300.87L324.06 367.09C324.011 368.218 323.519 369.282 322.692 370.051C321.865 370.82 320.769 371.232 319.64 371.2V371.2Z" fill="#00AA7E"/>
<path opacity="0.25" d="M319.64 371.2H228.93C228.374 371.217 227.82 371.124 227.3 370.927C226.781 370.73 226.305 370.431 225.901 370.049C225.496 369.667 225.172 369.209 224.945 368.701C224.718 368.194 224.594 367.646 224.58 367.09L225.13 300.87C225.174 299.742 225.663 298.677 226.489 297.907C227.315 297.137 228.411 296.725 229.54 296.76H320.25C320.806 296.743 321.36 296.835 321.88 297.033C322.4 297.23 322.875 297.528 323.28 297.91C323.684 298.292 324.009 298.75 324.235 299.258C324.462 299.766 324.586 300.314 324.6 300.87L324.06 367.09C324.011 368.218 323.519 369.282 322.692 370.051C321.865 370.82 320.769 371.232 319.64 371.2V371.2Z" fill="black"/>
<path opacity="0.15" d="M283.24 296.76L285.08 363.94H235.45L232.57 296.76H283.24Z" fill="black"/>
<path d="M268.58 288.859H211.9L210.9 285.219C210.794 284.812 210.555 284.452 210.222 284.195C209.889 283.938 209.481 283.798 209.06 283.799H193.43C193.009 283.798 192.601 283.938 192.268 284.195C191.935 284.452 191.696 284.812 191.59 285.219L190.59 288.859H177.88C176.718 288.859 175.604 289.32 174.783 290.142C173.961 290.963 173.5 292.077 173.5 293.239V363.879C173.5 365.04 173.961 366.155 174.783 366.976C175.604 367.797 176.718 368.259 177.88 368.259H268.58C269.743 368.259 270.858 367.798 271.681 366.977C272.504 366.155 272.967 365.041 272.97 363.879V293.239C272.967 292.076 272.504 290.962 271.681 290.141C270.858 289.32 269.743 288.859 268.58 288.859V288.859Z" fill="#00AA7E"/>
<path opacity="0.15" d="M268.58 288.859H211.9L210.9 285.219C210.794 284.812 210.555 284.452 210.222 284.195C209.889 283.938 209.481 283.798 209.06 283.799H193.43C193.009 283.798 192.601 283.938 192.268 284.195C191.935 284.452 191.696 284.812 191.59 285.219L190.59 288.859H177.88C176.718 288.859 175.604 289.32 174.783 290.142C173.961 290.963 173.5 292.077 173.5 293.239V363.879C173.5 365.04 173.961 366.155 174.783 366.976C175.604 367.797 176.718 368.259 177.88 368.259H268.58C269.743 368.259 270.858 367.798 271.681 366.977C272.504 366.155 272.967 365.041 272.97 363.879V293.239C272.967 292.076 272.504 290.962 271.681 290.141C270.858 289.32 269.743 288.859 268.58 288.859V288.859Z" fill="black"/>
<path d="M173.83 365.559L168.81 292.109H266.87L269.87 363.939L173.83 365.559Z" fill="#00AA7E"/>
<path opacity="0.8" d="M173.83 365.559L168.81 292.109H266.87L269.87 363.939L173.83 365.559Z" fill="white"/>
<path d="M267.35 368.539H176.65C175.492 368.549 174.368 368.141 173.487 367.39C172.605 366.639 172.024 365.594 171.85 364.449L165.16 298.569C165.113 298.027 165.183 297.482 165.366 296.971C165.549 296.459 165.841 295.993 166.221 295.605C166.601 295.216 167.06 294.915 167.567 294.72C168.075 294.526 168.618 294.443 169.16 294.479H259.87C261.028 294.466 262.151 294.874 263.032 295.626C263.913 296.378 264.491 297.423 264.66 298.569L271.35 364.449C271.398 364.99 271.327 365.535 271.144 366.047C270.961 366.558 270.67 367.024 270.29 367.413C269.91 367.801 269.451 368.103 268.943 368.297C268.436 368.491 267.892 368.574 267.35 368.539V368.539Z" fill="#00AA7E"/>
<path d="M243.72 344.26L337.7 330.02V381.19L250.6 397.86L243.72 344.26Z" fill="#00AA7E"/>
<path opacity="0.5" d="M243.72 344.26L337.7 330.02V381.19L250.6 397.86L243.72 344.26Z" fill="white"/>
<path opacity="0.7" d="M243.72 344.26L245.04 345.71L337.7 331.46V330.02L243.72 344.26Z" fill="white"/>
<path opacity="0.2" d="M259.14 341.93L263.38 342.89L266.87 394.75L250.6 397.86L243.72 344.26L259.14 341.93Z" fill="black"/>
<path d="M259.14 404.6H153.24L146.58 300.27H252.49L259.14 404.6Z" fill="#00AA7E"/>
<path opacity="0.7" d="M259.14 404.6H153.24L146.58 300.27H252.49L259.14 404.6Z" fill="white"/>
<path opacity="0.2" d="M259.14 404.6H256.13L249.47 300.27H252.49L259.14 404.6Z" fill="black"/>
<path d="M213.54 322.11H176.75L176.16 312.75H212.95L213.54 322.11Z" fill="white"/>
<path opacity="0.1" d="M231.94 359.16L221.39 346.51H219.45L220 355.1H217.43L220.99 359.16C221.023 359.195 221.045 359.239 221.053 359.287C221.061 359.335 221.056 359.384 221.037 359.428C221.018 359.473 220.986 359.511 220.946 359.538C220.906 359.564 220.859 359.579 220.81 359.58H193.07C192.822 359.577 192.577 359.519 192.352 359.412C192.128 359.305 191.929 359.151 191.77 358.96L188.55 355.1H177.43L186.09 364.97C186.248 365.153 186.443 365.3 186.662 365.402C186.881 365.503 187.119 365.557 187.36 365.56H231.09C231.292 365.563 231.493 365.524 231.679 365.446C231.866 365.368 232.034 365.251 232.173 365.105C232.312 364.958 232.419 364.784 232.487 364.594C232.556 364.404 232.584 364.201 232.57 364L232.32 360.11C232.295 359.761 232.162 359.43 231.94 359.16V359.16Z" fill="black"/>
<path d="M220.71 356.399H168.62C168.205 356.396 167.806 356.236 167.503 355.953C167.199 355.67 167.013 355.283 166.98 354.869L166.5 347.399C166.486 347.202 166.514 347.004 166.581 346.818C166.648 346.632 166.753 346.462 166.889 346.319C167.026 346.176 167.191 346.063 167.373 345.987C167.556 345.911 167.752 345.875 167.95 345.879H220C220.415 345.883 220.813 346.04 221.118 346.321C221.423 346.602 221.613 346.986 221.65 347.399L222.12 354.869C222.135 355.064 222.11 355.26 222.046 355.444C221.982 355.629 221.881 355.798 221.749 355.942C221.616 356.085 221.456 356.2 221.277 356.279C221.098 356.357 220.905 356.399 220.71 356.399V356.399Z" fill="#00AA7E"/>
<path opacity="0.2" d="M208.25 356.399H168.62C168.205 356.396 167.806 356.236 167.503 355.953C167.199 355.67 167.013 355.283 166.98 354.869L166.5 347.399C166.486 347.202 166.514 347.004 166.581 346.818C166.648 346.632 166.753 346.462 166.889 346.319C167.026 346.176 167.191 346.063 167.373 345.987C167.556 345.911 167.752 345.875 167.95 345.879H207.58C207.994 345.881 208.393 346.038 208.697 346.319C209.001 346.601 209.187 346.986 209.22 347.399L209.7 354.869C209.714 355.067 209.687 355.265 209.62 355.452C209.553 355.639 209.448 355.809 209.312 355.953C209.175 356.097 209.01 356.211 208.828 356.288C208.645 356.365 208.448 356.403 208.25 356.399V356.399Z" fill="white"/>
<path d="M179.85 317.44C180.537 317.666 181.277 317.675 181.97 317.466C182.662 317.256 183.273 316.839 183.72 316.27C183.72 317.06 183.49 318.08 183.54 318.98C184.247 318.27 184.823 317.44 185.24 316.53C184.5 318.16 186.44 318.53 187.58 317.99C187.959 317.817 188.283 317.544 188.517 317.2C188.752 316.856 188.887 316.455 188.91 316.04C188.91 315.78 188.8 315.46 188.54 315.41C188.28 315.36 188.08 315.58 187.95 315.79C187.49 316.5 186.95 318.46 188.07 318.7C189.19 318.94 190.49 317.05 190.79 316.28C190.487 316.432 190.237 316.671 190.071 316.967C189.905 317.263 189.832 317.602 189.86 317.94C191.02 317.89 192.61 318.17 192.68 316.61C192.58 318.67 194.54 317.97 195.26 316.61C195.03 317.34 196.12 317.71 196.88 317.7L207.09 317.47" stroke="#263238" stroke-width="0.5" stroke-linecap="round" stroke-linejoin="round"/>
</svg>
