<svg width="22" height="22" viewBox="0 0 22 22" fill="none" xmlns="http://www.w3.org/2000/svg">
<path d="M2.84995 11.0002C2.84995 11.8502 2.98328 12.6792 3.24995 13.4872C3.51662 14.2959 3.89995 15.0502 4.39995 15.7502L15.75 4.4002C15.05 3.9002 14.296 3.51686 13.488 3.2502C12.6793 2.98353 11.85 2.8502 11 2.8502C8.73328 2.8502 6.80828 3.64186 5.22495 5.22519C3.64162 6.80853 2.84995 8.73353 2.84995 11.0002ZM6.24995 17.6002C6.94995 18.1002 7.70428 18.4835 8.51295 18.7502C9.32095 19.0169 10.15 19.1502 11 19.1502C13.2666 19.1502 15.1916 18.3585 16.775 16.7752C18.3583 15.1919 19.15 13.2669 19.15 11.0002C19.15 10.1502 19.0166 9.32086 18.75 8.5122C18.4833 7.7042 18.1 6.9502 17.6 6.2502L6.24995 17.6002ZM0.199951 11.0002C0.199951 9.5002 0.483284 8.09586 1.04995 6.7872C1.61662 5.4792 2.38762 4.33753 3.36295 3.3622C4.33762 2.38753 5.47895 1.61686 6.78695 1.0502C8.09562 0.483529 9.49995 0.200195 11 0.200195C12.5 0.200195 13.904 0.483529 15.212 1.0502C16.5206 1.61686 17.6626 2.38753 18.638 3.3622C19.6126 4.33753 20.3833 5.4792 20.95 6.7872C21.5166 8.09586 21.7999 9.5002 21.7999 11.0002C21.7999 12.5002 21.5166 13.9042 20.95 15.2122C20.3833 16.5209 19.6126 17.6629 18.638 18.6382C17.6626 19.6129 16.5206 20.3835 15.212 20.9502C13.904 21.5169 12.5 21.8002 11 21.8002C9.49995 21.8002 8.09562 21.5169 6.78695 20.9502C5.47895 20.3835 4.33762 19.6129 3.36295 18.6382C2.38762 17.6629 1.61662 16.5209 1.04995 15.2122C0.483284 13.9042 0.199951 12.5002 0.199951 11.0002Z" fill="#DB0049"/>
</svg>
